M48
; DRILL file {KiCad 8.0.5} date 2024-10-14T19:29:41+0200
; FORMAT={-:-/ absolute / inch / decimal}
; #@! TF.CreationDate,2024-10-14T19:29:41+02:00
; #@! TF.GenerationSoftware,Kicad,Pcbnew,8.0.5
; #@! TF.FileFunction,NonPlated,1,2,NPTH
FMAT,2
INCH
; #@! TA.AperFunction,NonPlated,NPTH,ComponentDrill
T1C0.0689
; #@! TA.AperFunction,NonPlated,NPTH,ComponentDrill
T2C0.1570
%
G90
G05
T1
X2.175Y-2.0625
X2.2687Y-2.8125
X2.3625Y-4.3125
X2.4562Y-3.5625
X2.575Y-2.0625
X2.6687Y-2.8125
X2.7625Y-4.3125
X2.8562Y-3.5625
X2.925Y-2.0625
X3.1125Y-2.8125
X3.325Y-2.0625
X3.4875Y-3.5625
X3.4875Y-4.5
X3.5125Y-2.8125
X3.675Y-2.0625
X3.675Y-4.5
X3.8625Y-2.8125
X3.8875Y-3.5625
X3.8875Y-4.5
X4.075Y-2.0625
X4.075Y-4.5
X4.2375Y-3.5625
X4.2375Y-4.5
X4.2625Y-2.8125
X4.425Y-2.0625
X4.6125Y-2.8125
X4.6375Y-3.5625
X4.6375Y-4.5
X4.825Y-2.0625
X4.9875Y-3.5625
X4.9875Y-4.5
X4.9875Y-4.5
X5.0125Y-2.8125
X5.175Y-2.0625
X5.2687Y-4.5
X5.3625Y-2.8125
X5.3875Y-3.5625
X5.3875Y-4.5
X5.3875Y-4.5
X5.575Y-2.0625
X5.6688Y-4.5
X5.7375Y-3.5625
X5.7625Y-2.8125
X5.925Y-2.0625
X6.1125Y-2.8125
X6.1125Y-4.5
X6.1375Y-3.5625
X6.325Y-2.0625
X6.4875Y-3.5625
X6.4875Y-4.5
X6.5125Y-2.8125
X6.5125Y-4.5
X6.675Y-2.0625
X6.8625Y-2.8125
X6.8875Y-3.5625
X6.8875Y-4.5
X7.075Y-2.0625
X7.1437Y-4.5
X7.2375Y-3.5625
X7.2375Y-4.5
X7.2375Y-4.5
X7.2625Y-2.8125
X7.425Y-2.0625
X7.5438Y-4.5
X7.6125Y-2.8125
X7.6375Y-3.5625
X7.6375Y-4.5
X7.6375Y-4.5
X7.825Y-2.0625
X7.9875Y-3.5625
X7.9875Y-4.5
X8.0125Y-2.8125
X8.175Y-2.0625
X8.3625Y-2.8125
X8.3875Y-3.5625
X8.3875Y-4.5
X8.55Y-4.5
X8.575Y-2.0625
X8.7375Y-3.5625
X8.7375Y-4.5
X8.7625Y-2.8125
X8.925Y-2.0625
X8.95Y-4.5
X9.1125Y-2.8125
X9.1375Y-3.5625
X9.1375Y-4.5
X9.325Y-2.0625
X9.4875Y-3.5625
X9.5125Y-2.8125
X9.675Y-2.0625
X9.675Y-4.5
X9.8875Y-3.5625
X10.075Y-2.0625
X10.075Y-4.5
X10.1437Y-2.8125
X10.425Y-2.0625
X10.425Y-3.75
X10.425Y-4.5
X10.5437Y-2.8125
X10.825Y-2.0625
X10.825Y-3.75
X10.825Y-4.5
X11.175Y-4.5
X11.3625Y-2.0625
X11.3625Y-2.8125
X11.3625Y-3.5625
X11.575Y-4.5
X11.7625Y-2.0625
X11.7625Y-2.8125
X11.7625Y-3.5625
T2
X2.375Y-2.0625
X2.4688Y-2.8125
X2.5625Y-4.3125
X2.6562Y-3.5625
X3.125Y-2.0625
X3.3125Y-2.8125
X3.6875Y-3.5625
X3.6875Y-4.175
X3.6875Y-4.5
X3.875Y-2.0625
X3.875Y-4.5
X4.0625Y-2.8125
X4.4375Y-3.5625
X4.4375Y-4.175
X4.4375Y-4.175
X4.4375Y-4.175
X4.4375Y-4.5
X4.625Y-2.0625
X4.7188Y-4.175
X4.8125Y-2.8125
X5.0Y-4.175
X5.1875Y-3.5625
X5.1875Y-4.175
X5.1875Y-4.5
X5.1875Y-4.5
X5.375Y-2.0625
X5.4688Y-4.5
X5.5625Y-2.8125
X5.6562Y-4.175
X5.9375Y-3.5625
X5.9375Y-4.175
X5.9375Y-4.175
X6.125Y-2.0625
X6.3125Y-2.8125
X6.3125Y-4.5
X6.6875Y-3.5625
X6.6875Y-4.175
X6.6875Y-4.5
X6.875Y-2.0625
X6.875Y-4.175
X6.9688Y-4.175
X7.0625Y-2.8125
X7.3438Y-4.5
X7.4375Y-3.5625
X7.4375Y-4.175
X7.4375Y-4.5
X7.4375Y-4.5
X7.625Y-2.0625
X7.8125Y-2.8125
X7.8125Y-4.175
X7.9062Y-4.175
X8.1875Y-3.5625
X8.1875Y-4.175
X8.1875Y-4.175
X8.1875Y-4.5
X8.375Y-2.0625
X8.5625Y-2.8125
X8.75Y-4.5
X8.9375Y-3.5625
X8.9375Y-4.175
X8.9375Y-4.175
X8.9375Y-4.5
X9.125Y-2.0625
X9.3125Y-2.8125
X9.6875Y-3.5625
X9.875Y-2.0625
X9.875Y-4.5
X10.3438Y-2.8125
X10.625Y-2.0625
X10.625Y-3.75
X10.625Y-4.5
X11.375Y-4.5
X11.5625Y-2.0625
X11.5625Y-2.8125
X11.5625Y-3.5625
M30
