%TF.GenerationSoftware,KiCad,Pcbnew,8.0.5*%
%TF.CreationDate,2024-10-14T19:29:39+02:00*%
%TF.ProjectId,Eightu,45696768-7475-42e6-9b69-6361645f7063,rev?*%
%TF.SameCoordinates,Original*%
%TF.FileFunction,Legend,Top*%
%TF.FilePolarity,Positive*%
%FSLAX46Y46*%
G04 Gerber Fmt 4.6, Leading zero omitted, Abs format (unit mm)*
G04 Created by KiCad (PCBNEW 8.0.5) date 2024-10-14 19:29:39*
%MOMM*%
%LPD*%
G01*
G04 APERTURE LIST*
%ADD10C,0.150000*%
%ADD11C,0.120000*%
%ADD12C,0.000000*%
G04 APERTURE END LIST*
D10*
X283705529Y-121440652D02*
X283705529Y-122440652D01*
X283705529Y-121488271D02*
X283800767Y-121440652D01*
X283800767Y-121440652D02*
X283991243Y-121440652D01*
X283991243Y-121440652D02*
X284086481Y-121488271D01*
X284086481Y-121488271D02*
X284134100Y-121535890D01*
X284134100Y-121535890D02*
X284181719Y-121631128D01*
X284181719Y-121631128D02*
X284181719Y-121916842D01*
X284181719Y-121916842D02*
X284134100Y-122012080D01*
X284134100Y-122012080D02*
X284086481Y-122059700D01*
X284086481Y-122059700D02*
X283991243Y-122107319D01*
X283991243Y-122107319D02*
X283800767Y-122107319D01*
X283800767Y-122107319D02*
X283705529Y-122059700D01*
X285038862Y-122059700D02*
X284943624Y-122107319D01*
X284943624Y-122107319D02*
X284753148Y-122107319D01*
X284753148Y-122107319D02*
X284657910Y-122059700D01*
X284657910Y-122059700D02*
X284610291Y-122012080D01*
X284610291Y-122012080D02*
X284562672Y-121916842D01*
X284562672Y-121916842D02*
X284562672Y-121631128D01*
X284562672Y-121631128D02*
X284610291Y-121535890D01*
X284610291Y-121535890D02*
X284657910Y-121488271D01*
X284657910Y-121488271D02*
X284753148Y-121440652D01*
X284753148Y-121440652D02*
X284943624Y-121440652D01*
X284943624Y-121440652D02*
X285038862Y-121488271D01*
X285467434Y-122107319D02*
X285467434Y-121107319D01*
X285467434Y-121488271D02*
X285562672Y-121440652D01*
X285562672Y-121440652D02*
X285753148Y-121440652D01*
X285753148Y-121440652D02*
X285848386Y-121488271D01*
X285848386Y-121488271D02*
X285896005Y-121535890D01*
X285896005Y-121535890D02*
X285943624Y-121631128D01*
X285943624Y-121631128D02*
X285943624Y-121916842D01*
X285943624Y-121916842D02*
X285896005Y-122012080D01*
X285896005Y-122012080D02*
X285848386Y-122059700D01*
X285848386Y-122059700D02*
X285753148Y-122107319D01*
X285753148Y-122107319D02*
X285562672Y-122107319D01*
X285562672Y-122107319D02*
X285467434Y-122059700D01*
X287134101Y-122107319D02*
X287134101Y-121107319D01*
X287134101Y-121488271D02*
X287229339Y-121440652D01*
X287229339Y-121440652D02*
X287419815Y-121440652D01*
X287419815Y-121440652D02*
X287515053Y-121488271D01*
X287515053Y-121488271D02*
X287562672Y-121535890D01*
X287562672Y-121535890D02*
X287610291Y-121631128D01*
X287610291Y-121631128D02*
X287610291Y-121916842D01*
X287610291Y-121916842D02*
X287562672Y-122012080D01*
X287562672Y-122012080D02*
X287515053Y-122059700D01*
X287515053Y-122059700D02*
X287419815Y-122107319D01*
X287419815Y-122107319D02*
X287229339Y-122107319D01*
X287229339Y-122107319D02*
X287134101Y-122059700D01*
X287943625Y-121440652D02*
X288181720Y-122107319D01*
X288419815Y-121440652D02*
X288181720Y-122107319D01*
X288181720Y-122107319D02*
X288086482Y-122345414D01*
X288086482Y-122345414D02*
X288038863Y-122393033D01*
X288038863Y-122393033D02*
X287943625Y-122440652D01*
X289991244Y-122059700D02*
X289896006Y-122107319D01*
X289896006Y-122107319D02*
X289705530Y-122107319D01*
X289705530Y-122107319D02*
X289610292Y-122059700D01*
X289610292Y-122059700D02*
X289562673Y-122012080D01*
X289562673Y-122012080D02*
X289515054Y-121916842D01*
X289515054Y-121916842D02*
X289515054Y-121631128D01*
X289515054Y-121631128D02*
X289562673Y-121535890D01*
X289562673Y-121535890D02*
X289610292Y-121488271D01*
X289610292Y-121488271D02*
X289705530Y-121440652D01*
X289705530Y-121440652D02*
X289896006Y-121440652D01*
X289896006Y-121440652D02*
X289991244Y-121488271D01*
X290848387Y-122107319D02*
X290848387Y-121583509D01*
X290848387Y-121583509D02*
X290800768Y-121488271D01*
X290800768Y-121488271D02*
X290705530Y-121440652D01*
X290705530Y-121440652D02*
X290515054Y-121440652D01*
X290515054Y-121440652D02*
X290419816Y-121488271D01*
X290848387Y-122059700D02*
X290753149Y-122107319D01*
X290753149Y-122107319D02*
X290515054Y-122107319D01*
X290515054Y-122107319D02*
X290419816Y-122059700D01*
X290419816Y-122059700D02*
X290372197Y-121964461D01*
X290372197Y-121964461D02*
X290372197Y-121869223D01*
X290372197Y-121869223D02*
X290419816Y-121773985D01*
X290419816Y-121773985D02*
X290515054Y-121726366D01*
X290515054Y-121726366D02*
X290753149Y-121726366D01*
X290753149Y-121726366D02*
X290848387Y-121678747D01*
X291467435Y-122107319D02*
X291372197Y-122059700D01*
X291372197Y-122059700D02*
X291324578Y-121964461D01*
X291324578Y-121964461D02*
X291324578Y-121107319D01*
X291753150Y-121440652D02*
X291991245Y-122107319D01*
X291991245Y-122107319D02*
X292229340Y-121440652D01*
X292610293Y-122107319D02*
X292610293Y-121440652D01*
X292610293Y-121107319D02*
X292562674Y-121154938D01*
X292562674Y-121154938D02*
X292610293Y-121202557D01*
X292610293Y-121202557D02*
X292657912Y-121154938D01*
X292657912Y-121154938D02*
X292610293Y-121107319D01*
X292610293Y-121107319D02*
X292610293Y-121202557D01*
X293086483Y-121440652D02*
X293086483Y-122107319D01*
X293086483Y-121535890D02*
X293134102Y-121488271D01*
X293134102Y-121488271D02*
X293229340Y-121440652D01*
X293229340Y-121440652D02*
X293372197Y-121440652D01*
X293372197Y-121440652D02*
X293467435Y-121488271D01*
X293467435Y-121488271D02*
X293515054Y-121583509D01*
X293515054Y-121583509D02*
X293515054Y-122107319D01*
X294181721Y-121107319D02*
X294276959Y-121107319D01*
X294276959Y-121107319D02*
X294372197Y-121154938D01*
X294372197Y-121154938D02*
X294419816Y-121202557D01*
X294419816Y-121202557D02*
X294467435Y-121297795D01*
X294467435Y-121297795D02*
X294515054Y-121488271D01*
X294515054Y-121488271D02*
X294515054Y-121726366D01*
X294515054Y-121726366D02*
X294467435Y-121916842D01*
X294467435Y-121916842D02*
X294419816Y-122012080D01*
X294419816Y-122012080D02*
X294372197Y-122059700D01*
X294372197Y-122059700D02*
X294276959Y-122107319D01*
X294276959Y-122107319D02*
X294181721Y-122107319D01*
X294181721Y-122107319D02*
X294086483Y-122059700D01*
X294086483Y-122059700D02*
X294038864Y-122012080D01*
X294038864Y-122012080D02*
X293991245Y-121916842D01*
X293991245Y-121916842D02*
X293943626Y-121726366D01*
X293943626Y-121726366D02*
X293943626Y-121488271D01*
X293943626Y-121488271D02*
X293991245Y-121297795D01*
X293991245Y-121297795D02*
X294038864Y-121202557D01*
X294038864Y-121202557D02*
X294086483Y-121154938D01*
X294086483Y-121154938D02*
X294181721Y-121107319D01*
X295419816Y-121107319D02*
X294943626Y-121107319D01*
X294943626Y-121107319D02*
X294896007Y-121583509D01*
X294896007Y-121583509D02*
X294943626Y-121535890D01*
X294943626Y-121535890D02*
X295038864Y-121488271D01*
X295038864Y-121488271D02*
X295276959Y-121488271D01*
X295276959Y-121488271D02*
X295372197Y-121535890D01*
X295372197Y-121535890D02*
X295419816Y-121583509D01*
X295419816Y-121583509D02*
X295467435Y-121678747D01*
X295467435Y-121678747D02*
X295467435Y-121916842D01*
X295467435Y-121916842D02*
X295419816Y-122012080D01*
X295419816Y-122012080D02*
X295372197Y-122059700D01*
X295372197Y-122059700D02*
X295276959Y-122107319D01*
X295276959Y-122107319D02*
X295038864Y-122107319D01*
X295038864Y-122107319D02*
X294943626Y-122059700D01*
X294943626Y-122059700D02*
X294896007Y-122012080D01*
X296324578Y-121107319D02*
X296134102Y-121107319D01*
X296134102Y-121107319D02*
X296038864Y-121154938D01*
X296038864Y-121154938D02*
X295991245Y-121202557D01*
X295991245Y-121202557D02*
X295896007Y-121345414D01*
X295896007Y-121345414D02*
X295848388Y-121535890D01*
X295848388Y-121535890D02*
X295848388Y-121916842D01*
X295848388Y-121916842D02*
X295896007Y-122012080D01*
X295896007Y-122012080D02*
X295943626Y-122059700D01*
X295943626Y-122059700D02*
X296038864Y-122107319D01*
X296038864Y-122107319D02*
X296229340Y-122107319D01*
X296229340Y-122107319D02*
X296324578Y-122059700D01*
X296324578Y-122059700D02*
X296372197Y-122012080D01*
X296372197Y-122012080D02*
X296419816Y-121916842D01*
X296419816Y-121916842D02*
X296419816Y-121678747D01*
X296419816Y-121678747D02*
X296372197Y-121583509D01*
X296372197Y-121583509D02*
X296324578Y-121535890D01*
X296324578Y-121535890D02*
X296229340Y-121488271D01*
X296229340Y-121488271D02*
X296038864Y-121488271D01*
X296038864Y-121488271D02*
X295943626Y-121535890D01*
X295943626Y-121535890D02*
X295896007Y-121583509D01*
X295896007Y-121583509D02*
X295848388Y-121678747D01*
X296753150Y-121107319D02*
X297372197Y-121107319D01*
X297372197Y-121107319D02*
X297038864Y-121488271D01*
X297038864Y-121488271D02*
X297181721Y-121488271D01*
X297181721Y-121488271D02*
X297276959Y-121535890D01*
X297276959Y-121535890D02*
X297324578Y-121583509D01*
X297324578Y-121583509D02*
X297372197Y-121678747D01*
X297372197Y-121678747D02*
X297372197Y-121916842D01*
X297372197Y-121916842D02*
X297324578Y-122012080D01*
X297324578Y-122012080D02*
X297276959Y-122059700D01*
X297276959Y-122059700D02*
X297181721Y-122107319D01*
X297181721Y-122107319D02*
X296896007Y-122107319D01*
X296896007Y-122107319D02*
X296800769Y-122059700D01*
X296800769Y-122059700D02*
X296753150Y-122012080D01*
X75743029Y-122107319D02*
X75743029Y-121107319D01*
X75743029Y-121488271D02*
X75838267Y-121440652D01*
X75838267Y-121440652D02*
X76028743Y-121440652D01*
X76028743Y-121440652D02*
X76123981Y-121488271D01*
X76123981Y-121488271D02*
X76171600Y-121535890D01*
X76171600Y-121535890D02*
X76219219Y-121631128D01*
X76219219Y-121631128D02*
X76219219Y-121916842D01*
X76219219Y-121916842D02*
X76171600Y-122012080D01*
X76171600Y-122012080D02*
X76123981Y-122059700D01*
X76123981Y-122059700D02*
X76028743Y-122107319D01*
X76028743Y-122107319D02*
X75838267Y-122107319D01*
X75838267Y-122107319D02*
X75743029Y-122059700D01*
X76552553Y-121440652D02*
X76790648Y-122107319D01*
X77028743Y-121440652D02*
X76790648Y-122107319D01*
X76790648Y-122107319D02*
X76695410Y-122345414D01*
X76695410Y-122345414D02*
X76647791Y-122393033D01*
X76647791Y-122393033D02*
X76552553Y-122440652D01*
X77933506Y-122202557D02*
X78695410Y-122202557D01*
X79076363Y-122107319D02*
X78981125Y-122059700D01*
X78981125Y-122059700D02*
X78933506Y-122012080D01*
X78933506Y-122012080D02*
X78885887Y-121916842D01*
X78885887Y-121916842D02*
X78885887Y-121631128D01*
X78885887Y-121631128D02*
X78933506Y-121535890D01*
X78933506Y-121535890D02*
X78981125Y-121488271D01*
X78981125Y-121488271D02*
X79076363Y-121440652D01*
X79076363Y-121440652D02*
X79219220Y-121440652D01*
X79219220Y-121440652D02*
X79314458Y-121488271D01*
X79314458Y-121488271D02*
X79362077Y-121535890D01*
X79362077Y-121535890D02*
X79409696Y-121631128D01*
X79409696Y-121631128D02*
X79409696Y-121916842D01*
X79409696Y-121916842D02*
X79362077Y-122012080D01*
X79362077Y-122012080D02*
X79314458Y-122059700D01*
X79314458Y-122059700D02*
X79219220Y-122107319D01*
X79219220Y-122107319D02*
X79076363Y-122107319D01*
X79838268Y-122107319D02*
X79838268Y-121107319D01*
X79838268Y-121488271D02*
X79933506Y-121440652D01*
X79933506Y-121440652D02*
X80123982Y-121440652D01*
X80123982Y-121440652D02*
X80219220Y-121488271D01*
X80219220Y-121488271D02*
X80266839Y-121535890D01*
X80266839Y-121535890D02*
X80314458Y-121631128D01*
X80314458Y-121631128D02*
X80314458Y-121916842D01*
X80314458Y-121916842D02*
X80266839Y-122012080D01*
X80266839Y-122012080D02*
X80219220Y-122059700D01*
X80219220Y-122059700D02*
X80123982Y-122107319D01*
X80123982Y-122107319D02*
X79933506Y-122107319D01*
X79933506Y-122107319D02*
X79838268Y-122059700D01*
X81171601Y-122107319D02*
X81171601Y-121583509D01*
X81171601Y-121583509D02*
X81123982Y-121488271D01*
X81123982Y-121488271D02*
X81028744Y-121440652D01*
X81028744Y-121440652D02*
X80838268Y-121440652D01*
X80838268Y-121440652D02*
X80743030Y-121488271D01*
X81171601Y-122059700D02*
X81076363Y-122107319D01*
X81076363Y-122107319D02*
X80838268Y-122107319D01*
X80838268Y-122107319D02*
X80743030Y-122059700D01*
X80743030Y-122059700D02*
X80695411Y-121964461D01*
X80695411Y-121964461D02*
X80695411Y-121869223D01*
X80695411Y-121869223D02*
X80743030Y-121773985D01*
X80743030Y-121773985D02*
X80838268Y-121726366D01*
X80838268Y-121726366D02*
X81076363Y-121726366D01*
X81076363Y-121726366D02*
X81171601Y-121678747D01*
X81647792Y-122107319D02*
X81647792Y-121107319D01*
X81647792Y-121488271D02*
X81743030Y-121440652D01*
X81743030Y-121440652D02*
X81933506Y-121440652D01*
X81933506Y-121440652D02*
X82028744Y-121488271D01*
X82028744Y-121488271D02*
X82076363Y-121535890D01*
X82076363Y-121535890D02*
X82123982Y-121631128D01*
X82123982Y-121631128D02*
X82123982Y-121916842D01*
X82123982Y-121916842D02*
X82076363Y-122012080D01*
X82076363Y-122012080D02*
X82028744Y-122059700D01*
X82028744Y-122059700D02*
X81933506Y-122107319D01*
X81933506Y-122107319D02*
X81743030Y-122107319D01*
X81743030Y-122107319D02*
X81647792Y-122059700D01*
X82695411Y-122107319D02*
X82600173Y-122059700D01*
X82600173Y-122059700D02*
X82552554Y-122012080D01*
X82552554Y-122012080D02*
X82504935Y-121916842D01*
X82504935Y-121916842D02*
X82504935Y-121631128D01*
X82504935Y-121631128D02*
X82552554Y-121535890D01*
X82552554Y-121535890D02*
X82600173Y-121488271D01*
X82600173Y-121488271D02*
X82695411Y-121440652D01*
X82695411Y-121440652D02*
X82838268Y-121440652D01*
X82838268Y-121440652D02*
X82933506Y-121488271D01*
X82933506Y-121488271D02*
X82981125Y-121535890D01*
X82981125Y-121535890D02*
X83028744Y-121631128D01*
X83028744Y-121631128D02*
X83028744Y-121916842D01*
X83028744Y-121916842D02*
X82981125Y-122012080D01*
X82981125Y-122012080D02*
X82933506Y-122059700D01*
X82933506Y-122059700D02*
X82838268Y-122107319D01*
X82838268Y-122107319D02*
X82695411Y-122107319D01*
D11*
%TO.C,SW4*%
X99762500Y-108400000D02*
X99762500Y-110800000D01*
X95662500Y-108400000D02*
X99762500Y-108400000D01*
X91662500Y-108400000D02*
X87562500Y-108400000D01*
X87562500Y-108400000D02*
X87562500Y-120200000D01*
X99762500Y-113000000D02*
X99762500Y-115600000D01*
X88162500Y-114000000D02*
X88162500Y-114600000D01*
X87862500Y-114300000D02*
X88162500Y-114000000D01*
X88162500Y-114600000D02*
X87862500Y-114300000D01*
X99762500Y-117800000D02*
X99762500Y-120200000D01*
X99762500Y-120200000D02*
X95662500Y-120200000D01*
X91662500Y-120200000D02*
X87562500Y-120200000D01*
X95662500Y-114300000D02*
G75*
G02*
X91662500Y-114300000I-2000000J0D01*
G01*
X91662500Y-114300000D02*
G75*
G02*
X95662500Y-114300000I2000000J0D01*
G01*
D12*
%TO.C,G\u002A\u002A\u002A*%
G36*
X61382256Y-113344590D02*
G01*
X61382256Y-113887767D01*
X61149466Y-113887767D01*
X60916675Y-113887767D01*
X60916675Y-116652410D01*
X60916675Y-119417053D01*
X61136533Y-119432960D01*
X61356390Y-119448867D01*
X61371133Y-119979112D01*
X61385875Y-120509356D01*
X60064921Y-120509356D01*
X58743967Y-120509356D01*
X58743967Y-119966179D01*
X58743967Y-119423002D01*
X58950891Y-119423002D01*
X59157816Y-119423002D01*
X59157816Y-116655385D01*
X59157816Y-113887767D01*
X58950891Y-113887767D01*
X58743967Y-113887767D01*
X58743967Y-113344590D01*
X58743967Y-112801413D01*
X60063111Y-112801413D01*
X61382256Y-112801413D01*
X61382256Y-113344590D01*
G37*
G36*
X77625840Y-113887767D02*
G01*
X77625840Y-114974122D01*
X77030932Y-114974122D01*
X76436024Y-114974122D01*
X76436024Y-114430945D01*
X76436024Y-113887767D01*
X76254965Y-113887767D01*
X76073905Y-113887767D01*
X76073905Y-116655385D01*
X76073905Y-119423002D01*
X76280830Y-119423002D01*
X76487755Y-119423002D01*
X76487755Y-119966179D01*
X76487755Y-120509356D01*
X75194476Y-120509356D01*
X73901197Y-120509356D01*
X73901197Y-119966179D01*
X73901197Y-119423002D01*
X74108121Y-119423002D01*
X74315046Y-119423002D01*
X74315046Y-116655385D01*
X74315046Y-113887767D01*
X74133987Y-113887767D01*
X73952928Y-113887767D01*
X73952928Y-114430945D01*
X73952928Y-114974122D01*
X73358020Y-114974122D01*
X72763111Y-114974122D01*
X72763111Y-113887767D01*
X72763111Y-112801413D01*
X75194476Y-112801413D01*
X77625840Y-112801413D01*
X77625840Y-113887767D01*
G37*
G36*
X58019730Y-113887767D02*
G01*
X58019730Y-114974122D01*
X57373091Y-114974122D01*
X56726451Y-114974122D01*
X56726451Y-114430945D01*
X56726451Y-113887767D01*
X56235005Y-113887767D01*
X55743559Y-113887767D01*
X55743559Y-114974122D01*
X55743559Y-116060476D01*
X56467795Y-116060476D01*
X57192032Y-116060476D01*
X57192032Y-116603653D01*
X57192032Y-117146831D01*
X56467795Y-117146831D01*
X55743559Y-117146831D01*
X55743559Y-118284916D01*
X55743559Y-119423002D01*
X56235005Y-119423002D01*
X56726451Y-119423002D01*
X56726451Y-118879825D01*
X56726451Y-118336647D01*
X57373091Y-118336647D01*
X58019730Y-118336647D01*
X58019730Y-119423002D01*
X58019730Y-120509356D01*
X55821156Y-120509356D01*
X53622582Y-120509356D01*
X53622582Y-119966179D01*
X53622582Y-119423002D01*
X53829506Y-119423002D01*
X54036431Y-119423002D01*
X54036431Y-116655385D01*
X54036431Y-113887767D01*
X53829506Y-113887767D01*
X53622582Y-113887767D01*
X53622582Y-113344590D01*
X53622582Y-112801413D01*
X55821156Y-112801413D01*
X58019730Y-112801413D01*
X58019730Y-113887767D01*
G37*
G36*
X69452317Y-113344590D02*
G01*
X69452317Y-113887767D01*
X69271258Y-113887767D01*
X69090199Y-113887767D01*
X69090199Y-114896525D01*
X69090199Y-115905283D01*
X69607510Y-115905283D01*
X70124822Y-115905283D01*
X70124822Y-114896525D01*
X70124822Y-113887767D01*
X69943763Y-113887767D01*
X69762704Y-113887767D01*
X69762704Y-113344590D01*
X69762704Y-112801413D01*
X71004252Y-112801413D01*
X72245800Y-112801413D01*
X72245800Y-113344590D01*
X72245800Y-113887767D01*
X72038875Y-113887767D01*
X71831950Y-113887767D01*
X71831950Y-116655385D01*
X71831950Y-119423002D01*
X72038875Y-119423002D01*
X72245800Y-119423002D01*
X72245800Y-119966179D01*
X72245800Y-120509356D01*
X71002442Y-120509356D01*
X69759084Y-120509356D01*
X69773827Y-119979112D01*
X69788569Y-119448867D01*
X69956696Y-119432657D01*
X70124822Y-119416446D01*
X70124822Y-118204042D01*
X70124822Y-116991637D01*
X69607510Y-116991637D01*
X69090199Y-116991637D01*
X69090199Y-118207319D01*
X69090199Y-119423002D01*
X69271258Y-119423002D01*
X69452317Y-119423002D01*
X69452317Y-119966179D01*
X69452317Y-120509356D01*
X68210769Y-120509356D01*
X66969221Y-120509356D01*
X66969221Y-119966179D01*
X66969221Y-119423002D01*
X67176146Y-119423002D01*
X67383070Y-119423002D01*
X67383070Y-116655385D01*
X67383070Y-113887767D01*
X67176146Y-113887767D01*
X66969221Y-113887767D01*
X66969221Y-113344590D01*
X66969221Y-112801413D01*
X68210769Y-112801413D01*
X69452317Y-112801413D01*
X69452317Y-113344590D01*
G37*
G36*
X80471054Y-113344590D02*
G01*
X80471054Y-113887767D01*
X80340355Y-113887767D01*
X80209656Y-113887767D01*
X80223960Y-116522308D01*
X80227258Y-117111905D01*
X80230465Y-117606885D01*
X80233973Y-118016089D01*
X80238176Y-118348362D01*
X80243464Y-118612547D01*
X80250231Y-118817487D01*
X80258869Y-118972026D01*
X80269770Y-119085005D01*
X80283326Y-119165270D01*
X80299929Y-119221662D01*
X80319973Y-119263026D01*
X80343848Y-119298204D01*
X80347309Y-119302858D01*
X80441268Y-119400662D01*
X80555963Y-119442195D01*
X80677979Y-119448867D01*
X80836729Y-119435087D01*
X80940946Y-119379956D01*
X81008648Y-119302867D01*
X81033060Y-119267839D01*
X81053590Y-119227780D01*
X81070630Y-119173844D01*
X81084576Y-119097191D01*
X81095821Y-118988975D01*
X81104758Y-118840355D01*
X81111781Y-118642486D01*
X81117284Y-118386526D01*
X81121660Y-118063631D01*
X81125304Y-117664958D01*
X81128608Y-117181664D01*
X81131966Y-116604906D01*
X81132429Y-116522317D01*
X81147165Y-113887767D01*
X80990168Y-113887767D01*
X80833172Y-113887767D01*
X80833172Y-113344590D01*
X80833172Y-112801413D01*
X81919527Y-112801413D01*
X83005881Y-112801413D01*
X83005881Y-113344590D01*
X83005881Y-113887767D01*
X82798956Y-113887767D01*
X82592032Y-113887767D01*
X82590434Y-116202737D01*
X82588847Y-116873362D01*
X82584422Y-117449551D01*
X82576169Y-117940316D01*
X82563101Y-118354667D01*
X82544227Y-118701615D01*
X82518561Y-118990170D01*
X82485112Y-119229344D01*
X82442893Y-119428146D01*
X82390914Y-119595587D01*
X82328187Y-119740678D01*
X82253723Y-119872430D01*
X82175077Y-119988121D01*
X81914632Y-120262070D01*
X81582985Y-120473303D01*
X81194787Y-120616843D01*
X80764690Y-120687716D01*
X80307343Y-120680946D01*
X80181469Y-120665217D01*
X79720944Y-120556730D01*
X79336849Y-120378717D01*
X79027807Y-120129849D01*
X78792446Y-119808800D01*
X78629392Y-119414241D01*
X78558095Y-119097034D01*
X78546884Y-118975621D01*
X78536596Y-118761619D01*
X78527435Y-118465897D01*
X78519609Y-118099325D01*
X78513323Y-117672773D01*
X78508784Y-117197111D01*
X78506197Y-116683208D01*
X78505661Y-116332065D01*
X78505270Y-113887767D01*
X78298345Y-113887767D01*
X78091421Y-113887767D01*
X78091421Y-113344590D01*
X78091421Y-112801413D01*
X79281237Y-112801413D01*
X80471054Y-112801413D01*
X80471054Y-113344590D01*
G37*
G36*
X63999292Y-112687876D02*
G01*
X64249153Y-112739358D01*
X64469290Y-112839632D01*
X64695116Y-113000911D01*
X64737874Y-113036329D01*
X64899975Y-113172728D01*
X64899975Y-112987071D01*
X64899975Y-112801413D01*
X65494883Y-112801413D01*
X66089791Y-112801413D01*
X66089791Y-113836036D01*
X66089791Y-114870660D01*
X65417286Y-114870660D01*
X64744781Y-114870660D01*
X64744701Y-114599071D01*
X64713770Y-114322205D01*
X64627434Y-114105331D01*
X64495112Y-113959010D01*
X64326220Y-113893799D01*
X64137060Y-113917783D01*
X64070889Y-113942999D01*
X64015334Y-113973917D01*
X63969467Y-114019186D01*
X63932361Y-114087454D01*
X63903086Y-114187369D01*
X63880716Y-114327579D01*
X63864321Y-114516732D01*
X63852973Y-114763476D01*
X63845745Y-115076458D01*
X63841709Y-115464328D01*
X63839935Y-115935733D01*
X63839496Y-116499320D01*
X63839486Y-116690400D01*
X63839594Y-117252811D01*
X63840181Y-117721042D01*
X63841641Y-118104377D01*
X63844367Y-118412098D01*
X63848754Y-118653488D01*
X63855195Y-118837829D01*
X63864083Y-118974405D01*
X63875814Y-119072499D01*
X63890780Y-119141392D01*
X63909375Y-119190369D01*
X63931994Y-119228711D01*
X63948120Y-119251092D01*
X64098905Y-119377467D01*
X64282298Y-119421973D01*
X64466712Y-119382597D01*
X64591227Y-119292060D01*
X64649535Y-119221176D01*
X64688129Y-119141287D01*
X64712126Y-119028637D01*
X64726641Y-118859469D01*
X64736557Y-118617132D01*
X64754199Y-118077992D01*
X64516700Y-118077992D01*
X64279201Y-118077992D01*
X64279201Y-117508949D01*
X64279201Y-116939906D01*
X65262093Y-116939906D01*
X66244985Y-116939906D01*
X66244985Y-118724631D01*
X66244985Y-120509356D01*
X65494883Y-120509356D01*
X64744781Y-120509356D01*
X64744781Y-120349816D01*
X64744781Y-120190275D01*
X64542529Y-120350462D01*
X64215385Y-120546488D01*
X63854544Y-120647035D01*
X63469268Y-120650744D01*
X63089384Y-120563448D01*
X62818426Y-120431985D01*
X62598213Y-120237215D01*
X62425010Y-119971945D01*
X62295081Y-119628983D01*
X62204692Y-119201133D01*
X62156246Y-118766480D01*
X62141536Y-118511755D01*
X62129704Y-118176583D01*
X62120745Y-117778819D01*
X62114658Y-117336320D01*
X62111439Y-116866941D01*
X62111086Y-116388537D01*
X62113596Y-115918964D01*
X62118967Y-115476077D01*
X62127195Y-115077731D01*
X62138278Y-114741782D01*
X62152213Y-114486087D01*
X62156912Y-114428114D01*
X62234122Y-113918081D01*
X62365729Y-113494066D01*
X62551343Y-113156852D01*
X62790571Y-112907221D01*
X62974668Y-112792282D01*
X63120556Y-112730323D01*
X63270359Y-112693660D01*
X63458464Y-112676511D01*
X63684292Y-112672973D01*
X63999292Y-112687876D01*
G37*
G36*
X300047500Y-120615000D02*
G01*
X300189983Y-120757500D01*
X299996233Y-120757500D01*
X299802483Y-120757500D01*
X299660000Y-120615000D01*
X299517516Y-120472500D01*
X299711266Y-120472500D01*
X299905016Y-120472500D01*
X300047500Y-120615000D01*
G37*
G36*
X299555629Y-120755629D02*
G01*
X299586986Y-120786998D01*
X299617369Y-120817416D01*
X299646592Y-120846694D01*
X299674467Y-120874644D01*
X299700807Y-120901078D01*
X299725424Y-120925806D01*
X299748133Y-120948640D01*
X299768744Y-120969393D01*
X299787071Y-120987874D01*
X299802927Y-121003897D01*
X299816125Y-121017273D01*
X299826477Y-121027812D01*
X299833797Y-121035327D01*
X299837896Y-121039630D01*
X299838750Y-121040629D01*
X299836313Y-121040926D01*
X299829259Y-121041209D01*
X299817969Y-121041473D01*
X299802825Y-121041715D01*
X299784209Y-121041932D01*
X299762503Y-121042119D01*
X299738090Y-121042273D01*
X299711351Y-121042390D01*
X299682668Y-121042467D01*
X299652424Y-121042499D01*
X299646870Y-121042500D01*
X299454991Y-121042500D01*
X299170000Y-120757500D01*
X298885008Y-120472500D01*
X299078758Y-120472500D01*
X299272508Y-120472500D01*
X299555629Y-120755629D01*
G37*
G36*
X299876149Y-119431149D02*
G01*
X299898326Y-119453355D01*
X299919429Y-119474535D01*
X299939197Y-119494427D01*
X299957370Y-119512764D01*
X299973688Y-119529284D01*
X299987890Y-119543722D01*
X299999716Y-119555813D01*
X300008906Y-119565292D01*
X300015198Y-119571896D01*
X300018333Y-119575360D01*
X300018641Y-119575828D01*
X300016322Y-119577631D01*
X300010777Y-119581840D01*
X300002783Y-119587870D01*
X299993117Y-119595132D01*
X299990871Y-119596816D01*
X299928252Y-119640677D01*
X299862374Y-119680879D01*
X299793559Y-119717255D01*
X299722130Y-119749637D01*
X299648408Y-119777854D01*
X299638313Y-119781330D01*
X299618972Y-119787672D01*
X299597121Y-119794453D01*
X299574082Y-119801291D01*
X299551180Y-119807805D01*
X299529740Y-119813616D01*
X299511084Y-119818340D01*
X299503750Y-119820056D01*
X299495820Y-119821969D01*
X299489912Y-119823622D01*
X299487869Y-119824384D01*
X299489402Y-119825376D01*
X299495025Y-119827309D01*
X299503968Y-119829951D01*
X299515463Y-119833069D01*
X299522869Y-119834973D01*
X299601098Y-119856886D01*
X299675988Y-119882379D01*
X299747837Y-119911603D01*
X299816945Y-119944708D01*
X299883612Y-119981846D01*
X299948135Y-120023165D01*
X300010814Y-120068818D01*
X300050000Y-120100296D01*
X300060334Y-120109243D01*
X300072538Y-120120367D01*
X300086189Y-120133235D01*
X300100865Y-120147413D01*
X300116146Y-120162469D01*
X300131608Y-120177968D01*
X300146831Y-120193479D01*
X300161393Y-120208566D01*
X300174871Y-120222797D01*
X300186844Y-120235740D01*
X300196890Y-120246959D01*
X300204587Y-120256023D01*
X300209515Y-120262497D01*
X300211250Y-120265949D01*
X300208782Y-120266076D01*
X300201511Y-120266201D01*
X300189631Y-120266323D01*
X300173340Y-120266441D01*
X300152832Y-120266555D01*
X300128304Y-120266665D01*
X300099951Y-120266770D01*
X300067971Y-120266869D01*
X300032558Y-120266963D01*
X299993908Y-120267051D01*
X299952218Y-120267132D01*
X299907684Y-120267206D01*
X299860501Y-120267273D01*
X299810865Y-120267332D01*
X299758973Y-120267383D01*
X299705020Y-120267425D01*
X299649202Y-120267458D01*
X299591716Y-120267482D01*
X299532756Y-120267496D01*
X299481870Y-120267500D01*
X298752490Y-120267499D01*
X298507500Y-120512500D01*
X298262509Y-120757500D01*
X298507500Y-121002500D01*
X298752490Y-121247500D01*
X299732492Y-121247500D01*
X300712495Y-121247500D01*
X300222500Y-121737500D01*
X299732504Y-122227500D01*
X299118750Y-122227500D01*
X298504995Y-122227500D01*
X298015622Y-121738122D01*
X297526250Y-121248745D01*
X297526249Y-120757495D01*
X297526249Y-120266245D01*
X298015627Y-119776872D01*
X298505004Y-119287500D01*
X299118760Y-119287500D01*
X299732516Y-119287500D01*
X299876149Y-119431149D01*
G37*
G36*
X300604340Y-119031636D02*
G01*
X300605863Y-119035002D01*
X300608019Y-119042008D01*
X300611017Y-119053170D01*
X300612477Y-119058831D01*
X300632986Y-119128935D01*
X300658077Y-119197109D01*
X300687667Y-119263189D01*
X300721673Y-119327014D01*
X300760015Y-119388421D01*
X300802607Y-119447247D01*
X300821752Y-119471155D01*
X300845185Y-119498187D01*
X300871893Y-119526594D01*
X300900781Y-119555317D01*
X300930756Y-119583298D01*
X300960725Y-119609478D01*
X300985000Y-119629228D01*
X301037417Y-119667400D01*
X301093336Y-119702710D01*
X301151977Y-119734774D01*
X301212562Y-119763210D01*
X301274308Y-119787635D01*
X301336438Y-119807667D01*
X301363843Y-119815028D01*
X301375927Y-119818092D01*
X301386445Y-119820799D01*
X301394342Y-119822875D01*
X301398558Y-119824045D01*
X301398750Y-119824106D01*
X301397781Y-119825102D01*
X301392677Y-119827052D01*
X301384156Y-119829724D01*
X301372939Y-119832887D01*
X301365000Y-119834979D01*
X301296242Y-119855190D01*
X301229538Y-119879870D01*
X301165064Y-119908857D01*
X301102995Y-119941984D01*
X301043507Y-119979089D01*
X300986778Y-120020006D01*
X300932983Y-120064572D01*
X300882298Y-120112621D01*
X300834900Y-120163990D01*
X300790965Y-120218514D01*
X300750669Y-120276029D01*
X300714188Y-120336371D01*
X300681698Y-120399374D01*
X300653377Y-120464876D01*
X300634832Y-120515974D01*
X300629399Y-120532794D01*
X300623755Y-120551197D01*
X300618458Y-120569315D01*
X300614060Y-120585278D01*
X300612774Y-120590258D01*
X300609412Y-120603525D01*
X300607022Y-120612470D01*
X300605355Y-120617622D01*
X300604165Y-120619508D01*
X300603202Y-120618657D01*
X300602218Y-120615596D01*
X300601732Y-120613750D01*
X300595850Y-120591305D01*
X300590906Y-120572801D01*
X300586637Y-120557324D01*
X300582782Y-120543963D01*
X300579079Y-120531803D01*
X300575264Y-120519932D01*
X300571947Y-120510000D01*
X300546809Y-120443442D01*
X300517237Y-120379011D01*
X300483411Y-120316911D01*
X300445514Y-120257346D01*
X300403727Y-120200522D01*
X300358231Y-120146642D01*
X300309208Y-120095911D01*
X300256839Y-120048532D01*
X300201305Y-120004712D01*
X300142788Y-119964654D01*
X300081469Y-119928562D01*
X300035000Y-119904818D01*
X299991396Y-119885203D01*
X299945959Y-119867169D01*
X299900215Y-119851266D01*
X299855690Y-119838040D01*
X299833118Y-119832306D01*
X299823127Y-119829743D01*
X299815504Y-119827422D01*
X299811181Y-119825650D01*
X299810618Y-119824898D01*
X299813621Y-119823717D01*
X299820522Y-119821620D01*
X299830363Y-119818881D01*
X299842184Y-119815773D01*
X299845000Y-119815056D01*
X299911801Y-119795587D01*
X299977208Y-119771437D01*
X300040944Y-119742798D01*
X300102733Y-119709862D01*
X300162297Y-119672822D01*
X300219361Y-119631870D01*
X300273647Y-119587199D01*
X300324878Y-119539000D01*
X300372779Y-119487467D01*
X300417072Y-119432790D01*
X300439514Y-119401851D01*
X300478302Y-119341970D01*
X300512765Y-119279823D01*
X300542973Y-119215251D01*
X300568996Y-119148095D01*
X300590905Y-119078197D01*
X300602367Y-119033776D01*
X300603244Y-119031399D01*
X300604340Y-119031636D01*
G37*
D11*
%TO.C,SW5*%
X220912500Y-120200000D02*
X220912500Y-117800000D01*
X225012500Y-120200000D02*
X220912500Y-120200000D01*
X229012500Y-120200000D02*
X233112500Y-120200000D01*
X233112500Y-120200000D02*
X233112500Y-108400000D01*
X220912500Y-115600000D02*
X220912500Y-113000000D01*
X232512500Y-114600000D02*
X232512500Y-114000000D01*
X232812500Y-114300000D02*
X232512500Y-114600000D01*
X232512500Y-114000000D02*
X232812500Y-114300000D01*
X220912500Y-110800000D02*
X220912500Y-108400000D01*
X220912500Y-108400000D02*
X225012500Y-108400000D01*
X229012500Y-108400000D02*
X233112500Y-108400000D01*
X229012500Y-114300000D02*
G75*
G02*
X225012500Y-114300000I-2000000J0D01*
G01*
X225012500Y-114300000D02*
G75*
G02*
X229012500Y-114300000I2000000J0D01*
G01*
%TO.C,SW2*%
X287787500Y-65337500D02*
X290187500Y-65337500D01*
X287787500Y-69437500D02*
X287787500Y-65337500D01*
X287787500Y-73437500D02*
X287787500Y-77537500D01*
X287787500Y-77537500D02*
X299587500Y-77537500D01*
X292387500Y-65337500D02*
X294987500Y-65337500D01*
X293387500Y-76937500D02*
X293987500Y-76937500D01*
X293687500Y-77237500D02*
X293387500Y-76937500D01*
X293987500Y-76937500D02*
X293687500Y-77237500D01*
X297187500Y-65337500D02*
X299587500Y-65337500D01*
X299587500Y-65337500D02*
X299587500Y-69437500D01*
X299587500Y-73437500D02*
X299587500Y-77537500D01*
X295687500Y-71437500D02*
G75*
G02*
X291687500Y-71437500I-2000000J0D01*
G01*
X291687500Y-71437500D02*
G75*
G02*
X295687500Y-71437500I2000000J0D01*
G01*
%TO.C,SW3*%
X287787500Y-84387500D02*
X290187500Y-84387500D01*
X287787500Y-88487500D02*
X287787500Y-84387500D01*
X287787500Y-92487500D02*
X287787500Y-96587500D01*
X287787500Y-96587500D02*
X299587500Y-96587500D01*
X292387500Y-84387500D02*
X294987500Y-84387500D01*
X293387500Y-95987500D02*
X293987500Y-95987500D01*
X293687500Y-96287500D02*
X293387500Y-95987500D01*
X293987500Y-95987500D02*
X293687500Y-96287500D01*
X297187500Y-84387500D02*
X299587500Y-84387500D01*
X299587500Y-84387500D02*
X299587500Y-88487500D01*
X299587500Y-92487500D02*
X299587500Y-96587500D01*
X295687500Y-90487500D02*
G75*
G02*
X291687500Y-90487500I-2000000J0D01*
G01*
X291687500Y-90487500D02*
G75*
G02*
X295687500Y-90487500I2000000J0D01*
G01*
%TO.C,SW1*%
X287787500Y-46287500D02*
X290187500Y-46287500D01*
X287787500Y-50387500D02*
X287787500Y-46287500D01*
X287787500Y-54387500D02*
X287787500Y-58487500D01*
X287787500Y-58487500D02*
X299587500Y-58487500D01*
X292387500Y-46287500D02*
X294987500Y-46287500D01*
X293387500Y-57887500D02*
X293987500Y-57887500D01*
X293687500Y-58187500D02*
X293387500Y-57887500D01*
X293987500Y-57887500D02*
X293687500Y-58187500D01*
X297187500Y-46287500D02*
X299587500Y-46287500D01*
X299587500Y-46287500D02*
X299587500Y-50387500D01*
X299587500Y-54387500D02*
X299587500Y-58487500D01*
X295687500Y-52387500D02*
G75*
G02*
X291687500Y-52387500I-2000000J0D01*
G01*
X291687500Y-52387500D02*
G75*
G02*
X295687500Y-52387500I2000000J0D01*
G01*
%TD*%
M02*
