%TF.GenerationSoftware,KiCad,Pcbnew,8.0.5*%
%TF.CreationDate,2024-10-14T19:29:39+02:00*%
%TF.ProjectId,Eightu,45696768-7475-42e6-9b69-6361645f7063,rev?*%
%TF.SameCoordinates,Original*%
%TF.FileFunction,Soldermask,Top*%
%TF.FilePolarity,Negative*%
%FSLAX46Y46*%
G04 Gerber Fmt 4.6, Leading zero omitted, Abs format (unit mm)*
G04 Created by KiCad (PCBNEW 8.0.5) date 2024-10-14 19:29:39*
%MOMM*%
%LPD*%
G01*
G04 APERTURE LIST*
%ADD10C,1.750000*%
%ADD11C,3.987800*%
G04 APERTURE END LIST*
D10*
%TO.C,MX25*%
X257651250Y-71437500D03*
D11*
X262731250Y-71437500D03*
D10*
X267811250Y-71437500D03*
%TD*%
%TO.C,MX44*%
X155257500Y-114300000D03*
D11*
X160337500Y-114300000D03*
D10*
X165417500Y-114300000D03*
%TD*%
%TO.C,MX57*%
X183832500Y-114300000D03*
D11*
X188912500Y-114300000D03*
D10*
X193992500Y-114300000D03*
%TD*%
%TO.C,MX15*%
X57626250Y-71437500D03*
D11*
X62706250Y-71437500D03*
D10*
X67786250Y-71437500D03*
%TD*%
%TO.C,MX46*%
X217170000Y-114300000D03*
D11*
X222250000Y-114300000D03*
D10*
X227330000Y-114300000D03*
%TD*%
%TO.C,MX19*%
X136207500Y-71437500D03*
D11*
X141287500Y-71437500D03*
D10*
X146367500Y-71437500D03*
%TD*%
%TO.C,MX17*%
X98107500Y-71437500D03*
D11*
X103187500Y-71437500D03*
D10*
X108267500Y-71437500D03*
%TD*%
%TO.C,MX56*%
X202882500Y-114300000D03*
D11*
X207962500Y-114300000D03*
D10*
X213042500Y-114300000D03*
%TD*%
%TO.C,MX51*%
X221932500Y-114300000D03*
D11*
X227012500Y-114300000D03*
D10*
X232092500Y-114300000D03*
%TD*%
%TO.C,MX49*%
X283845000Y-114300000D03*
D11*
X288925000Y-114300000D03*
D10*
X294005000Y-114300000D03*
%TD*%
%TO.C,MX35*%
X202882500Y-90487500D03*
D11*
X207962500Y-90487500D03*
D10*
X213042500Y-90487500D03*
%TD*%
%TO.C,MX22*%
X193357500Y-71437500D03*
D11*
X198437500Y-71437500D03*
D10*
X203517500Y-71437500D03*
%TD*%
%TO.C,MX50*%
X88582500Y-114300000D03*
D11*
X93662500Y-114300000D03*
D10*
X98742500Y-114300000D03*
%TD*%
%TO.C,MX41*%
X60007500Y-109537500D03*
D11*
X65087500Y-109537500D03*
D10*
X70167500Y-109537500D03*
%TD*%
%TO.C,MX54*%
X133826250Y-114300000D03*
D11*
X138906250Y-114300000D03*
D10*
X143986250Y-114300000D03*
%TD*%
%TO.C,MX48*%
X264795000Y-114300000D03*
D11*
X269875000Y-114300000D03*
D10*
X274955000Y-114300000D03*
%TD*%
%TO.C,MX34*%
X183832500Y-90487500D03*
D11*
X188912500Y-90487500D03*
D10*
X193992500Y-90487500D03*
%TD*%
%TO.C,MX45*%
X183832500Y-114300000D03*
D11*
X188912500Y-114300000D03*
D10*
X193992500Y-114300000D03*
%TD*%
%TO.C,MX5*%
X131445000Y-52387500D03*
D11*
X136525000Y-52387500D03*
D10*
X141605000Y-52387500D03*
%TD*%
%TO.C,MX21*%
X174307500Y-71437500D03*
D11*
X179387500Y-71437500D03*
D10*
X184467500Y-71437500D03*
%TD*%
D11*
%TO.C,S2*%
X200818750Y-106045000D03*
X177006250Y-106045000D03*
%TD*%
D10*
%TO.C,MX26*%
X288607500Y-71437500D03*
D11*
X293687500Y-71437500D03*
D10*
X298767500Y-71437500D03*
%TD*%
%TO.C,MX42*%
X93345000Y-114300000D03*
D11*
X98425000Y-114300000D03*
D10*
X103505000Y-114300000D03*
%TD*%
D11*
%TO.C,S10*%
X198437500Y-106045000D03*
X174625000Y-106045000D03*
%TD*%
%TO.C,S3*%
X227012500Y-106045000D03*
X112712500Y-106045000D03*
%TD*%
D10*
%TO.C,MX12*%
X264795000Y-52387500D03*
D11*
X269875000Y-52387500D03*
D10*
X274955000Y-52387500D03*
%TD*%
%TO.C,MX36*%
X221932500Y-90487500D03*
D11*
X227012500Y-90487500D03*
D10*
X232092500Y-90487500D03*
%TD*%
%TO.C,MX8*%
X188595000Y-52387500D03*
D11*
X193675000Y-52387500D03*
D10*
X198755000Y-52387500D03*
%TD*%
%TO.C,MX52*%
X107632500Y-114300000D03*
D11*
X112712500Y-114300000D03*
D10*
X117792500Y-114300000D03*
%TD*%
%TO.C,MX58*%
X181451250Y-114300000D03*
D11*
X186531250Y-114300000D03*
D10*
X191611250Y-114300000D03*
%TD*%
D11*
%TO.C,S7*%
X150812500Y-106045000D03*
X112712500Y-106045000D03*
%TD*%
%TO.C,S1*%
X143668750Y-106045000D03*
X119856250Y-106045000D03*
%TD*%
D10*
%TO.C,MX31*%
X126682500Y-90487500D03*
D11*
X131762500Y-90487500D03*
D10*
X136842500Y-90487500D03*
%TD*%
%TO.C,MX38*%
X264795000Y-95250000D03*
D11*
X269875000Y-95250000D03*
D10*
X274955000Y-95250000D03*
%TD*%
%TO.C,MX53*%
X126682500Y-114300000D03*
D11*
X131762500Y-114300000D03*
D10*
X136842500Y-114300000D03*
%TD*%
%TO.C,MX18*%
X117157500Y-71437500D03*
D11*
X122237500Y-71437500D03*
D10*
X127317500Y-71437500D03*
%TD*%
%TO.C,MX32*%
X145732500Y-90487500D03*
D11*
X150812500Y-90487500D03*
D10*
X155892500Y-90487500D03*
%TD*%
%TO.C,MX29*%
X88582500Y-90487500D03*
D11*
X93662500Y-90487500D03*
D10*
X98742500Y-90487500D03*
%TD*%
%TO.C,MX6*%
X150495000Y-52387500D03*
D11*
X155575000Y-52387500D03*
D10*
X160655000Y-52387500D03*
%TD*%
%TO.C,MX30*%
X107632500Y-90487500D03*
D11*
X112712500Y-90487500D03*
D10*
X117792500Y-90487500D03*
%TD*%
%TO.C,MX1*%
X55245000Y-52387500D03*
D11*
X60325000Y-52387500D03*
D10*
X65405000Y-52387500D03*
%TD*%
%TO.C,MX43*%
X126682500Y-114300000D03*
D11*
X131762500Y-114300000D03*
D10*
X136842500Y-114300000D03*
%TD*%
%TO.C,MX7*%
X169545000Y-52387500D03*
D11*
X174625000Y-52387500D03*
D10*
X179705000Y-52387500D03*
%TD*%
%TO.C,MX39*%
X288607500Y-90487500D03*
D11*
X293687500Y-90487500D03*
D10*
X298767500Y-90487500D03*
%TD*%
%TO.C,MX28*%
X62388750Y-90487500D03*
D11*
X67468750Y-90487500D03*
D10*
X72548750Y-90487500D03*
%TD*%
D11*
%TO.C,S5*%
X188912500Y-106045000D03*
X131762500Y-106045000D03*
%TD*%
%TO.C,S4*%
X207962500Y-106045000D03*
X112712500Y-106045000D03*
%TD*%
D10*
%TO.C,MX37*%
X240982500Y-90487500D03*
D11*
X246062500Y-90487500D03*
D10*
X251142500Y-90487500D03*
%TD*%
%TO.C,MX47*%
X245745000Y-114300000D03*
D11*
X250825000Y-114300000D03*
D10*
X255905000Y-114300000D03*
%TD*%
%TO.C,MX20*%
X155257500Y-71437500D03*
D11*
X160337500Y-71437500D03*
D10*
X165417500Y-71437500D03*
%TD*%
%TO.C,MX16*%
X79057500Y-71437500D03*
D11*
X84137500Y-71437500D03*
D10*
X89217500Y-71437500D03*
%TD*%
%TO.C,MX11*%
X245745000Y-52387500D03*
D11*
X250825000Y-52387500D03*
D10*
X255905000Y-52387500D03*
%TD*%
%TO.C,MX3*%
X93345000Y-52387500D03*
D11*
X98425000Y-52387500D03*
D10*
X103505000Y-52387500D03*
%TD*%
D11*
%TO.C,S8*%
X207962500Y-106045000D03*
X169862500Y-106045000D03*
%TD*%
%TO.C,S9*%
X150812500Y-106045000D03*
X127000000Y-106045000D03*
%TD*%
D10*
%TO.C,MX33*%
X164782500Y-90487500D03*
D11*
X169862500Y-90487500D03*
D10*
X174942500Y-90487500D03*
%TD*%
%TO.C,MX23*%
X212407500Y-71437500D03*
D11*
X217487500Y-71437500D03*
D10*
X222567500Y-71437500D03*
%TD*%
D11*
%TO.C,S6*%
X227012500Y-106045000D03*
X93662500Y-106045000D03*
%TD*%
D10*
%TO.C,MX10*%
X226695000Y-52387500D03*
D11*
X231775000Y-52387500D03*
D10*
X236855000Y-52387500D03*
%TD*%
%TO.C,MX4*%
X112395000Y-52387500D03*
D11*
X117475000Y-52387500D03*
D10*
X122555000Y-52387500D03*
%TD*%
%TO.C,MX9*%
X207645000Y-52387500D03*
D11*
X212725000Y-52387500D03*
D10*
X217805000Y-52387500D03*
%TD*%
%TO.C,MX13*%
X288607500Y-52387500D03*
D11*
X293687500Y-52387500D03*
D10*
X298767500Y-52387500D03*
%TD*%
%TO.C,MX24*%
X231457500Y-71437500D03*
D11*
X236537500Y-71437500D03*
D10*
X241617500Y-71437500D03*
%TD*%
%TO.C,MX55*%
X164782500Y-114300000D03*
D11*
X169862500Y-114300000D03*
D10*
X174942500Y-114300000D03*
%TD*%
%TO.C,MX2*%
X74295000Y-52387500D03*
D11*
X79375000Y-52387500D03*
D10*
X84455000Y-52387500D03*
%TD*%
M02*
