%TF.GenerationSoftware,KiCad,Pcbnew,8.0.5*%
%TF.CreationDate,2024-10-14T19:29:39+02:00*%
%TF.ProjectId,Eightu,45696768-7475-42e6-9b69-6361645f7063,rev?*%
%TF.SameCoordinates,Original*%
%TF.FileFunction,Soldermask,Bot*%
%TF.FilePolarity,Negative*%
%FSLAX46Y46*%
G04 Gerber Fmt 4.6, Leading zero omitted, Abs format (unit mm)*
G04 Created by KiCad (PCBNEW 8.0.5) date 2024-10-14 19:29:39*
%MOMM*%
%LPD*%
G01*
G04 APERTURE LIST*
G04 Aperture macros list*
%AMRoundRect*
0 Rectangle with rounded corners*
0 $1 Rounding radius*
0 $2 $3 $4 $5 $6 $7 $8 $9 X,Y pos of 4 corners*
0 Add a 4 corners polygon primitive as box body*
4,1,4,$2,$3,$4,$5,$6,$7,$8,$9,$2,$3,0*
0 Add four circle primitives for the rounded corners*
1,1,$1+$1,$2,$3*
1,1,$1+$1,$4,$5*
1,1,$1+$1,$6,$7*
1,1,$1+$1,$8,$9*
0 Add four rect primitives between the rounded corners*
20,1,$1+$1,$2,$3,$4,$5,0*
20,1,$1+$1,$4,$5,$6,$7,0*
20,1,$1+$1,$6,$7,$8,$9,0*
20,1,$1+$1,$8,$9,$2,$3,0*%
G04 Aperture macros list end*
%ADD10C,1.750000*%
%ADD11C,3.987800*%
%ADD12C,2.300000*%
%ADD13C,4.000000*%
%ADD14C,2.000000*%
%ADD15RoundRect,0.500000X-0.500000X-0.500000X0.500000X-0.500000X0.500000X0.500000X-0.500000X0.500000X0*%
%ADD16RoundRect,0.550000X-1.150000X-0.550000X1.150000X-0.550000X1.150000X0.550000X-1.150000X0.550000X0*%
%ADD17RoundRect,0.500000X0.500000X0.500000X-0.500000X0.500000X-0.500000X-0.500000X0.500000X-0.500000X0*%
%ADD18RoundRect,0.550000X1.150000X0.550000X-1.150000X0.550000X-1.150000X-0.550000X1.150000X-0.550000X0*%
%ADD19RoundRect,0.500000X0.500000X-0.500000X0.500000X0.500000X-0.500000X0.500000X-0.500000X-0.500000X0*%
%ADD20RoundRect,0.550000X0.550000X-1.150000X0.550000X1.150000X-0.550000X1.150000X-0.550000X-1.150000X0*%
%ADD21RoundRect,0.250000X0.300000X-0.300000X0.300000X0.300000X-0.300000X0.300000X-0.300000X-0.300000X0*%
%ADD22RoundRect,0.075000X0.075000X-0.662500X0.075000X0.662500X-0.075000X0.662500X-0.075000X-0.662500X0*%
%ADD23RoundRect,0.075000X0.662500X-0.075000X0.662500X0.075000X-0.662500X0.075000X-0.662500X-0.075000X0*%
%ADD24RoundRect,0.140000X0.140000X0.170000X-0.140000X0.170000X-0.140000X-0.170000X0.140000X-0.170000X0*%
%ADD25RoundRect,0.140000X-0.170000X0.140000X-0.170000X-0.140000X0.170000X-0.140000X0.170000X0.140000X0*%
%ADD26RoundRect,0.150000X0.625000X-0.150000X0.625000X0.150000X-0.625000X0.150000X-0.625000X-0.150000X0*%
%ADD27RoundRect,0.250000X0.650000X-0.350000X0.650000X0.350000X-0.650000X0.350000X-0.650000X-0.350000X0*%
%ADD28RoundRect,0.150000X0.150000X-0.587500X0.150000X0.587500X-0.150000X0.587500X-0.150000X-0.587500X0*%
%ADD29RoundRect,0.225000X-0.225000X-0.250000X0.225000X-0.250000X0.225000X0.250000X-0.225000X0.250000X0*%
%ADD30RoundRect,0.275000X0.625000X0.275000X-0.625000X0.275000X-0.625000X-0.275000X0.625000X-0.275000X0*%
%ADD31RoundRect,0.140000X-0.140000X-0.170000X0.140000X-0.170000X0.140000X0.170000X-0.140000X0.170000X0*%
%ADD32RoundRect,0.150000X0.275000X-0.150000X0.275000X0.150000X-0.275000X0.150000X-0.275000X-0.150000X0*%
%ADD33RoundRect,0.175000X0.225000X-0.175000X0.225000X0.175000X-0.225000X0.175000X-0.225000X-0.175000X0*%
%ADD34RoundRect,0.135000X0.135000X0.185000X-0.135000X0.185000X-0.135000X-0.185000X0.135000X-0.185000X0*%
G04 APERTURE END LIST*
D10*
%TO.C,MX25*%
X257651250Y-71437500D03*
D11*
X262731250Y-71437500D03*
D10*
X267811250Y-71437500D03*
D12*
X258921250Y-68897500D03*
X265271250Y-66357500D03*
%TD*%
D10*
%TO.C,MX44*%
X155257500Y-114300000D03*
D11*
X160337500Y-114300000D03*
D10*
X165417500Y-114300000D03*
D12*
X156527500Y-111760000D03*
X162877500Y-109220000D03*
%TD*%
D10*
%TO.C,MX57*%
X183832500Y-114300000D03*
D11*
X188912500Y-114300000D03*
D10*
X193992500Y-114300000D03*
D12*
X185102500Y-111760000D03*
X191452500Y-109220000D03*
%TD*%
D10*
%TO.C,MX15*%
X57626250Y-71437500D03*
D11*
X62706250Y-71437500D03*
D10*
X67786250Y-71437500D03*
D12*
X58896250Y-68897500D03*
X65246250Y-66357500D03*
%TD*%
D10*
%TO.C,MX46*%
X217170000Y-114300000D03*
D11*
X222250000Y-114300000D03*
D10*
X227330000Y-114300000D03*
D12*
X218440000Y-111760000D03*
X224790000Y-109220000D03*
%TD*%
D10*
%TO.C,MX19*%
X136207500Y-71437500D03*
D11*
X141287500Y-71437500D03*
D10*
X146367500Y-71437500D03*
D12*
X137477500Y-68897500D03*
X143827500Y-66357500D03*
%TD*%
D10*
%TO.C,MX17*%
X98107500Y-71437500D03*
D11*
X103187500Y-71437500D03*
D10*
X108267500Y-71437500D03*
D12*
X99377500Y-68897500D03*
X105727500Y-66357500D03*
%TD*%
D10*
%TO.C,MX56*%
X202882500Y-114300000D03*
D11*
X207962500Y-114300000D03*
D10*
X213042500Y-114300000D03*
D12*
X204152500Y-111760000D03*
X210502500Y-109220000D03*
%TD*%
D10*
%TO.C,MX51*%
X221932500Y-114300000D03*
D11*
X227012500Y-114300000D03*
D10*
X232092500Y-114300000D03*
D12*
X223202500Y-111760000D03*
X229552500Y-109220000D03*
%TD*%
D10*
%TO.C,MX49*%
X283845000Y-114300000D03*
D11*
X288925000Y-114300000D03*
D10*
X294005000Y-114300000D03*
D12*
X285115000Y-111760000D03*
X291465000Y-109220000D03*
%TD*%
D10*
%TO.C,MX35*%
X202882500Y-90487500D03*
D11*
X207962500Y-90487500D03*
D10*
X213042500Y-90487500D03*
D12*
X204152500Y-87947500D03*
X210502500Y-85407500D03*
%TD*%
D10*
%TO.C,MX22*%
X193357500Y-71437500D03*
D11*
X198437500Y-71437500D03*
D10*
X203517500Y-71437500D03*
D12*
X194627500Y-68897500D03*
X200977500Y-66357500D03*
%TD*%
D10*
%TO.C,MX50*%
X88582500Y-114300000D03*
D11*
X93662500Y-114300000D03*
D10*
X98742500Y-114300000D03*
D12*
X89852500Y-111760000D03*
X96202500Y-109220000D03*
%TD*%
D10*
%TO.C,MX41*%
X60007500Y-109537500D03*
D11*
X65087500Y-109537500D03*
D10*
X70167500Y-109537500D03*
D12*
X61277500Y-106997500D03*
X67627500Y-104457500D03*
%TD*%
D10*
%TO.C,MX54*%
X133826250Y-114300000D03*
D11*
X138906250Y-114300000D03*
D10*
X143986250Y-114300000D03*
D12*
X135096250Y-111760000D03*
X141446250Y-109220000D03*
%TD*%
D10*
%TO.C,MX48*%
X264795000Y-114300000D03*
D11*
X269875000Y-114300000D03*
D10*
X274955000Y-114300000D03*
D12*
X266065000Y-111760000D03*
X272415000Y-109220000D03*
%TD*%
D10*
%TO.C,MX34*%
X183832500Y-90487500D03*
D11*
X188912500Y-90487500D03*
D10*
X193992500Y-90487500D03*
D12*
X185102500Y-87947500D03*
X191452500Y-85407500D03*
%TD*%
D10*
%TO.C,MX45*%
X183832500Y-114300000D03*
D11*
X188912500Y-114300000D03*
D10*
X193992500Y-114300000D03*
D12*
X185102500Y-111760000D03*
X191452500Y-109220000D03*
%TD*%
D10*
%TO.C,MX5*%
X131445000Y-52387500D03*
D11*
X136525000Y-52387500D03*
D10*
X141605000Y-52387500D03*
D12*
X132715000Y-49847500D03*
X139065000Y-47307500D03*
%TD*%
D10*
%TO.C,MX21*%
X174307500Y-71437500D03*
D11*
X179387500Y-71437500D03*
D10*
X184467500Y-71437500D03*
D12*
X175577500Y-68897500D03*
X181927500Y-66357500D03*
%TD*%
D13*
%TO.C,S2*%
X200818750Y-121285000D03*
D11*
X200818750Y-106045000D03*
D13*
X177006250Y-121285000D03*
D11*
X177006250Y-106045000D03*
%TD*%
D10*
%TO.C,MX26*%
X288607500Y-71437500D03*
D11*
X293687500Y-71437500D03*
D10*
X298767500Y-71437500D03*
D12*
X289877500Y-68897500D03*
X296227500Y-66357500D03*
%TD*%
D10*
%TO.C,MX42*%
X93345000Y-114300000D03*
D11*
X98425000Y-114300000D03*
D10*
X103505000Y-114300000D03*
D12*
X94615000Y-111760000D03*
X100965000Y-109220000D03*
%TD*%
D13*
%TO.C,S10*%
X198437500Y-121285000D03*
D11*
X198437500Y-106045000D03*
D13*
X174625000Y-121285000D03*
D11*
X174625000Y-106045000D03*
%TD*%
D13*
%TO.C,S3*%
X227012500Y-121285000D03*
D11*
X227012500Y-106045000D03*
D13*
X112712500Y-121285000D03*
D11*
X112712500Y-106045000D03*
%TD*%
D10*
%TO.C,MX12*%
X264795000Y-52387500D03*
D11*
X269875000Y-52387500D03*
D10*
X274955000Y-52387500D03*
D12*
X266065000Y-49847500D03*
X272415000Y-47307500D03*
%TD*%
D10*
%TO.C,MX36*%
X221932500Y-90487500D03*
D11*
X227012500Y-90487500D03*
D10*
X232092500Y-90487500D03*
D12*
X223202500Y-87947500D03*
X229552500Y-85407500D03*
%TD*%
D10*
%TO.C,MX8*%
X188595000Y-52387500D03*
D11*
X193675000Y-52387500D03*
D10*
X198755000Y-52387500D03*
D12*
X189865000Y-49847500D03*
X196215000Y-47307500D03*
%TD*%
D10*
%TO.C,MX52*%
X107632500Y-114300000D03*
D11*
X112712500Y-114300000D03*
D10*
X117792500Y-114300000D03*
D12*
X108902500Y-111760000D03*
X115252500Y-109220000D03*
%TD*%
D10*
%TO.C,MX58*%
X181451250Y-114300000D03*
D11*
X186531250Y-114300000D03*
D10*
X191611250Y-114300000D03*
D12*
X182721250Y-111760000D03*
X189071250Y-109220000D03*
%TD*%
D13*
%TO.C,S7*%
X150812500Y-121285000D03*
D11*
X150812500Y-106045000D03*
D13*
X112712500Y-121285000D03*
D11*
X112712500Y-106045000D03*
%TD*%
D13*
%TO.C,S1*%
X143668750Y-121285000D03*
D11*
X143668750Y-106045000D03*
D13*
X119856250Y-121285000D03*
D11*
X119856250Y-106045000D03*
%TD*%
D10*
%TO.C,MX31*%
X126682500Y-90487500D03*
D11*
X131762500Y-90487500D03*
D10*
X136842500Y-90487500D03*
D12*
X127952500Y-87947500D03*
X134302500Y-85407500D03*
%TD*%
D10*
%TO.C,MX38*%
X264795000Y-95250000D03*
D11*
X269875000Y-95250000D03*
D10*
X274955000Y-95250000D03*
D12*
X266065000Y-92710000D03*
X272415000Y-90170000D03*
%TD*%
D10*
%TO.C,MX53*%
X126682500Y-114300000D03*
D11*
X131762500Y-114300000D03*
D10*
X136842500Y-114300000D03*
D12*
X127952500Y-111760000D03*
X134302500Y-109220000D03*
%TD*%
D10*
%TO.C,MX18*%
X117157500Y-71437500D03*
D11*
X122237500Y-71437500D03*
D10*
X127317500Y-71437500D03*
D12*
X118427500Y-68897500D03*
X124777500Y-66357500D03*
%TD*%
D10*
%TO.C,MX32*%
X145732500Y-90487500D03*
D11*
X150812500Y-90487500D03*
D10*
X155892500Y-90487500D03*
D12*
X147002500Y-87947500D03*
X153352500Y-85407500D03*
%TD*%
D14*
%TO.C,SW4*%
X86162500Y-111800000D03*
X86162500Y-116800000D03*
D15*
X86162500Y-114300000D03*
D16*
X93662500Y-108700000D03*
X93662500Y-119900000D03*
D14*
X100662500Y-116800000D03*
X100662500Y-111800000D03*
%TD*%
D10*
%TO.C,MX29*%
X88582500Y-90487500D03*
D11*
X93662500Y-90487500D03*
D10*
X98742500Y-90487500D03*
D12*
X89852500Y-87947500D03*
X96202500Y-85407500D03*
%TD*%
D10*
%TO.C,MX6*%
X150495000Y-52387500D03*
D11*
X155575000Y-52387500D03*
D10*
X160655000Y-52387500D03*
D12*
X151765000Y-49847500D03*
X158115000Y-47307500D03*
%TD*%
D10*
%TO.C,MX30*%
X107632500Y-90487500D03*
D11*
X112712500Y-90487500D03*
D10*
X117792500Y-90487500D03*
D12*
X108902500Y-87947500D03*
X115252500Y-85407500D03*
%TD*%
D10*
%TO.C,MX1*%
X55245000Y-52387500D03*
D11*
X60325000Y-52387500D03*
D10*
X65405000Y-52387500D03*
D12*
X56515000Y-49847500D03*
X62865000Y-47307500D03*
%TD*%
D10*
%TO.C,MX43*%
X126682500Y-114300000D03*
D11*
X131762500Y-114300000D03*
D10*
X136842500Y-114300000D03*
D12*
X127952500Y-111760000D03*
X134302500Y-109220000D03*
%TD*%
D10*
%TO.C,MX7*%
X169545000Y-52387500D03*
D11*
X174625000Y-52387500D03*
D10*
X179705000Y-52387500D03*
D12*
X170815000Y-49847500D03*
X177165000Y-47307500D03*
%TD*%
D10*
%TO.C,MX39*%
X288607500Y-90487500D03*
D11*
X293687500Y-90487500D03*
D10*
X298767500Y-90487500D03*
D12*
X289877500Y-87947500D03*
X296227500Y-85407500D03*
%TD*%
D10*
%TO.C,MX28*%
X62388750Y-90487500D03*
D11*
X67468750Y-90487500D03*
D10*
X72548750Y-90487500D03*
D12*
X63658750Y-87947500D03*
X70008750Y-85407500D03*
%TD*%
D13*
%TO.C,S5*%
X188912500Y-121285000D03*
D11*
X188912500Y-106045000D03*
D13*
X131762500Y-121285000D03*
D11*
X131762500Y-106045000D03*
%TD*%
D13*
%TO.C,S4*%
X207962500Y-121285000D03*
D11*
X207962500Y-106045000D03*
D13*
X112712500Y-121285000D03*
D11*
X112712500Y-106045000D03*
%TD*%
D10*
%TO.C,MX37*%
X240982500Y-90487500D03*
D11*
X246062500Y-90487500D03*
D10*
X251142500Y-90487500D03*
D12*
X242252500Y-87947500D03*
X248602500Y-85407500D03*
%TD*%
D14*
%TO.C,SW5*%
X234512500Y-116800000D03*
X234512500Y-111800000D03*
D17*
X234512500Y-114300000D03*
D18*
X227012500Y-119900000D03*
X227012500Y-108700000D03*
D14*
X220012500Y-111800000D03*
X220012500Y-116800000D03*
%TD*%
D10*
%TO.C,MX47*%
X245745000Y-114300000D03*
D11*
X250825000Y-114300000D03*
D10*
X255905000Y-114300000D03*
D12*
X247015000Y-111760000D03*
X253365000Y-109220000D03*
%TD*%
D10*
%TO.C,MX20*%
X155257500Y-71437500D03*
D11*
X160337500Y-71437500D03*
D10*
X165417500Y-71437500D03*
D12*
X156527500Y-68897500D03*
X162877500Y-66357500D03*
%TD*%
D10*
%TO.C,MX16*%
X79057500Y-71437500D03*
D11*
X84137500Y-71437500D03*
D10*
X89217500Y-71437500D03*
D12*
X80327500Y-68897500D03*
X86677500Y-66357500D03*
%TD*%
D10*
%TO.C,MX11*%
X245745000Y-52387500D03*
D11*
X250825000Y-52387500D03*
D10*
X255905000Y-52387500D03*
D12*
X247015000Y-49847500D03*
X253365000Y-47307500D03*
%TD*%
D10*
%TO.C,MX3*%
X93345000Y-52387500D03*
D11*
X98425000Y-52387500D03*
D10*
X103505000Y-52387500D03*
D12*
X94615000Y-49847500D03*
X100965000Y-47307500D03*
%TD*%
D13*
%TO.C,S8*%
X207962500Y-121285000D03*
D11*
X207962500Y-106045000D03*
D13*
X169862500Y-121285000D03*
D11*
X169862500Y-106045000D03*
%TD*%
D13*
%TO.C,S9*%
X150812500Y-121285000D03*
D11*
X150812500Y-106045000D03*
D13*
X127000000Y-121285000D03*
D11*
X127000000Y-106045000D03*
%TD*%
D10*
%TO.C,MX33*%
X164782500Y-90487500D03*
D11*
X169862500Y-90487500D03*
D10*
X174942500Y-90487500D03*
D12*
X166052500Y-87947500D03*
X172402500Y-85407500D03*
%TD*%
D14*
%TO.C,SW2*%
X291187500Y-78937500D03*
X296187500Y-78937500D03*
D19*
X293687500Y-78937500D03*
D20*
X288087500Y-71437500D03*
X299287500Y-71437500D03*
D14*
X296187500Y-64437500D03*
X291187500Y-64437500D03*
%TD*%
%TO.C,SW3*%
X291187500Y-97987500D03*
X296187500Y-97987500D03*
D19*
X293687500Y-97987500D03*
D20*
X288087500Y-90487500D03*
X299287500Y-90487500D03*
D14*
X296187500Y-83487500D03*
X291187500Y-83487500D03*
%TD*%
D10*
%TO.C,MX23*%
X212407500Y-71437500D03*
D11*
X217487500Y-71437500D03*
D10*
X222567500Y-71437500D03*
D12*
X213677500Y-68897500D03*
X220027500Y-66357500D03*
%TD*%
D13*
%TO.C,S6*%
X227012500Y-121285000D03*
D11*
X227012500Y-106045000D03*
D13*
X93662500Y-121285000D03*
D11*
X93662500Y-106045000D03*
%TD*%
D10*
%TO.C,MX10*%
X226695000Y-52387500D03*
D11*
X231775000Y-52387500D03*
D10*
X236855000Y-52387500D03*
D12*
X227965000Y-49847500D03*
X234315000Y-47307500D03*
%TD*%
D14*
%TO.C,SW1*%
X291187500Y-59887500D03*
X296187500Y-59887500D03*
D19*
X293687500Y-59887500D03*
D20*
X288087500Y-52387500D03*
X299287500Y-52387500D03*
D14*
X296187500Y-45387500D03*
X291187500Y-45387500D03*
%TD*%
D10*
%TO.C,MX4*%
X112395000Y-52387500D03*
D11*
X117475000Y-52387500D03*
D10*
X122555000Y-52387500D03*
D12*
X113665000Y-49847500D03*
X120015000Y-47307500D03*
%TD*%
D10*
%TO.C,MX9*%
X207645000Y-52387500D03*
D11*
X212725000Y-52387500D03*
D10*
X217805000Y-52387500D03*
D12*
X208915000Y-49847500D03*
X215265000Y-47307500D03*
%TD*%
D10*
%TO.C,MX13*%
X288607500Y-52387500D03*
D11*
X293687500Y-52387500D03*
D10*
X298767500Y-52387500D03*
D12*
X289877500Y-49847500D03*
X296227500Y-47307500D03*
%TD*%
D10*
%TO.C,MX24*%
X231457500Y-71437500D03*
D11*
X236537500Y-71437500D03*
D10*
X241617500Y-71437500D03*
D12*
X232727500Y-68897500D03*
X239077500Y-66357500D03*
%TD*%
D10*
%TO.C,MX55*%
X164782500Y-114300000D03*
D11*
X169862500Y-114300000D03*
D10*
X174942500Y-114300000D03*
D12*
X166052500Y-111760000D03*
X172402500Y-109220000D03*
%TD*%
D10*
%TO.C,MX2*%
X74295000Y-52387500D03*
D11*
X79375000Y-52387500D03*
D10*
X84455000Y-52387500D03*
D12*
X75565000Y-49847500D03*
X81915000Y-47307500D03*
%TD*%
D21*
%TO.C,D23*%
X220662500Y-73631250D03*
X220662500Y-70831250D03*
%TD*%
D22*
%TO.C,U1*%
X279768750Y-84462500D03*
X279268750Y-84462500D03*
X278768750Y-84462500D03*
X278268750Y-84462500D03*
X277768750Y-84462500D03*
X277268750Y-84462500D03*
X276768750Y-84462500D03*
X276268750Y-84462500D03*
X275768750Y-84462500D03*
X275268750Y-84462500D03*
X274768750Y-84462500D03*
X274268750Y-84462500D03*
D23*
X272856250Y-83050000D03*
X272856250Y-82550000D03*
X272856250Y-82050000D03*
X272856250Y-81550000D03*
X272856250Y-81050000D03*
X272856250Y-80550000D03*
X272856250Y-80050000D03*
X272856250Y-79550000D03*
X272856250Y-79050000D03*
X272856250Y-78550000D03*
X272856250Y-78050000D03*
X272856250Y-77550000D03*
D22*
X274268750Y-76137500D03*
X274768750Y-76137500D03*
X275268750Y-76137500D03*
X275768750Y-76137500D03*
X276268750Y-76137500D03*
X276768750Y-76137500D03*
X277268750Y-76137500D03*
X277768750Y-76137500D03*
X278268750Y-76137500D03*
X278768750Y-76137500D03*
X279268750Y-76137500D03*
X279768750Y-76137500D03*
D23*
X281181250Y-77550000D03*
X281181250Y-78050000D03*
X281181250Y-78550000D03*
X281181250Y-79050000D03*
X281181250Y-79550000D03*
X281181250Y-80050000D03*
X281181250Y-80550000D03*
X281181250Y-81050000D03*
X281181250Y-81550000D03*
X281181250Y-82050000D03*
X281181250Y-82550000D03*
X281181250Y-83050000D03*
%TD*%
D24*
%TO.C,C3*%
X271962500Y-76200000D03*
X271002500Y-76200000D03*
%TD*%
D21*
%TO.C,D29*%
X96837500Y-92681250D03*
X96837500Y-89881250D03*
%TD*%
%TO.C,D5*%
X139700000Y-54581250D03*
X139700000Y-51781250D03*
%TD*%
D25*
%TO.C,C7*%
X276765057Y-87278459D03*
X276765057Y-88238459D03*
%TD*%
D21*
%TO.C,D32*%
X153987500Y-92681250D03*
X153987500Y-89881250D03*
%TD*%
%TO.C,D1*%
X63500000Y-54581250D03*
X63500000Y-51781250D03*
%TD*%
%TO.C,D4*%
X120650000Y-54581250D03*
X120650000Y-51781250D03*
%TD*%
%TO.C,D15*%
X65881250Y-73631250D03*
X65881250Y-70831250D03*
%TD*%
%TO.C,D12*%
X273050000Y-54581250D03*
X273050000Y-51781250D03*
%TD*%
%TO.C,D31*%
X134937500Y-92681250D03*
X134937500Y-89881250D03*
%TD*%
D26*
%TO.C,J1*%
X252825000Y-63412500D03*
X252825000Y-62412500D03*
X252825000Y-61412500D03*
X252825000Y-60412500D03*
D27*
X248950000Y-64712500D03*
X248950000Y-59112500D03*
%TD*%
D21*
%TO.C,D9*%
X215900000Y-54581250D03*
X215900000Y-51781250D03*
%TD*%
%TO.C,D44*%
X173037500Y-116493750D03*
X173037500Y-113693750D03*
%TD*%
%TO.C,D7*%
X177800000Y-54581250D03*
X177800000Y-51781250D03*
%TD*%
%TO.C,D36*%
X230187500Y-92681250D03*
X230187500Y-89881250D03*
%TD*%
%TO.C,D26*%
X296862500Y-73631250D03*
X296862500Y-70831250D03*
%TD*%
D24*
%TO.C,C9*%
X279990000Y-71437500D03*
X279030000Y-71437500D03*
%TD*%
D21*
%TO.C,D47*%
X254000000Y-116493750D03*
X254000000Y-113693750D03*
%TD*%
D28*
%TO.C,U2*%
X281143750Y-69850000D03*
X279243750Y-69850000D03*
X280193750Y-67975000D03*
%TD*%
D21*
%TO.C,D17*%
X106362500Y-73631250D03*
X106362500Y-70831250D03*
%TD*%
%TO.C,D45*%
X211137500Y-116493750D03*
X211137500Y-113693750D03*
%TD*%
%TO.C,D37*%
X249237500Y-92681250D03*
X249237500Y-89881250D03*
%TD*%
%TO.C,D43*%
X142081250Y-116493750D03*
X142081250Y-113693750D03*
%TD*%
%TO.C,D33*%
X173037500Y-92681250D03*
X173037500Y-89881250D03*
%TD*%
D29*
%TO.C,C6*%
X280412500Y-73950000D03*
X281962500Y-73950000D03*
%TD*%
D30*
%TO.C,SW6*%
X287262500Y-56887500D03*
X281062500Y-56887500D03*
X287262500Y-60587500D03*
X281062500Y-60587500D03*
%TD*%
D21*
%TO.C,D30*%
X115887500Y-92681250D03*
X115887500Y-89881250D03*
%TD*%
%TO.C,D20*%
X163512500Y-73631250D03*
X163512500Y-70831250D03*
%TD*%
%TO.C,D2*%
X82550000Y-54581250D03*
X82550000Y-51781250D03*
%TD*%
%TO.C,D3*%
X101600000Y-54581250D03*
X101600000Y-51781250D03*
%TD*%
%TO.C,D21*%
X182562500Y-73631250D03*
X182562500Y-70831250D03*
%TD*%
D24*
%TO.C,C8*%
X279990000Y-66315654D03*
X279030000Y-66315654D03*
%TD*%
D31*
%TO.C,C5*%
X283036827Y-83475000D03*
X283996827Y-83475000D03*
%TD*%
D25*
%TO.C,C2*%
X275768435Y-87277500D03*
X275768435Y-88237500D03*
%TD*%
D21*
%TO.C,D49*%
X292100000Y-116493750D03*
X292100000Y-113693750D03*
%TD*%
D32*
%TO.C,J2*%
X251685197Y-63712500D03*
X251685197Y-62512500D03*
X251685197Y-61312500D03*
X251685197Y-60112500D03*
D33*
X247910197Y-64862500D03*
X247910197Y-58962500D03*
%TD*%
D21*
%TO.C,D6*%
X158750000Y-54581250D03*
X158750000Y-51781250D03*
%TD*%
D34*
%TO.C,R1*%
X281019995Y-62376265D03*
X279999995Y-62376265D03*
%TD*%
D31*
%TO.C,C4*%
X281791298Y-75737500D03*
X282751298Y-75737500D03*
%TD*%
%TO.C,C1*%
X281791298Y-84761185D03*
X282751298Y-84761185D03*
%TD*%
D21*
%TO.C,D42*%
X105568750Y-116306250D03*
X105568750Y-113506250D03*
%TD*%
%TO.C,D8*%
X196850000Y-54581250D03*
X196850000Y-51781250D03*
%TD*%
%TO.C,D25*%
X265906250Y-73631250D03*
X265906250Y-70831250D03*
%TD*%
%TO.C,D48*%
X273050000Y-116493750D03*
X273050000Y-113693750D03*
%TD*%
%TO.C,D19*%
X144462500Y-73631250D03*
X144462500Y-70831250D03*
%TD*%
%TO.C,D16*%
X87312500Y-73631250D03*
X87312500Y-70831250D03*
%TD*%
%TO.C,D24*%
X239712500Y-73631250D03*
X239712500Y-70831250D03*
%TD*%
%TO.C,D38*%
X273050000Y-97443750D03*
X273050000Y-94643750D03*
%TD*%
%TO.C,D46*%
X215106250Y-116493750D03*
X215106250Y-113693750D03*
%TD*%
%TO.C,D13*%
X296862500Y-54581250D03*
X296862500Y-51781250D03*
%TD*%
%TO.C,D35*%
X211137500Y-92681250D03*
X211137500Y-89881250D03*
%TD*%
%TO.C,D41*%
X68262500Y-111731250D03*
X68262500Y-108931250D03*
%TD*%
%TO.C,D34*%
X192087500Y-92681250D03*
X192087500Y-89881250D03*
%TD*%
%TO.C,D28*%
X70643750Y-92681250D03*
X70643750Y-89881250D03*
%TD*%
%TO.C,D10*%
X234950000Y-54581250D03*
X234950000Y-51781250D03*
%TD*%
%TO.C,D18*%
X125412500Y-73631250D03*
X125412500Y-70831250D03*
%TD*%
%TO.C,D11*%
X254000000Y-54581250D03*
X254000000Y-51781250D03*
%TD*%
%TO.C,D22*%
X201612500Y-73631250D03*
X201612500Y-70831250D03*
%TD*%
%TO.C,D39*%
X296862500Y-92681250D03*
X296862500Y-89881250D03*
%TD*%
M02*
