%TF.GenerationSoftware,KiCad,Pcbnew,8.0.5*%
%TF.CreationDate,2024-10-14T19:29:39+02:00*%
%TF.ProjectId,Eightu,45696768-7475-42e6-9b69-6361645f7063,rev?*%
%TF.SameCoordinates,Original*%
%TF.FileFunction,Legend,Bot*%
%TF.FilePolarity,Positive*%
%FSLAX46Y46*%
G04 Gerber Fmt 4.6, Leading zero omitted, Abs format (unit mm)*
G04 Created by KiCad (PCBNEW 8.0.5) date 2024-10-14 19:29:39*
%MOMM*%
%LPD*%
G01*
G04 APERTURE LIST*
%ADD10C,0.120000*%
%ADD11C,0.150000*%
%ADD12C,0.000000*%
G04 APERTURE END LIST*
D10*
X131762500Y-103981250D02*
X131762500Y-103187500D01*
X169862500Y-99912500D02*
X171182500Y-99912500D01*
X171662500Y-99912500D02*
X172982500Y-99912500D01*
X173462500Y-99912500D02*
X174782500Y-99912500D01*
X175262500Y-99912500D02*
X176582500Y-99912500D01*
X177062500Y-99912500D02*
X178382500Y-99912500D01*
X178862500Y-99912500D02*
X180182500Y-99912500D01*
X180662500Y-99912500D02*
X181982500Y-99912500D01*
X182462500Y-99912500D02*
X183782500Y-99912500D01*
X184262500Y-99912500D02*
X185582500Y-99912500D01*
X186062500Y-99912500D02*
X187382500Y-99912500D01*
X187862500Y-99912500D02*
X189182500Y-99912500D01*
X189662500Y-99912500D02*
X190982500Y-99912500D01*
X191462500Y-99912500D02*
X192782500Y-99912500D01*
X193262500Y-99912500D02*
X194582500Y-99912500D01*
X195062500Y-99912500D02*
X196382500Y-99912500D01*
X196862500Y-99912500D02*
X198182500Y-99912500D01*
X198662500Y-99912500D02*
X199982500Y-99912500D01*
X200462500Y-99912500D02*
X201782500Y-99912500D01*
X202262500Y-99912500D02*
X203582500Y-99912500D01*
X204062500Y-99912500D02*
X205382500Y-99912500D01*
X205862500Y-99912500D02*
X207182500Y-99912500D01*
X207662500Y-99912500D02*
X207962500Y-99912500D01*
X127000000Y-99912500D02*
X127000000Y-101232500D01*
X127000000Y-101712500D02*
X127000000Y-103032500D01*
X127000000Y-103512500D02*
X127000000Y-103881250D01*
X177006250Y-99912500D02*
X177006250Y-101232500D01*
X177006250Y-101712500D02*
X177006250Y-103032500D01*
X177006250Y-103512500D02*
X177006250Y-103881250D01*
X93662500Y-103187500D02*
X227012500Y-103187500D01*
X119856250Y-99912500D02*
X119856250Y-101232500D01*
X119856250Y-101712500D02*
X119856250Y-103032500D01*
X119856250Y-103512500D02*
X119856250Y-103881250D01*
X112712500Y-103981250D02*
X112712500Y-103187500D01*
X227012500Y-103981250D02*
X227012500Y-103187500D01*
X112712500Y-99912500D02*
X112712500Y-101232500D01*
X143668750Y-99912500D02*
X143668750Y-101232500D01*
X143668750Y-101712500D02*
X143668750Y-103032500D01*
X143668750Y-103512500D02*
X143668750Y-103881250D01*
X188912500Y-103981250D02*
X188912500Y-103187500D01*
X174625000Y-99912500D02*
X174625000Y-101232500D01*
X174625000Y-101712500D02*
X174625000Y-103032500D01*
X174625000Y-103512500D02*
X174625000Y-103881250D01*
X169862500Y-99912500D02*
X169862500Y-101232500D01*
X169862500Y-101712500D02*
X169862500Y-103032500D01*
X169862500Y-103512500D02*
X169862500Y-103881250D01*
X200818750Y-99912500D02*
X200818750Y-101232500D01*
X200818750Y-101712500D02*
X200818750Y-103032500D01*
X200818750Y-103512500D02*
X200818750Y-103881250D01*
X112712500Y-99912500D02*
X114032500Y-99912500D01*
X114512500Y-99912500D02*
X115832500Y-99912500D01*
X116312500Y-99912500D02*
X117632500Y-99912500D01*
X118112500Y-99912500D02*
X119432500Y-99912500D01*
X119912500Y-99912500D02*
X121232500Y-99912500D01*
X121712500Y-99912500D02*
X123032500Y-99912500D01*
X123512500Y-99912500D02*
X124832500Y-99912500D01*
X125312500Y-99912500D02*
X126632500Y-99912500D01*
X127112500Y-99912500D02*
X128432500Y-99912500D01*
X128912500Y-99912500D02*
X130232500Y-99912500D01*
X130712500Y-99912500D02*
X132032500Y-99912500D01*
X132512500Y-99912500D02*
X133832500Y-99912500D01*
X134312500Y-99912500D02*
X135632500Y-99912500D01*
X136112500Y-99912500D02*
X137432500Y-99912500D01*
X137912500Y-99912500D02*
X139232500Y-99912500D01*
X139712500Y-99912500D02*
X141032500Y-99912500D01*
X141512500Y-99912500D02*
X142832500Y-99912500D01*
X143312500Y-99912500D02*
X144632500Y-99912500D01*
X145112500Y-99912500D02*
X146432500Y-99912500D01*
X146912500Y-99912500D02*
X148232500Y-99912500D01*
X148712500Y-99912500D02*
X150032500Y-99912500D01*
X150512500Y-99912500D02*
X150812500Y-99912500D01*
X198437500Y-99912500D02*
X198437500Y-101232500D01*
X198437500Y-101712500D02*
X198437500Y-103032500D01*
X198437500Y-103512500D02*
X198437500Y-103881250D01*
X207962500Y-99912500D02*
X207962500Y-101232500D01*
X207962500Y-103981250D02*
X207962500Y-103187500D01*
X93662500Y-103981250D02*
X93662500Y-103187500D01*
X150802205Y-98678471D02*
X150804817Y-99998468D01*
X150805767Y-100478467D02*
X150808379Y-101798465D01*
X150809328Y-102278464D02*
X150811940Y-103598461D01*
D11*
X143925892Y-98813021D02*
X143883035Y-98770164D01*
X143883035Y-98770164D02*
X143797321Y-98727307D01*
X143797321Y-98727307D02*
X143583035Y-98727307D01*
X143583035Y-98727307D02*
X143497321Y-98770164D01*
X143497321Y-98770164D02*
X143454463Y-98813021D01*
X143454463Y-98813021D02*
X143411606Y-98898735D01*
X143411606Y-98898735D02*
X143411606Y-98984450D01*
X143411606Y-98984450D02*
X143454463Y-99113021D01*
X143454463Y-99113021D02*
X143968749Y-99627307D01*
X143968749Y-99627307D02*
X143411606Y-99627307D01*
X160186820Y-118571057D02*
X160358248Y-118571057D01*
X160358248Y-118571057D02*
X160443962Y-118613914D01*
X160443962Y-118613914D02*
X160486820Y-118656771D01*
X160486820Y-118656771D02*
X160572534Y-118785342D01*
X160572534Y-118785342D02*
X160615391Y-118956771D01*
X160615391Y-118956771D02*
X160615391Y-119299628D01*
X160615391Y-119299628D02*
X160572534Y-119385342D01*
X160572534Y-119385342D02*
X160529677Y-119428200D01*
X160529677Y-119428200D02*
X160443962Y-119471057D01*
X160443962Y-119471057D02*
X160272534Y-119471057D01*
X160272534Y-119471057D02*
X160186820Y-119428200D01*
X160186820Y-119428200D02*
X160143962Y-119385342D01*
X160143962Y-119385342D02*
X160101105Y-119299628D01*
X160101105Y-119299628D02*
X160101105Y-119085342D01*
X160101105Y-119085342D02*
X160143962Y-118999628D01*
X160143962Y-118999628D02*
X160186820Y-118956771D01*
X160186820Y-118956771D02*
X160272534Y-118913914D01*
X160272534Y-118913914D02*
X160443962Y-118913914D01*
X160443962Y-118913914D02*
X160529677Y-118956771D01*
X160529677Y-118956771D02*
X160572534Y-118999628D01*
X160572534Y-118999628D02*
X160615391Y-119085342D01*
X189212499Y-116983557D02*
X188655356Y-116983557D01*
X188655356Y-116983557D02*
X188955356Y-117326414D01*
X188955356Y-117326414D02*
X188826785Y-117326414D01*
X188826785Y-117326414D02*
X188741071Y-117369271D01*
X188741071Y-117369271D02*
X188698213Y-117412128D01*
X188698213Y-117412128D02*
X188655356Y-117497842D01*
X188655356Y-117497842D02*
X188655356Y-117712128D01*
X188655356Y-117712128D02*
X188698213Y-117797842D01*
X188698213Y-117797842D02*
X188741071Y-117840700D01*
X188741071Y-117840700D02*
X188826785Y-117883557D01*
X188826785Y-117883557D02*
X189083928Y-117883557D01*
X189083928Y-117883557D02*
X189169642Y-117840700D01*
X189169642Y-117840700D02*
X189212499Y-117797842D01*
X150318749Y-98727307D02*
X149761606Y-98727307D01*
X149761606Y-98727307D02*
X150061606Y-99070164D01*
X150061606Y-99070164D02*
X149933035Y-99070164D01*
X149933035Y-99070164D02*
X149847321Y-99113021D01*
X149847321Y-99113021D02*
X149804463Y-99155878D01*
X149804463Y-99155878D02*
X149761606Y-99241592D01*
X149761606Y-99241592D02*
X149761606Y-99455878D01*
X149761606Y-99455878D02*
X149804463Y-99541592D01*
X149804463Y-99541592D02*
X149847321Y-99584450D01*
X149847321Y-99584450D02*
X149933035Y-99627307D01*
X149933035Y-99627307D02*
X150190178Y-99627307D01*
X150190178Y-99627307D02*
X150275892Y-99584450D01*
X150275892Y-99584450D02*
X150318749Y-99541592D01*
X99024999Y-117883557D02*
X99539285Y-117883557D01*
X99282142Y-117883557D02*
X99282142Y-116983557D01*
X99282142Y-116983557D02*
X99367856Y-117112128D01*
X99367856Y-117112128D02*
X99453571Y-117197842D01*
X99453571Y-117197842D02*
X99539285Y-117240700D01*
X98210713Y-116983557D02*
X98639285Y-116983557D01*
X98639285Y-116983557D02*
X98682142Y-117412128D01*
X98682142Y-117412128D02*
X98639285Y-117369271D01*
X98639285Y-117369271D02*
X98553571Y-117326414D01*
X98553571Y-117326414D02*
X98339285Y-117326414D01*
X98339285Y-117326414D02*
X98253571Y-117369271D01*
X98253571Y-117369271D02*
X98210713Y-117412128D01*
X98210713Y-117412128D02*
X98167856Y-117497842D01*
X98167856Y-117497842D02*
X98167856Y-117712128D01*
X98167856Y-117712128D02*
X98210713Y-117797842D01*
X98210713Y-117797842D02*
X98253571Y-117840700D01*
X98253571Y-117840700D02*
X98339285Y-117883557D01*
X98339285Y-117883557D02*
X98553571Y-117883557D01*
X98553571Y-117883557D02*
X98639285Y-117840700D01*
X98639285Y-117840700D02*
X98682142Y-117797842D01*
X97610713Y-116983557D02*
X97524999Y-116983557D01*
X97524999Y-116983557D02*
X97439285Y-117026414D01*
X97439285Y-117026414D02*
X97396428Y-117069271D01*
X97396428Y-117069271D02*
X97353570Y-117154985D01*
X97353570Y-117154985D02*
X97310713Y-117326414D01*
X97310713Y-117326414D02*
X97310713Y-117540700D01*
X97310713Y-117540700D02*
X97353570Y-117712128D01*
X97353570Y-117712128D02*
X97396428Y-117797842D01*
X97396428Y-117797842D02*
X97439285Y-117840700D01*
X97439285Y-117840700D02*
X97524999Y-117883557D01*
X97524999Y-117883557D02*
X97610713Y-117883557D01*
X97610713Y-117883557D02*
X97696428Y-117840700D01*
X97696428Y-117840700D02*
X97739285Y-117797842D01*
X97739285Y-117797842D02*
X97782142Y-117712128D01*
X97782142Y-117712128D02*
X97824999Y-117540700D01*
X97824999Y-117540700D02*
X97824999Y-117326414D01*
X97824999Y-117326414D02*
X97782142Y-117154985D01*
X97782142Y-117154985D02*
X97739285Y-117069271D01*
X97739285Y-117069271D02*
X97696428Y-117026414D01*
X97696428Y-117026414D02*
X97610713Y-116983557D01*
X187645535Y-117069271D02*
X187602678Y-117026414D01*
X187602678Y-117026414D02*
X187516964Y-116983557D01*
X187516964Y-116983557D02*
X187302678Y-116983557D01*
X187302678Y-116983557D02*
X187216964Y-117026414D01*
X187216964Y-117026414D02*
X187174106Y-117069271D01*
X187174106Y-117069271D02*
X187131249Y-117154985D01*
X187131249Y-117154985D02*
X187131249Y-117240700D01*
X187131249Y-117240700D02*
X187174106Y-117369271D01*
X187174106Y-117369271D02*
X187688392Y-117883557D01*
X187688392Y-117883557D02*
X187131249Y-117883557D01*
X186788392Y-117069271D02*
X186745535Y-117026414D01*
X186745535Y-117026414D02*
X186659821Y-116983557D01*
X186659821Y-116983557D02*
X186445535Y-116983557D01*
X186445535Y-116983557D02*
X186359821Y-117026414D01*
X186359821Y-117026414D02*
X186316963Y-117069271D01*
X186316963Y-117069271D02*
X186274106Y-117154985D01*
X186274106Y-117154985D02*
X186274106Y-117240700D01*
X186274106Y-117240700D02*
X186316963Y-117369271D01*
X186316963Y-117369271D02*
X186831249Y-117883557D01*
X186831249Y-117883557D02*
X186274106Y-117883557D01*
X185459820Y-116983557D02*
X185888392Y-116983557D01*
X185888392Y-116983557D02*
X185931249Y-117412128D01*
X185931249Y-117412128D02*
X185888392Y-117369271D01*
X185888392Y-117369271D02*
X185802678Y-117326414D01*
X185802678Y-117326414D02*
X185588392Y-117326414D01*
X185588392Y-117326414D02*
X185502678Y-117369271D01*
X185502678Y-117369271D02*
X185459820Y-117412128D01*
X185459820Y-117412128D02*
X185416963Y-117497842D01*
X185416963Y-117497842D02*
X185416963Y-117712128D01*
X185416963Y-117712128D02*
X185459820Y-117797842D01*
X185459820Y-117797842D02*
X185502678Y-117840700D01*
X185502678Y-117840700D02*
X185588392Y-117883557D01*
X185588392Y-117883557D02*
X185802678Y-117883557D01*
X185802678Y-117883557D02*
X185888392Y-117840700D01*
X185888392Y-117840700D02*
X185931249Y-117797842D01*
X132035003Y-118380257D02*
X131992146Y-118337400D01*
X131992146Y-118337400D02*
X131906432Y-118294543D01*
X131906432Y-118294543D02*
X131692146Y-118294543D01*
X131692146Y-118294543D02*
X131606432Y-118337400D01*
X131606432Y-118337400D02*
X131563574Y-118380257D01*
X131563574Y-118380257D02*
X131520717Y-118465971D01*
X131520717Y-118465971D02*
X131520717Y-118551686D01*
X131520717Y-118551686D02*
X131563574Y-118680257D01*
X131563574Y-118680257D02*
X132077860Y-119194543D01*
X132077860Y-119194543D02*
X131520717Y-119194543D01*
X131591071Y-102202307D02*
X131591071Y-102802307D01*
X131805356Y-101859450D02*
X132019642Y-102502307D01*
X132019642Y-102502307D02*
X131462499Y-102502307D01*
X113012499Y-98727307D02*
X112455356Y-98727307D01*
X112455356Y-98727307D02*
X112755356Y-99070164D01*
X112755356Y-99070164D02*
X112626785Y-99070164D01*
X112626785Y-99070164D02*
X112541071Y-99113021D01*
X112541071Y-99113021D02*
X112498213Y-99155878D01*
X112498213Y-99155878D02*
X112455356Y-99241592D01*
X112455356Y-99241592D02*
X112455356Y-99455878D01*
X112455356Y-99455878D02*
X112498213Y-99541592D01*
X112498213Y-99541592D02*
X112541071Y-99584450D01*
X112541071Y-99584450D02*
X112626785Y-99627307D01*
X112626785Y-99627307D02*
X112883928Y-99627307D01*
X112883928Y-99627307D02*
X112969642Y-99584450D01*
X112969642Y-99584450D02*
X113012499Y-99541592D01*
X207705356Y-117883557D02*
X208219642Y-117883557D01*
X207962499Y-117883557D02*
X207962499Y-116983557D01*
X207962499Y-116983557D02*
X208048213Y-117112128D01*
X208048213Y-117112128D02*
X208133928Y-117197842D01*
X208133928Y-117197842D02*
X208219642Y-117240700D01*
X160080356Y-122646057D02*
X160594642Y-122646057D01*
X160337499Y-122646057D02*
X160337499Y-121746057D01*
X160337499Y-121746057D02*
X160423213Y-121874628D01*
X160423213Y-121874628D02*
X160508928Y-121960342D01*
X160508928Y-121960342D02*
X160594642Y-122003200D01*
X170162499Y-116983557D02*
X169562499Y-116983557D01*
X169562499Y-116983557D02*
X169948213Y-117883557D01*
X199551785Y-98813021D02*
X199508928Y-98770164D01*
X199508928Y-98770164D02*
X199423214Y-98727307D01*
X199423214Y-98727307D02*
X199208928Y-98727307D01*
X199208928Y-98727307D02*
X199123214Y-98770164D01*
X199123214Y-98770164D02*
X199080356Y-98813021D01*
X199080356Y-98813021D02*
X199037499Y-98898735D01*
X199037499Y-98898735D02*
X199037499Y-98984450D01*
X199037499Y-98984450D02*
X199080356Y-99113021D01*
X199080356Y-99113021D02*
X199594642Y-99627307D01*
X199594642Y-99627307D02*
X199037499Y-99627307D01*
X198694642Y-98813021D02*
X198651785Y-98770164D01*
X198651785Y-98770164D02*
X198566071Y-98727307D01*
X198566071Y-98727307D02*
X198351785Y-98727307D01*
X198351785Y-98727307D02*
X198266071Y-98770164D01*
X198266071Y-98770164D02*
X198223213Y-98813021D01*
X198223213Y-98813021D02*
X198180356Y-98898735D01*
X198180356Y-98898735D02*
X198180356Y-98984450D01*
X198180356Y-98984450D02*
X198223213Y-99113021D01*
X198223213Y-99113021D02*
X198737499Y-99627307D01*
X198737499Y-99627307D02*
X198180356Y-99627307D01*
X197366070Y-98727307D02*
X197794642Y-98727307D01*
X197794642Y-98727307D02*
X197837499Y-99155878D01*
X197837499Y-99155878D02*
X197794642Y-99113021D01*
X197794642Y-99113021D02*
X197708928Y-99070164D01*
X197708928Y-99070164D02*
X197494642Y-99070164D01*
X197494642Y-99070164D02*
X197408928Y-99113021D01*
X197408928Y-99113021D02*
X197366070Y-99155878D01*
X197366070Y-99155878D02*
X197323213Y-99241592D01*
X197323213Y-99241592D02*
X197323213Y-99455878D01*
X197323213Y-99455878D02*
X197366070Y-99541592D01*
X197366070Y-99541592D02*
X197408928Y-99584450D01*
X197408928Y-99584450D02*
X197494642Y-99627307D01*
X197494642Y-99627307D02*
X197708928Y-99627307D01*
X197708928Y-99627307D02*
X197794642Y-99584450D01*
X197794642Y-99584450D02*
X197837499Y-99541592D01*
X208262499Y-98727307D02*
X207705356Y-98727307D01*
X207705356Y-98727307D02*
X208005356Y-99070164D01*
X208005356Y-99070164D02*
X207876785Y-99070164D01*
X207876785Y-99070164D02*
X207791071Y-99113021D01*
X207791071Y-99113021D02*
X207748213Y-99155878D01*
X207748213Y-99155878D02*
X207705356Y-99241592D01*
X207705356Y-99241592D02*
X207705356Y-99455878D01*
X207705356Y-99455878D02*
X207748213Y-99541592D01*
X207748213Y-99541592D02*
X207791071Y-99584450D01*
X207791071Y-99584450D02*
X207876785Y-99627307D01*
X207876785Y-99627307D02*
X208133928Y-99627307D01*
X208133928Y-99627307D02*
X208219642Y-99584450D01*
X208219642Y-99584450D02*
X208262499Y-99541592D01*
X187838392Y-99584450D02*
X187752678Y-99627307D01*
X187752678Y-99627307D02*
X187581249Y-99627307D01*
X187581249Y-99627307D02*
X187495535Y-99584450D01*
X187495535Y-99584450D02*
X187452678Y-99498735D01*
X187452678Y-99498735D02*
X187452678Y-99455878D01*
X187452678Y-99455878D02*
X187495535Y-99370164D01*
X187495535Y-99370164D02*
X187581249Y-99327307D01*
X187581249Y-99327307D02*
X187709821Y-99327307D01*
X187709821Y-99327307D02*
X187795535Y-99284450D01*
X187795535Y-99284450D02*
X187838392Y-99198735D01*
X187838392Y-99198735D02*
X187838392Y-99155878D01*
X187838392Y-99155878D02*
X187795535Y-99070164D01*
X187795535Y-99070164D02*
X187709821Y-99027307D01*
X187709821Y-99027307D02*
X187581249Y-99027307D01*
X187581249Y-99027307D02*
X187495535Y-99070164D01*
X187066964Y-99027307D02*
X187066964Y-99927307D01*
X187066964Y-99070164D02*
X186981250Y-99027307D01*
X186981250Y-99027307D02*
X186809821Y-99027307D01*
X186809821Y-99027307D02*
X186724107Y-99070164D01*
X186724107Y-99070164D02*
X186681250Y-99113021D01*
X186681250Y-99113021D02*
X186638392Y-99198735D01*
X186638392Y-99198735D02*
X186638392Y-99455878D01*
X186638392Y-99455878D02*
X186681250Y-99541592D01*
X186681250Y-99541592D02*
X186724107Y-99584450D01*
X186724107Y-99584450D02*
X186809821Y-99627307D01*
X186809821Y-99627307D02*
X186981250Y-99627307D01*
X186981250Y-99627307D02*
X187066964Y-99584450D01*
X186124106Y-99627307D02*
X186209821Y-99584450D01*
X186209821Y-99584450D02*
X186252678Y-99498735D01*
X186252678Y-99498735D02*
X186252678Y-98727307D01*
X185781249Y-99627307D02*
X185781249Y-99027307D01*
X185781249Y-98727307D02*
X185824106Y-98770164D01*
X185824106Y-98770164D02*
X185781249Y-98813021D01*
X185781249Y-98813021D02*
X185738392Y-98770164D01*
X185738392Y-98770164D02*
X185781249Y-98727307D01*
X185781249Y-98727307D02*
X185781249Y-98813021D01*
X185481249Y-99027307D02*
X185138392Y-99027307D01*
X185352678Y-98727307D02*
X185352678Y-99498735D01*
X185352678Y-99498735D02*
X185309821Y-99584450D01*
X185309821Y-99584450D02*
X185224106Y-99627307D01*
X185224106Y-99627307D02*
X185138392Y-99627307D01*
X112455356Y-117883557D02*
X112969642Y-117883557D01*
X112712499Y-117883557D02*
X112712499Y-116983557D01*
X112712499Y-116983557D02*
X112798213Y-117112128D01*
X112798213Y-117112128D02*
X112883928Y-117197842D01*
X112883928Y-117197842D02*
X112969642Y-117240700D01*
X226755356Y-117883557D02*
X227269642Y-117883557D01*
X227012499Y-117883557D02*
X227012499Y-116983557D01*
X227012499Y-116983557D02*
X227098213Y-117112128D01*
X227098213Y-117112128D02*
X227183928Y-117197842D01*
X227183928Y-117197842D02*
X227269642Y-117240700D01*
X93748213Y-102288021D02*
X93833928Y-102245164D01*
X93833928Y-102245164D02*
X93876785Y-102202307D01*
X93876785Y-102202307D02*
X93919642Y-102116592D01*
X93919642Y-102116592D02*
X93919642Y-102073735D01*
X93919642Y-102073735D02*
X93876785Y-101988021D01*
X93876785Y-101988021D02*
X93833928Y-101945164D01*
X93833928Y-101945164D02*
X93748213Y-101902307D01*
X93748213Y-101902307D02*
X93576785Y-101902307D01*
X93576785Y-101902307D02*
X93491071Y-101945164D01*
X93491071Y-101945164D02*
X93448213Y-101988021D01*
X93448213Y-101988021D02*
X93405356Y-102073735D01*
X93405356Y-102073735D02*
X93405356Y-102116592D01*
X93405356Y-102116592D02*
X93448213Y-102202307D01*
X93448213Y-102202307D02*
X93491071Y-102245164D01*
X93491071Y-102245164D02*
X93576785Y-102288021D01*
X93576785Y-102288021D02*
X93748213Y-102288021D01*
X93748213Y-102288021D02*
X93833928Y-102330878D01*
X93833928Y-102330878D02*
X93876785Y-102373735D01*
X93876785Y-102373735D02*
X93919642Y-102459450D01*
X93919642Y-102459450D02*
X93919642Y-102630878D01*
X93919642Y-102630878D02*
X93876785Y-102716592D01*
X93876785Y-102716592D02*
X93833928Y-102759450D01*
X93833928Y-102759450D02*
X93748213Y-102802307D01*
X93748213Y-102802307D02*
X93576785Y-102802307D01*
X93576785Y-102802307D02*
X93491071Y-102759450D01*
X93491071Y-102759450D02*
X93448213Y-102716592D01*
X93448213Y-102716592D02*
X93405356Y-102630878D01*
X93405356Y-102630878D02*
X93405356Y-102459450D01*
X93405356Y-102459450D02*
X93448213Y-102373735D01*
X93448213Y-102373735D02*
X93491071Y-102330878D01*
X93491071Y-102330878D02*
X93576785Y-102288021D01*
X93405356Y-117883557D02*
X93919642Y-117883557D01*
X93662499Y-117883557D02*
X93662499Y-116983557D01*
X93662499Y-116983557D02*
X93748213Y-117112128D01*
X93748213Y-117112128D02*
X93833928Y-117197842D01*
X93833928Y-117197842D02*
X93919642Y-117240700D01*
X128114285Y-98813021D02*
X128071428Y-98770164D01*
X128071428Y-98770164D02*
X127985714Y-98727307D01*
X127985714Y-98727307D02*
X127771428Y-98727307D01*
X127771428Y-98727307D02*
X127685714Y-98770164D01*
X127685714Y-98770164D02*
X127642856Y-98813021D01*
X127642856Y-98813021D02*
X127599999Y-98898735D01*
X127599999Y-98898735D02*
X127599999Y-98984450D01*
X127599999Y-98984450D02*
X127642856Y-99113021D01*
X127642856Y-99113021D02*
X128157142Y-99627307D01*
X128157142Y-99627307D02*
X127599999Y-99627307D01*
X127299999Y-98727307D02*
X126699999Y-98727307D01*
X126699999Y-98727307D02*
X127085713Y-99627307D01*
X125928570Y-98727307D02*
X126357142Y-98727307D01*
X126357142Y-98727307D02*
X126399999Y-99155878D01*
X126399999Y-99155878D02*
X126357142Y-99113021D01*
X126357142Y-99113021D02*
X126271428Y-99070164D01*
X126271428Y-99070164D02*
X126057142Y-99070164D01*
X126057142Y-99070164D02*
X125971428Y-99113021D01*
X125971428Y-99113021D02*
X125928570Y-99155878D01*
X125928570Y-99155878D02*
X125885713Y-99241592D01*
X125885713Y-99241592D02*
X125885713Y-99455878D01*
X125885713Y-99455878D02*
X125928570Y-99541592D01*
X125928570Y-99541592D02*
X125971428Y-99584450D01*
X125971428Y-99584450D02*
X126057142Y-99627307D01*
X126057142Y-99627307D02*
X126271428Y-99627307D01*
X126271428Y-99627307D02*
X126357142Y-99584450D01*
X126357142Y-99584450D02*
X126399999Y-99541592D01*
X201075892Y-98813021D02*
X201033035Y-98770164D01*
X201033035Y-98770164D02*
X200947321Y-98727307D01*
X200947321Y-98727307D02*
X200733035Y-98727307D01*
X200733035Y-98727307D02*
X200647321Y-98770164D01*
X200647321Y-98770164D02*
X200604463Y-98813021D01*
X200604463Y-98813021D02*
X200561606Y-98898735D01*
X200561606Y-98898735D02*
X200561606Y-98984450D01*
X200561606Y-98984450D02*
X200604463Y-99113021D01*
X200604463Y-99113021D02*
X201118749Y-99627307D01*
X201118749Y-99627307D02*
X200561606Y-99627307D01*
X222849999Y-117883557D02*
X223364285Y-117883557D01*
X223107142Y-117883557D02*
X223107142Y-116983557D01*
X223107142Y-116983557D02*
X223192856Y-117112128D01*
X223192856Y-117112128D02*
X223278571Y-117197842D01*
X223278571Y-117197842D02*
X223364285Y-117240700D01*
X222035713Y-116983557D02*
X222464285Y-116983557D01*
X222464285Y-116983557D02*
X222507142Y-117412128D01*
X222507142Y-117412128D02*
X222464285Y-117369271D01*
X222464285Y-117369271D02*
X222378571Y-117326414D01*
X222378571Y-117326414D02*
X222164285Y-117326414D01*
X222164285Y-117326414D02*
X222078571Y-117369271D01*
X222078571Y-117369271D02*
X222035713Y-117412128D01*
X222035713Y-117412128D02*
X221992856Y-117497842D01*
X221992856Y-117497842D02*
X221992856Y-117712128D01*
X221992856Y-117712128D02*
X222035713Y-117797842D01*
X222035713Y-117797842D02*
X222078571Y-117840700D01*
X222078571Y-117840700D02*
X222164285Y-117883557D01*
X222164285Y-117883557D02*
X222378571Y-117883557D01*
X222378571Y-117883557D02*
X222464285Y-117840700D01*
X222464285Y-117840700D02*
X222507142Y-117797842D01*
X221435713Y-116983557D02*
X221349999Y-116983557D01*
X221349999Y-116983557D02*
X221264285Y-117026414D01*
X221264285Y-117026414D02*
X221221428Y-117069271D01*
X221221428Y-117069271D02*
X221178570Y-117154985D01*
X221178570Y-117154985D02*
X221135713Y-117326414D01*
X221135713Y-117326414D02*
X221135713Y-117540700D01*
X221135713Y-117540700D02*
X221178570Y-117712128D01*
X221178570Y-117712128D02*
X221221428Y-117797842D01*
X221221428Y-117797842D02*
X221264285Y-117840700D01*
X221264285Y-117840700D02*
X221349999Y-117883557D01*
X221349999Y-117883557D02*
X221435713Y-117883557D01*
X221435713Y-117883557D02*
X221521428Y-117840700D01*
X221521428Y-117840700D02*
X221564285Y-117797842D01*
X221564285Y-117797842D02*
X221607142Y-117712128D01*
X221607142Y-117712128D02*
X221649999Y-117540700D01*
X221649999Y-117540700D02*
X221649999Y-117326414D01*
X221649999Y-117326414D02*
X221607142Y-117154985D01*
X221607142Y-117154985D02*
X221564285Y-117069271D01*
X221564285Y-117069271D02*
X221521428Y-117026414D01*
X221521428Y-117026414D02*
X221435713Y-116983557D01*
X112932798Y-101973888D02*
X113104226Y-101973888D01*
X113104226Y-101973888D02*
X113189940Y-102016745D01*
X113189940Y-102016745D02*
X113232798Y-102059602D01*
X113232798Y-102059602D02*
X113318512Y-102188173D01*
X113318512Y-102188173D02*
X113361369Y-102359602D01*
X113361369Y-102359602D02*
X113361369Y-102702459D01*
X113361369Y-102702459D02*
X113318512Y-102788173D01*
X113318512Y-102788173D02*
X113275655Y-102831031D01*
X113275655Y-102831031D02*
X113189940Y-102873888D01*
X113189940Y-102873888D02*
X113018512Y-102873888D01*
X113018512Y-102873888D02*
X112932798Y-102831031D01*
X112932798Y-102831031D02*
X112889940Y-102788173D01*
X112889940Y-102788173D02*
X112847083Y-102702459D01*
X112847083Y-102702459D02*
X112847083Y-102488173D01*
X112847083Y-102488173D02*
X112889940Y-102402459D01*
X112889940Y-102402459D02*
X112932798Y-102359602D01*
X112932798Y-102359602D02*
X113018512Y-102316745D01*
X113018512Y-102316745D02*
X113189940Y-102316745D01*
X113189940Y-102316745D02*
X113275655Y-102359602D01*
X113275655Y-102359602D02*
X113318512Y-102402459D01*
X113318512Y-102402459D02*
X113361369Y-102488173D01*
X175739285Y-98813021D02*
X175696428Y-98770164D01*
X175696428Y-98770164D02*
X175610714Y-98727307D01*
X175610714Y-98727307D02*
X175396428Y-98727307D01*
X175396428Y-98727307D02*
X175310714Y-98770164D01*
X175310714Y-98770164D02*
X175267856Y-98813021D01*
X175267856Y-98813021D02*
X175224999Y-98898735D01*
X175224999Y-98898735D02*
X175224999Y-98984450D01*
X175224999Y-98984450D02*
X175267856Y-99113021D01*
X175267856Y-99113021D02*
X175782142Y-99627307D01*
X175782142Y-99627307D02*
X175224999Y-99627307D01*
X174882142Y-98813021D02*
X174839285Y-98770164D01*
X174839285Y-98770164D02*
X174753571Y-98727307D01*
X174753571Y-98727307D02*
X174539285Y-98727307D01*
X174539285Y-98727307D02*
X174453571Y-98770164D01*
X174453571Y-98770164D02*
X174410713Y-98813021D01*
X174410713Y-98813021D02*
X174367856Y-98898735D01*
X174367856Y-98898735D02*
X174367856Y-98984450D01*
X174367856Y-98984450D02*
X174410713Y-99113021D01*
X174410713Y-99113021D02*
X174924999Y-99627307D01*
X174924999Y-99627307D02*
X174367856Y-99627307D01*
X173553570Y-98727307D02*
X173982142Y-98727307D01*
X173982142Y-98727307D02*
X174024999Y-99155878D01*
X174024999Y-99155878D02*
X173982142Y-99113021D01*
X173982142Y-99113021D02*
X173896428Y-99070164D01*
X173896428Y-99070164D02*
X173682142Y-99070164D01*
X173682142Y-99070164D02*
X173596428Y-99113021D01*
X173596428Y-99113021D02*
X173553570Y-99155878D01*
X173553570Y-99155878D02*
X173510713Y-99241592D01*
X173510713Y-99241592D02*
X173510713Y-99455878D01*
X173510713Y-99455878D02*
X173553570Y-99541592D01*
X173553570Y-99541592D02*
X173596428Y-99584450D01*
X173596428Y-99584450D02*
X173682142Y-99627307D01*
X173682142Y-99627307D02*
X173896428Y-99627307D01*
X173896428Y-99627307D02*
X173982142Y-99584450D01*
X173982142Y-99584450D02*
X174024999Y-99541592D01*
X160170279Y-120484852D02*
X160170279Y-121084852D01*
X160384564Y-120141995D02*
X160598850Y-120784852D01*
X160598850Y-120784852D02*
X160041707Y-120784852D01*
X136244642Y-99584450D02*
X136158928Y-99627307D01*
X136158928Y-99627307D02*
X135987499Y-99627307D01*
X135987499Y-99627307D02*
X135901785Y-99584450D01*
X135901785Y-99584450D02*
X135858928Y-99498735D01*
X135858928Y-99498735D02*
X135858928Y-99455878D01*
X135858928Y-99455878D02*
X135901785Y-99370164D01*
X135901785Y-99370164D02*
X135987499Y-99327307D01*
X135987499Y-99327307D02*
X136116071Y-99327307D01*
X136116071Y-99327307D02*
X136201785Y-99284450D01*
X136201785Y-99284450D02*
X136244642Y-99198735D01*
X136244642Y-99198735D02*
X136244642Y-99155878D01*
X136244642Y-99155878D02*
X136201785Y-99070164D01*
X136201785Y-99070164D02*
X136116071Y-99027307D01*
X136116071Y-99027307D02*
X135987499Y-99027307D01*
X135987499Y-99027307D02*
X135901785Y-99070164D01*
X135473214Y-99027307D02*
X135473214Y-99927307D01*
X135473214Y-99070164D02*
X135387500Y-99027307D01*
X135387500Y-99027307D02*
X135216071Y-99027307D01*
X135216071Y-99027307D02*
X135130357Y-99070164D01*
X135130357Y-99070164D02*
X135087500Y-99113021D01*
X135087500Y-99113021D02*
X135044642Y-99198735D01*
X135044642Y-99198735D02*
X135044642Y-99455878D01*
X135044642Y-99455878D02*
X135087500Y-99541592D01*
X135087500Y-99541592D02*
X135130357Y-99584450D01*
X135130357Y-99584450D02*
X135216071Y-99627307D01*
X135216071Y-99627307D02*
X135387500Y-99627307D01*
X135387500Y-99627307D02*
X135473214Y-99584450D01*
X134530356Y-99627307D02*
X134616071Y-99584450D01*
X134616071Y-99584450D02*
X134658928Y-99498735D01*
X134658928Y-99498735D02*
X134658928Y-98727307D01*
X134187499Y-99627307D02*
X134187499Y-99027307D01*
X134187499Y-98727307D02*
X134230356Y-98770164D01*
X134230356Y-98770164D02*
X134187499Y-98813021D01*
X134187499Y-98813021D02*
X134144642Y-98770164D01*
X134144642Y-98770164D02*
X134187499Y-98727307D01*
X134187499Y-98727307D02*
X134187499Y-98813021D01*
X133887499Y-99027307D02*
X133544642Y-99027307D01*
X133758928Y-98727307D02*
X133758928Y-99498735D01*
X133758928Y-99498735D02*
X133716071Y-99584450D01*
X133716071Y-99584450D02*
X133630356Y-99627307D01*
X133630356Y-99627307D02*
X133544642Y-99627307D01*
X160443962Y-117369271D02*
X160529677Y-117326414D01*
X160529677Y-117326414D02*
X160572534Y-117283557D01*
X160572534Y-117283557D02*
X160615391Y-117197842D01*
X160615391Y-117197842D02*
X160615391Y-117154985D01*
X160615391Y-117154985D02*
X160572534Y-117069271D01*
X160572534Y-117069271D02*
X160529677Y-117026414D01*
X160529677Y-117026414D02*
X160443962Y-116983557D01*
X160443962Y-116983557D02*
X160272534Y-116983557D01*
X160272534Y-116983557D02*
X160186820Y-117026414D01*
X160186820Y-117026414D02*
X160143962Y-117069271D01*
X160143962Y-117069271D02*
X160101105Y-117154985D01*
X160101105Y-117154985D02*
X160101105Y-117197842D01*
X160101105Y-117197842D02*
X160143962Y-117283557D01*
X160143962Y-117283557D02*
X160186820Y-117326414D01*
X160186820Y-117326414D02*
X160272534Y-117369271D01*
X160272534Y-117369271D02*
X160443962Y-117369271D01*
X160443962Y-117369271D02*
X160529677Y-117412128D01*
X160529677Y-117412128D02*
X160572534Y-117454985D01*
X160572534Y-117454985D02*
X160615391Y-117540700D01*
X160615391Y-117540700D02*
X160615391Y-117712128D01*
X160615391Y-117712128D02*
X160572534Y-117797842D01*
X160572534Y-117797842D02*
X160529677Y-117840700D01*
X160529677Y-117840700D02*
X160443962Y-117883557D01*
X160443962Y-117883557D02*
X160272534Y-117883557D01*
X160272534Y-117883557D02*
X160186820Y-117840700D01*
X160186820Y-117840700D02*
X160143962Y-117797842D01*
X160143962Y-117797842D02*
X160101105Y-117712128D01*
X160101105Y-117712128D02*
X160101105Y-117540700D01*
X160101105Y-117540700D02*
X160143962Y-117454985D01*
X160143962Y-117454985D02*
X160186820Y-117412128D01*
X160186820Y-117412128D02*
X160272534Y-117369271D01*
X189169642Y-118327290D02*
X189126785Y-118284433D01*
X189126785Y-118284433D02*
X189041071Y-118241576D01*
X189041071Y-118241576D02*
X188826785Y-118241576D01*
X188826785Y-118241576D02*
X188741071Y-118284433D01*
X188741071Y-118284433D02*
X188698213Y-118327290D01*
X188698213Y-118327290D02*
X188655356Y-118413004D01*
X188655356Y-118413004D02*
X188655356Y-118498719D01*
X188655356Y-118498719D02*
X188698213Y-118627290D01*
X188698213Y-118627290D02*
X189212499Y-119141576D01*
X189212499Y-119141576D02*
X188655356Y-119141576D01*
X161837501Y-102759450D02*
X161923215Y-102802307D01*
X161923215Y-102802307D02*
X162094643Y-102802307D01*
X162094643Y-102802307D02*
X162180358Y-102759450D01*
X162180358Y-102759450D02*
X162223215Y-102716592D01*
X162223215Y-102716592D02*
X162266072Y-102630878D01*
X162266072Y-102630878D02*
X162266072Y-102373735D01*
X162266072Y-102373735D02*
X162223215Y-102288021D01*
X162223215Y-102288021D02*
X162180358Y-102245164D01*
X162180358Y-102245164D02*
X162094643Y-102202307D01*
X162094643Y-102202307D02*
X161923215Y-102202307D01*
X161923215Y-102202307D02*
X161837501Y-102245164D01*
X161108929Y-102759450D02*
X161194643Y-102802307D01*
X161194643Y-102802307D02*
X161366072Y-102802307D01*
X161366072Y-102802307D02*
X161451786Y-102759450D01*
X161451786Y-102759450D02*
X161494643Y-102673735D01*
X161494643Y-102673735D02*
X161494643Y-102330878D01*
X161494643Y-102330878D02*
X161451786Y-102245164D01*
X161451786Y-102245164D02*
X161366072Y-102202307D01*
X161366072Y-102202307D02*
X161194643Y-102202307D01*
X161194643Y-102202307D02*
X161108929Y-102245164D01*
X161108929Y-102245164D02*
X161066072Y-102330878D01*
X161066072Y-102330878D02*
X161066072Y-102416592D01*
X161066072Y-102416592D02*
X161494643Y-102502307D01*
X160680357Y-102202307D02*
X160680357Y-102802307D01*
X160680357Y-102288021D02*
X160637500Y-102245164D01*
X160637500Y-102245164D02*
X160551785Y-102202307D01*
X160551785Y-102202307D02*
X160423214Y-102202307D01*
X160423214Y-102202307D02*
X160337500Y-102245164D01*
X160337500Y-102245164D02*
X160294643Y-102330878D01*
X160294643Y-102330878D02*
X160294643Y-102802307D01*
X159994642Y-102202307D02*
X159651785Y-102202307D01*
X159866071Y-101902307D02*
X159866071Y-102673735D01*
X159866071Y-102673735D02*
X159823214Y-102759450D01*
X159823214Y-102759450D02*
X159737499Y-102802307D01*
X159737499Y-102802307D02*
X159651785Y-102802307D01*
X159351785Y-102802307D02*
X159351785Y-102202307D01*
X159351785Y-102373735D02*
X159308928Y-102288021D01*
X159308928Y-102288021D02*
X159266071Y-102245164D01*
X159266071Y-102245164D02*
X159180356Y-102202307D01*
X159180356Y-102202307D02*
X159094642Y-102202307D01*
X158451785Y-102759450D02*
X158537499Y-102802307D01*
X158537499Y-102802307D02*
X158708928Y-102802307D01*
X158708928Y-102802307D02*
X158794642Y-102759450D01*
X158794642Y-102759450D02*
X158837499Y-102673735D01*
X158837499Y-102673735D02*
X158837499Y-102330878D01*
X158837499Y-102330878D02*
X158794642Y-102245164D01*
X158794642Y-102245164D02*
X158708928Y-102202307D01*
X158708928Y-102202307D02*
X158537499Y-102202307D01*
X158537499Y-102202307D02*
X158451785Y-102245164D01*
X158451785Y-102245164D02*
X158408928Y-102330878D01*
X158408928Y-102330878D02*
X158408928Y-102416592D01*
X158408928Y-102416592D02*
X158837499Y-102502307D01*
X153514285Y-98813021D02*
X153471428Y-98770164D01*
X153471428Y-98770164D02*
X153385714Y-98727307D01*
X153385714Y-98727307D02*
X153171428Y-98727307D01*
X153171428Y-98727307D02*
X153085714Y-98770164D01*
X153085714Y-98770164D02*
X153042856Y-98813021D01*
X153042856Y-98813021D02*
X152999999Y-98898735D01*
X152999999Y-98898735D02*
X152999999Y-98984450D01*
X152999999Y-98984450D02*
X153042856Y-99113021D01*
X153042856Y-99113021D02*
X153557142Y-99627307D01*
X153557142Y-99627307D02*
X152999999Y-99627307D01*
X152699999Y-98727307D02*
X152099999Y-98727307D01*
X152099999Y-98727307D02*
X152485713Y-99627307D01*
X151328570Y-98727307D02*
X151757142Y-98727307D01*
X151757142Y-98727307D02*
X151799999Y-99155878D01*
X151799999Y-99155878D02*
X151757142Y-99113021D01*
X151757142Y-99113021D02*
X151671428Y-99070164D01*
X151671428Y-99070164D02*
X151457142Y-99070164D01*
X151457142Y-99070164D02*
X151371428Y-99113021D01*
X151371428Y-99113021D02*
X151328570Y-99155878D01*
X151328570Y-99155878D02*
X151285713Y-99241592D01*
X151285713Y-99241592D02*
X151285713Y-99455878D01*
X151285713Y-99455878D02*
X151328570Y-99541592D01*
X151328570Y-99541592D02*
X151371428Y-99584450D01*
X151371428Y-99584450D02*
X151457142Y-99627307D01*
X151457142Y-99627307D02*
X151671428Y-99627307D01*
X151671428Y-99627307D02*
X151757142Y-99584450D01*
X151757142Y-99584450D02*
X151799999Y-99541592D01*
X132062499Y-116983557D02*
X131505356Y-116983557D01*
X131505356Y-116983557D02*
X131805356Y-117326414D01*
X131805356Y-117326414D02*
X131676785Y-117326414D01*
X131676785Y-117326414D02*
X131591071Y-117369271D01*
X131591071Y-117369271D02*
X131548213Y-117412128D01*
X131548213Y-117412128D02*
X131505356Y-117497842D01*
X131505356Y-117497842D02*
X131505356Y-117712128D01*
X131505356Y-117712128D02*
X131548213Y-117797842D01*
X131548213Y-117797842D02*
X131591071Y-117840700D01*
X131591071Y-117840700D02*
X131676785Y-117883557D01*
X131676785Y-117883557D02*
X131933928Y-117883557D01*
X131933928Y-117883557D02*
X132019642Y-117840700D01*
X132019642Y-117840700D02*
X132062499Y-117797842D01*
X64004589Y-121265950D02*
X63909351Y-121313569D01*
X63909351Y-121313569D02*
X63718875Y-121313569D01*
X63718875Y-121313569D02*
X63623637Y-121265950D01*
X63623637Y-121265950D02*
X63576018Y-121170711D01*
X63576018Y-121170711D02*
X63576018Y-121123092D01*
X63576018Y-121123092D02*
X63623637Y-121027854D01*
X63623637Y-121027854D02*
X63718875Y-120980235D01*
X63718875Y-120980235D02*
X63861732Y-120980235D01*
X63861732Y-120980235D02*
X63956970Y-120932616D01*
X63956970Y-120932616D02*
X64004589Y-120837378D01*
X64004589Y-120837378D02*
X64004589Y-120789759D01*
X64004589Y-120789759D02*
X63956970Y-120694521D01*
X63956970Y-120694521D02*
X63861732Y-120646902D01*
X63861732Y-120646902D02*
X63718875Y-120646902D01*
X63718875Y-120646902D02*
X63623637Y-120694521D01*
X63290303Y-120646902D02*
X62909351Y-120646902D01*
X63147446Y-120313569D02*
X63147446Y-121170711D01*
X63147446Y-121170711D02*
X63099827Y-121265950D01*
X63099827Y-121265950D02*
X63004589Y-121313569D01*
X63004589Y-121313569D02*
X62909351Y-121313569D01*
X62147446Y-121313569D02*
X62147446Y-120789759D01*
X62147446Y-120789759D02*
X62195065Y-120694521D01*
X62195065Y-120694521D02*
X62290303Y-120646902D01*
X62290303Y-120646902D02*
X62480779Y-120646902D01*
X62480779Y-120646902D02*
X62576017Y-120694521D01*
X62147446Y-121265950D02*
X62242684Y-121313569D01*
X62242684Y-121313569D02*
X62480779Y-121313569D01*
X62480779Y-121313569D02*
X62576017Y-121265950D01*
X62576017Y-121265950D02*
X62623636Y-121170711D01*
X62623636Y-121170711D02*
X62623636Y-121075473D01*
X62623636Y-121075473D02*
X62576017Y-120980235D01*
X62576017Y-120980235D02*
X62480779Y-120932616D01*
X62480779Y-120932616D02*
X62242684Y-120932616D01*
X62242684Y-120932616D02*
X62147446Y-120884997D01*
X61242684Y-120646902D02*
X61242684Y-121456426D01*
X61242684Y-121456426D02*
X61290303Y-121551664D01*
X61290303Y-121551664D02*
X61337922Y-121599283D01*
X61337922Y-121599283D02*
X61433160Y-121646902D01*
X61433160Y-121646902D02*
X61576017Y-121646902D01*
X61576017Y-121646902D02*
X61671255Y-121599283D01*
X61242684Y-121265950D02*
X61337922Y-121313569D01*
X61337922Y-121313569D02*
X61528398Y-121313569D01*
X61528398Y-121313569D02*
X61623636Y-121265950D01*
X61623636Y-121265950D02*
X61671255Y-121218330D01*
X61671255Y-121218330D02*
X61718874Y-121123092D01*
X61718874Y-121123092D02*
X61718874Y-120837378D01*
X61718874Y-120837378D02*
X61671255Y-120742140D01*
X61671255Y-120742140D02*
X61623636Y-120694521D01*
X61623636Y-120694521D02*
X61528398Y-120646902D01*
X61528398Y-120646902D02*
X61337922Y-120646902D01*
X61337922Y-120646902D02*
X61242684Y-120694521D01*
X60337922Y-120646902D02*
X60337922Y-121456426D01*
X60337922Y-121456426D02*
X60385541Y-121551664D01*
X60385541Y-121551664D02*
X60433160Y-121599283D01*
X60433160Y-121599283D02*
X60528398Y-121646902D01*
X60528398Y-121646902D02*
X60671255Y-121646902D01*
X60671255Y-121646902D02*
X60766493Y-121599283D01*
X60337922Y-121265950D02*
X60433160Y-121313569D01*
X60433160Y-121313569D02*
X60623636Y-121313569D01*
X60623636Y-121313569D02*
X60718874Y-121265950D01*
X60718874Y-121265950D02*
X60766493Y-121218330D01*
X60766493Y-121218330D02*
X60814112Y-121123092D01*
X60814112Y-121123092D02*
X60814112Y-120837378D01*
X60814112Y-120837378D02*
X60766493Y-120742140D01*
X60766493Y-120742140D02*
X60718874Y-120694521D01*
X60718874Y-120694521D02*
X60623636Y-120646902D01*
X60623636Y-120646902D02*
X60433160Y-120646902D01*
X60433160Y-120646902D02*
X60337922Y-120694521D01*
X59480779Y-121265950D02*
X59576017Y-121313569D01*
X59576017Y-121313569D02*
X59766493Y-121313569D01*
X59766493Y-121313569D02*
X59861731Y-121265950D01*
X59861731Y-121265950D02*
X59909350Y-121170711D01*
X59909350Y-121170711D02*
X59909350Y-120789759D01*
X59909350Y-120789759D02*
X59861731Y-120694521D01*
X59861731Y-120694521D02*
X59766493Y-120646902D01*
X59766493Y-120646902D02*
X59576017Y-120646902D01*
X59576017Y-120646902D02*
X59480779Y-120694521D01*
X59480779Y-120694521D02*
X59433160Y-120789759D01*
X59433160Y-120789759D02*
X59433160Y-120884997D01*
X59433160Y-120884997D02*
X59909350Y-120980235D01*
X59004588Y-121313569D02*
X59004588Y-120646902D01*
X59004588Y-120837378D02*
X58956969Y-120742140D01*
X58956969Y-120742140D02*
X58909350Y-120694521D01*
X58909350Y-120694521D02*
X58814112Y-120646902D01*
X58814112Y-120646902D02*
X58718874Y-120646902D01*
X140020535Y-117069271D02*
X139977678Y-117026414D01*
X139977678Y-117026414D02*
X139891964Y-116983557D01*
X139891964Y-116983557D02*
X139677678Y-116983557D01*
X139677678Y-116983557D02*
X139591964Y-117026414D01*
X139591964Y-117026414D02*
X139549106Y-117069271D01*
X139549106Y-117069271D02*
X139506249Y-117154985D01*
X139506249Y-117154985D02*
X139506249Y-117240700D01*
X139506249Y-117240700D02*
X139549106Y-117369271D01*
X139549106Y-117369271D02*
X140063392Y-117883557D01*
X140063392Y-117883557D02*
X139506249Y-117883557D01*
X139206249Y-116983557D02*
X138606249Y-116983557D01*
X138606249Y-116983557D02*
X138991963Y-117883557D01*
X137834820Y-116983557D02*
X138263392Y-116983557D01*
X138263392Y-116983557D02*
X138306249Y-117412128D01*
X138306249Y-117412128D02*
X138263392Y-117369271D01*
X138263392Y-117369271D02*
X138177678Y-117326414D01*
X138177678Y-117326414D02*
X137963392Y-117326414D01*
X137963392Y-117326414D02*
X137877678Y-117369271D01*
X137877678Y-117369271D02*
X137834820Y-117412128D01*
X137834820Y-117412128D02*
X137791963Y-117497842D01*
X137791963Y-117497842D02*
X137791963Y-117712128D01*
X137791963Y-117712128D02*
X137834820Y-117797842D01*
X137834820Y-117797842D02*
X137877678Y-117840700D01*
X137877678Y-117840700D02*
X137963392Y-117883557D01*
X137963392Y-117883557D02*
X138177678Y-117883557D01*
X138177678Y-117883557D02*
X138263392Y-117840700D01*
X138263392Y-117840700D02*
X138306249Y-117797842D01*
X177263392Y-98813021D02*
X177220535Y-98770164D01*
X177220535Y-98770164D02*
X177134821Y-98727307D01*
X177134821Y-98727307D02*
X176920535Y-98727307D01*
X176920535Y-98727307D02*
X176834821Y-98770164D01*
X176834821Y-98770164D02*
X176791963Y-98813021D01*
X176791963Y-98813021D02*
X176749106Y-98898735D01*
X176749106Y-98898735D02*
X176749106Y-98984450D01*
X176749106Y-98984450D02*
X176791963Y-99113021D01*
X176791963Y-99113021D02*
X177306249Y-99627307D01*
X177306249Y-99627307D02*
X176749106Y-99627307D01*
X112610476Y-101973888D02*
X112010476Y-101973888D01*
X112010476Y-101973888D02*
X112396190Y-102873888D01*
X226918264Y-101932923D02*
X226318264Y-101932923D01*
X226318264Y-101932923D02*
X226703978Y-102832923D01*
X227497728Y-102318637D02*
X227583443Y-102275780D01*
X227583443Y-102275780D02*
X227626300Y-102232923D01*
X227626300Y-102232923D02*
X227669157Y-102147208D01*
X227669157Y-102147208D02*
X227669157Y-102104351D01*
X227669157Y-102104351D02*
X227626300Y-102018637D01*
X227626300Y-102018637D02*
X227583443Y-101975780D01*
X227583443Y-101975780D02*
X227497728Y-101932923D01*
X227497728Y-101932923D02*
X227326300Y-101932923D01*
X227326300Y-101932923D02*
X227240586Y-101975780D01*
X227240586Y-101975780D02*
X227197728Y-102018637D01*
X227197728Y-102018637D02*
X227154871Y-102104351D01*
X227154871Y-102104351D02*
X227154871Y-102147208D01*
X227154871Y-102147208D02*
X227197728Y-102232923D01*
X227197728Y-102232923D02*
X227240586Y-102275780D01*
X227240586Y-102275780D02*
X227326300Y-102318637D01*
X227326300Y-102318637D02*
X227497728Y-102318637D01*
X227497728Y-102318637D02*
X227583443Y-102361494D01*
X227583443Y-102361494D02*
X227626300Y-102404351D01*
X227626300Y-102404351D02*
X227669157Y-102490066D01*
X227669157Y-102490066D02*
X227669157Y-102661494D01*
X227669157Y-102661494D02*
X227626300Y-102747208D01*
X227626300Y-102747208D02*
X227583443Y-102790066D01*
X227583443Y-102790066D02*
X227497728Y-102832923D01*
X227497728Y-102832923D02*
X227326300Y-102832923D01*
X227326300Y-102832923D02*
X227240586Y-102790066D01*
X227240586Y-102790066D02*
X227197728Y-102747208D01*
X227197728Y-102747208D02*
X227154871Y-102661494D01*
X227154871Y-102661494D02*
X227154871Y-102490066D01*
X227154871Y-102490066D02*
X227197728Y-102404351D01*
X227197728Y-102404351D02*
X227240586Y-102361494D01*
X227240586Y-102361494D02*
X227326300Y-102318637D01*
X188741071Y-102202307D02*
X188741071Y-102802307D01*
X188955356Y-101859450D02*
X189169642Y-102502307D01*
X189169642Y-102502307D02*
X188612499Y-102502307D01*
X207791071Y-101902307D02*
X207962499Y-101902307D01*
X207962499Y-101902307D02*
X208048213Y-101945164D01*
X208048213Y-101945164D02*
X208091071Y-101988021D01*
X208091071Y-101988021D02*
X208176785Y-102116592D01*
X208176785Y-102116592D02*
X208219642Y-102288021D01*
X208219642Y-102288021D02*
X208219642Y-102630878D01*
X208219642Y-102630878D02*
X208176785Y-102716592D01*
X208176785Y-102716592D02*
X208133928Y-102759450D01*
X208133928Y-102759450D02*
X208048213Y-102802307D01*
X208048213Y-102802307D02*
X207876785Y-102802307D01*
X207876785Y-102802307D02*
X207791071Y-102759450D01*
X207791071Y-102759450D02*
X207748213Y-102716592D01*
X207748213Y-102716592D02*
X207705356Y-102630878D01*
X207705356Y-102630878D02*
X207705356Y-102416592D01*
X207705356Y-102416592D02*
X207748213Y-102330878D01*
X207748213Y-102330878D02*
X207791071Y-102288021D01*
X207791071Y-102288021D02*
X207876785Y-102245164D01*
X207876785Y-102245164D02*
X208048213Y-102245164D01*
X208048213Y-102245164D02*
X208133928Y-102288021D01*
X208133928Y-102288021D02*
X208176785Y-102330878D01*
X208176785Y-102330878D02*
X208219642Y-102416592D01*
X170162499Y-98727307D02*
X169605356Y-98727307D01*
X169605356Y-98727307D02*
X169905356Y-99070164D01*
X169905356Y-99070164D02*
X169776785Y-99070164D01*
X169776785Y-99070164D02*
X169691071Y-99113021D01*
X169691071Y-99113021D02*
X169648213Y-99155878D01*
X169648213Y-99155878D02*
X169605356Y-99241592D01*
X169605356Y-99241592D02*
X169605356Y-99455878D01*
X169605356Y-99455878D02*
X169648213Y-99541592D01*
X169648213Y-99541592D02*
X169691071Y-99584450D01*
X169691071Y-99584450D02*
X169776785Y-99627307D01*
X169776785Y-99627307D02*
X170033928Y-99627307D01*
X170033928Y-99627307D02*
X170119642Y-99584450D01*
X170119642Y-99584450D02*
X170162499Y-99541592D01*
X120113392Y-98813021D02*
X120070535Y-98770164D01*
X120070535Y-98770164D02*
X119984821Y-98727307D01*
X119984821Y-98727307D02*
X119770535Y-98727307D01*
X119770535Y-98727307D02*
X119684821Y-98770164D01*
X119684821Y-98770164D02*
X119641963Y-98813021D01*
X119641963Y-98813021D02*
X119599106Y-98898735D01*
X119599106Y-98898735D02*
X119599106Y-98984450D01*
X119599106Y-98984450D02*
X119641963Y-99113021D01*
X119641963Y-99113021D02*
X120156249Y-99627307D01*
X120156249Y-99627307D02*
X119599106Y-99627307D01*
D10*
%TO.C,D23*%
X219662500Y-74441250D02*
X219662500Y-70581250D01*
X221662500Y-74441250D02*
X219662500Y-74441250D01*
X221662500Y-74441250D02*
X221662500Y-70581250D01*
%TO.C,U1*%
X273408750Y-83910000D02*
X273858750Y-83910000D01*
X280178750Y-83910000D02*
X280178750Y-85200000D01*
X280628750Y-83910000D02*
X280178750Y-83910000D01*
X273408750Y-83460000D02*
X273408750Y-83910000D01*
X280628750Y-83460000D02*
X280628750Y-83910000D01*
X273408750Y-77140000D02*
X273408750Y-76690000D01*
X280628750Y-77140000D02*
X280628750Y-76690000D01*
X273408750Y-76690000D02*
X273858750Y-76690000D01*
X280628750Y-76690000D02*
X280178750Y-76690000D01*
%TO.C,C3*%
X271590336Y-76560000D02*
X271374664Y-76560000D01*
X271590336Y-75840000D02*
X271374664Y-75840000D01*
%TO.C,D29*%
X95837500Y-93491250D02*
X95837500Y-89631250D01*
X97837500Y-93491250D02*
X95837500Y-93491250D01*
X97837500Y-93491250D02*
X97837500Y-89631250D01*
%TO.C,D5*%
X138700000Y-55391250D02*
X138700000Y-51531250D01*
X140700000Y-55391250D02*
X138700000Y-55391250D01*
X140700000Y-55391250D02*
X140700000Y-51531250D01*
%TO.C,C7*%
X277125057Y-87650623D02*
X277125057Y-87866295D01*
X276405057Y-87650623D02*
X276405057Y-87866295D01*
%TO.C,D32*%
X152987500Y-93491250D02*
X152987500Y-89631250D01*
X154987500Y-93491250D02*
X152987500Y-93491250D01*
X154987500Y-93491250D02*
X154987500Y-89631250D01*
%TO.C,D1*%
X62500000Y-55391250D02*
X62500000Y-51531250D01*
X64500000Y-55391250D02*
X62500000Y-55391250D01*
X64500000Y-55391250D02*
X64500000Y-51531250D01*
%TO.C,D4*%
X119650000Y-55391250D02*
X119650000Y-51531250D01*
X121650000Y-55391250D02*
X119650000Y-55391250D01*
X121650000Y-55391250D02*
X121650000Y-51531250D01*
%TO.C,D15*%
X64881250Y-74441250D02*
X64881250Y-70581250D01*
X66881250Y-74441250D02*
X64881250Y-74441250D01*
X66881250Y-74441250D02*
X66881250Y-70581250D01*
%TO.C,D12*%
X272050000Y-55391250D02*
X272050000Y-51531250D01*
X274050000Y-55391250D02*
X272050000Y-55391250D01*
X274050000Y-55391250D02*
X274050000Y-51531250D01*
%TO.C,D31*%
X133937500Y-93491250D02*
X133937500Y-89631250D01*
X135937500Y-93491250D02*
X133937500Y-93491250D01*
X135937500Y-93491250D02*
X135937500Y-89631250D01*
%TO.C,J1*%
X250110000Y-65022500D02*
X252610000Y-65022500D01*
X252610000Y-65022500D02*
X252610000Y-63972500D01*
X252610000Y-63972500D02*
X253600000Y-63972500D01*
X248140000Y-63852500D02*
X248140000Y-59972500D01*
X250110000Y-58802500D02*
X252610000Y-58802500D01*
X252610000Y-58802500D02*
X252610000Y-59852500D01*
%TO.C,D9*%
X214900000Y-55391250D02*
X214900000Y-51531250D01*
X216900000Y-55391250D02*
X214900000Y-55391250D01*
X216900000Y-55391250D02*
X216900000Y-51531250D01*
%TO.C,D44*%
X172037500Y-117303750D02*
X172037500Y-113443750D01*
X174037500Y-117303750D02*
X172037500Y-117303750D01*
X174037500Y-117303750D02*
X174037500Y-113443750D01*
%TO.C,D7*%
X176800000Y-55391250D02*
X176800000Y-51531250D01*
X178800000Y-55391250D02*
X176800000Y-55391250D01*
X178800000Y-55391250D02*
X178800000Y-51531250D01*
%TO.C,D36*%
X229187500Y-93491250D02*
X229187500Y-89631250D01*
X231187500Y-93491250D02*
X229187500Y-93491250D01*
X231187500Y-93491250D02*
X231187500Y-89631250D01*
%TO.C,D26*%
X295862500Y-74441250D02*
X295862500Y-70581250D01*
X297862500Y-74441250D02*
X295862500Y-74441250D01*
X297862500Y-74441250D02*
X297862500Y-70581250D01*
%TO.C,C9*%
X279617836Y-71797500D02*
X279402164Y-71797500D01*
X279617836Y-71077500D02*
X279402164Y-71077500D01*
%TO.C,D47*%
X253000000Y-117303750D02*
X253000000Y-113443750D01*
X255000000Y-117303750D02*
X253000000Y-117303750D01*
X255000000Y-117303750D02*
X255000000Y-113443750D01*
%TO.C,U2*%
X278633750Y-68912500D02*
X278633750Y-69562500D01*
X278633750Y-68912500D02*
X278633750Y-68262500D01*
X281753750Y-68912500D02*
X281753750Y-70587500D01*
X281753750Y-68912500D02*
X281753750Y-68262500D01*
%TO.C,D17*%
X105362500Y-74441250D02*
X105362500Y-70581250D01*
X107362500Y-74441250D02*
X105362500Y-74441250D01*
X107362500Y-74441250D02*
X107362500Y-70581250D01*
%TO.C,D45*%
X210137500Y-117303750D02*
X210137500Y-113443750D01*
X212137500Y-117303750D02*
X210137500Y-117303750D01*
X212137500Y-117303750D02*
X212137500Y-113443750D01*
%TO.C,D37*%
X248237500Y-93491250D02*
X248237500Y-89631250D01*
X250237500Y-93491250D02*
X248237500Y-93491250D01*
X250237500Y-93491250D02*
X250237500Y-89631250D01*
%TO.C,D43*%
X141081250Y-117303750D02*
X141081250Y-113443750D01*
X143081250Y-117303750D02*
X141081250Y-117303750D01*
X143081250Y-117303750D02*
X143081250Y-113443750D01*
%TO.C,D33*%
X172037500Y-93491250D02*
X172037500Y-89631250D01*
X174037500Y-93491250D02*
X172037500Y-93491250D01*
X174037500Y-93491250D02*
X174037500Y-89631250D01*
%TO.C,C6*%
X281046920Y-73440000D02*
X281328080Y-73440000D01*
X281046920Y-74460000D02*
X281328080Y-74460000D01*
%TO.C,SW6*%
X286882500Y-59777500D02*
X286882500Y-57697500D01*
X285612500Y-61457500D02*
X286102500Y-60967500D01*
X285612500Y-61457500D02*
X282712500Y-61457500D01*
X285612500Y-56017500D02*
X286102500Y-56507500D01*
X285612500Y-56017500D02*
X282712500Y-56017500D01*
X282712500Y-61457500D02*
X282222500Y-60967500D01*
X282712500Y-56017500D02*
X282222500Y-56507500D01*
X281442500Y-59777500D02*
X281442500Y-57697500D01*
%TO.C,D30*%
X114887500Y-93491250D02*
X114887500Y-89631250D01*
X116887500Y-93491250D02*
X114887500Y-93491250D01*
X116887500Y-93491250D02*
X116887500Y-89631250D01*
%TO.C,D20*%
X162512500Y-74441250D02*
X162512500Y-70581250D01*
X164512500Y-74441250D02*
X162512500Y-74441250D01*
X164512500Y-74441250D02*
X164512500Y-70581250D01*
D12*
%TO.C,G\u002A\u002A\u002A*%
G36*
X65873175Y-115808367D02*
G01*
X65873175Y-116079680D01*
X65769818Y-116079680D01*
X65666461Y-116079680D01*
X65666461Y-117462081D01*
X65666461Y-118844481D01*
X65769818Y-118844481D01*
X65873175Y-118844481D01*
X65873175Y-119115794D01*
X65873175Y-119387106D01*
X65213370Y-119387106D01*
X64553565Y-119387106D01*
X64560928Y-119122254D01*
X64568292Y-118857401D01*
X64678109Y-118849456D01*
X64787926Y-118841510D01*
X64787926Y-117460595D01*
X64787926Y-116079680D01*
X64671649Y-116079680D01*
X64555372Y-116079680D01*
X64555372Y-115808367D01*
X64555372Y-115537055D01*
X65214274Y-115537055D01*
X65873175Y-115537055D01*
X65873175Y-115808367D01*
G37*
G36*
X58870734Y-116079680D02*
G01*
X58870734Y-116622304D01*
X58573582Y-116622304D01*
X58276430Y-116622304D01*
X58276430Y-116350992D01*
X58276430Y-116079680D01*
X58185993Y-116079680D01*
X58095556Y-116079680D01*
X58095556Y-117462081D01*
X58095556Y-118844481D01*
X58198913Y-118844481D01*
X58302270Y-118844481D01*
X58302270Y-119115794D01*
X58302270Y-119387106D01*
X57656288Y-119387106D01*
X57010306Y-119387106D01*
X57010306Y-119115794D01*
X57010306Y-118844481D01*
X57113663Y-118844481D01*
X57217021Y-118844481D01*
X57217021Y-117462081D01*
X57217021Y-116079680D01*
X57126583Y-116079680D01*
X57036146Y-116079680D01*
X57036146Y-116350992D01*
X57036146Y-116622304D01*
X56738994Y-116622304D01*
X56441842Y-116622304D01*
X56441842Y-116079680D01*
X56441842Y-115537055D01*
X57656288Y-115537055D01*
X58870734Y-115537055D01*
X58870734Y-116079680D01*
G37*
G36*
X68431263Y-115808367D02*
G01*
X68431263Y-116079680D01*
X68327906Y-116079680D01*
X68224548Y-116079680D01*
X68224548Y-117462081D01*
X68224548Y-118844481D01*
X68327906Y-118844481D01*
X68431263Y-118844481D01*
X68431263Y-119115794D01*
X68431263Y-119387106D01*
X67333094Y-119387106D01*
X66234925Y-119387106D01*
X66234925Y-118844481D01*
X66234925Y-118301857D01*
X66557916Y-118301857D01*
X66880907Y-118301857D01*
X66880907Y-118573169D01*
X66880907Y-118844481D01*
X67126380Y-118844481D01*
X67371853Y-118844481D01*
X67371853Y-118276018D01*
X67371853Y-117707554D01*
X67010103Y-117707554D01*
X66648353Y-117707554D01*
X66648353Y-117436241D01*
X66648353Y-117164929D01*
X67010103Y-117164929D01*
X67371853Y-117164929D01*
X67371853Y-116622304D01*
X67371853Y-116079680D01*
X67126380Y-116079680D01*
X66880907Y-116079680D01*
X66880907Y-116350992D01*
X66880907Y-116622304D01*
X66557916Y-116622304D01*
X66234925Y-116622304D01*
X66234925Y-116079680D01*
X66234925Y-115537055D01*
X67333094Y-115537055D01*
X68431263Y-115537055D01*
X68431263Y-115808367D01*
G37*
G36*
X60369411Y-115808367D02*
G01*
X60369411Y-116079680D01*
X60278974Y-116079680D01*
X60188536Y-116079680D01*
X60188536Y-116583546D01*
X60188536Y-117087411D01*
X60446929Y-117087411D01*
X60705322Y-117087411D01*
X60705322Y-116583546D01*
X60705322Y-116079680D01*
X60614884Y-116079680D01*
X60524447Y-116079680D01*
X60524447Y-115808367D01*
X60524447Y-115537055D01*
X61144589Y-115537055D01*
X61764732Y-115537055D01*
X61764732Y-115808367D01*
X61764732Y-116079680D01*
X61661375Y-116079680D01*
X61558017Y-116079680D01*
X61558017Y-117462081D01*
X61558017Y-118844481D01*
X61661375Y-118844481D01*
X61764732Y-118844481D01*
X61764732Y-119115794D01*
X61764732Y-119387106D01*
X61144589Y-119387106D01*
X60524447Y-119387106D01*
X60524447Y-119115794D01*
X60524447Y-118844481D01*
X60614884Y-118844481D01*
X60705322Y-118844481D01*
X60705322Y-118237259D01*
X60705322Y-117630036D01*
X60446929Y-117630036D01*
X60188536Y-117630036D01*
X60188536Y-118235621D01*
X60188536Y-118841207D01*
X60272514Y-118849304D01*
X60356492Y-118857401D01*
X60363855Y-119122254D01*
X60371219Y-119387106D01*
X59750173Y-119387106D01*
X59129126Y-119387106D01*
X59129126Y-119115794D01*
X59129126Y-118844481D01*
X59232483Y-118844481D01*
X59335840Y-118844481D01*
X59335840Y-117462081D01*
X59335840Y-116079680D01*
X59232483Y-116079680D01*
X59129126Y-116079680D01*
X59129126Y-115808367D01*
X59129126Y-115537055D01*
X59749269Y-115537055D01*
X60369411Y-115537055D01*
X60369411Y-115808367D01*
G37*
G36*
X54839808Y-115808367D02*
G01*
X54839808Y-116079680D01*
X54761390Y-116079680D01*
X54682971Y-116079680D01*
X54690332Y-117395615D01*
X54690563Y-117436867D01*
X54692240Y-117724953D01*
X54693891Y-117966354D01*
X54695711Y-118165487D01*
X54697897Y-118326771D01*
X54700645Y-118454621D01*
X54704153Y-118553454D01*
X54708617Y-118627689D01*
X54714234Y-118681742D01*
X54721200Y-118720030D01*
X54729711Y-118746970D01*
X54739966Y-118766979D01*
X54752159Y-118784475D01*
X54785976Y-118822980D01*
X54838032Y-118850518D01*
X54917326Y-118857401D01*
X54978271Y-118854068D01*
X55035561Y-118833323D01*
X55082492Y-118784471D01*
X55084221Y-118782146D01*
X55096147Y-118764575D01*
X55106158Y-118743914D01*
X55114452Y-118715747D01*
X55121223Y-118675655D01*
X55126667Y-118619223D01*
X55130982Y-118542032D01*
X55134362Y-118439666D01*
X55137003Y-118307708D01*
X55139103Y-118141741D01*
X55140855Y-117937347D01*
X55142457Y-117690109D01*
X55144104Y-117395610D01*
X55151249Y-116079680D01*
X55085966Y-116079680D01*
X55020683Y-116079680D01*
X55020683Y-115808367D01*
X55020683Y-115537055D01*
X55614986Y-115537055D01*
X56209289Y-115537055D01*
X56209289Y-115808367D01*
X56209289Y-116079680D01*
X56105932Y-116079680D01*
X56002575Y-116079680D01*
X56002380Y-117300585D01*
X56002112Y-117475978D01*
X56000820Y-117732668D01*
X55998553Y-117970257D01*
X55995413Y-118183316D01*
X55991504Y-118366416D01*
X55986928Y-118514127D01*
X55981789Y-118621019D01*
X55976189Y-118681663D01*
X55940577Y-118840105D01*
X55859133Y-119037184D01*
X55741572Y-119197546D01*
X55587209Y-119321853D01*
X55395356Y-119410769D01*
X55165328Y-119464957D01*
X55102455Y-119472813D01*
X54874014Y-119476195D01*
X54659184Y-119440795D01*
X54465283Y-119369098D01*
X54299628Y-119263589D01*
X54169538Y-119126754D01*
X54130255Y-119068967D01*
X54093061Y-119003158D01*
X54061729Y-118930686D01*
X54035766Y-118847051D01*
X54014678Y-118747751D01*
X53997971Y-118628286D01*
X53985151Y-118484155D01*
X53975724Y-118310858D01*
X53969196Y-118103893D01*
X53965074Y-117858760D01*
X53962863Y-117570958D01*
X53962071Y-117235987D01*
X53961273Y-116079680D01*
X53857916Y-116079680D01*
X53754559Y-116079680D01*
X53754559Y-115808367D01*
X53754559Y-115537055D01*
X54297183Y-115537055D01*
X54839808Y-115537055D01*
X54839808Y-115808367D01*
G37*
G36*
X63518324Y-115474667D02*
G01*
X63612281Y-115483233D01*
X63687106Y-115501546D01*
X63759976Y-115532494D01*
X63851931Y-115589905D01*
X63971424Y-115714594D01*
X64064136Y-115883029D01*
X64129873Y-116094821D01*
X64168439Y-116349578D01*
X64170785Y-116378535D01*
X64177746Y-116506253D01*
X64183282Y-116674056D01*
X64187392Y-116873026D01*
X64190074Y-117094245D01*
X64191328Y-117328793D01*
X64191152Y-117567751D01*
X64189544Y-117802202D01*
X64186504Y-118023226D01*
X64182029Y-118221906D01*
X64176118Y-118389321D01*
X64168771Y-118516555D01*
X64144573Y-118733660D01*
X64099424Y-118947367D01*
X64034526Y-119118674D01*
X63948013Y-119251174D01*
X63838018Y-119348460D01*
X63702677Y-119414124D01*
X63512928Y-119457728D01*
X63320486Y-119455875D01*
X63140249Y-119405653D01*
X62976843Y-119307740D01*
X62875820Y-119227728D01*
X62875820Y-119307417D01*
X62875820Y-119387106D01*
X62501151Y-119387106D01*
X62126481Y-119387106D01*
X62126481Y-118495651D01*
X62126481Y-117604197D01*
X62617427Y-117604197D01*
X63108374Y-117604197D01*
X63108374Y-117888429D01*
X63108374Y-118172660D01*
X62989745Y-118172660D01*
X62871116Y-118172660D01*
X62879928Y-118441957D01*
X62884881Y-118563002D01*
X62892131Y-118647499D01*
X62904117Y-118703767D01*
X62923395Y-118743671D01*
X62952519Y-118779077D01*
X63014713Y-118824300D01*
X63106827Y-118843968D01*
X63198430Y-118821737D01*
X63273746Y-118758614D01*
X63281800Y-118747435D01*
X63293098Y-118728283D01*
X63302387Y-118703820D01*
X63309862Y-118669408D01*
X63315721Y-118620411D01*
X63320161Y-118552193D01*
X63323378Y-118460116D01*
X63325569Y-118339544D01*
X63326931Y-118185840D01*
X63327660Y-117994367D01*
X63327953Y-117760490D01*
X63328007Y-117479570D01*
X63328002Y-117384128D01*
X63327783Y-117102621D01*
X63326897Y-116867158D01*
X63324881Y-116673421D01*
X63321270Y-116517088D01*
X63315602Y-116393842D01*
X63307413Y-116299362D01*
X63296239Y-116229328D01*
X63281617Y-116179422D01*
X63263083Y-116145322D01*
X63240173Y-116122711D01*
X63212424Y-116107267D01*
X63179371Y-116094672D01*
X63084888Y-116082692D01*
X63000528Y-116115265D01*
X62934434Y-116188351D01*
X62891310Y-116296677D01*
X62875860Y-116434970D01*
X62875820Y-116570626D01*
X62539910Y-116570626D01*
X62203999Y-116570626D01*
X62203999Y-116053841D01*
X62203999Y-115537055D01*
X62501151Y-115537055D01*
X62798302Y-115537055D01*
X62798302Y-115629790D01*
X62798302Y-115722524D01*
X62879270Y-115654394D01*
X62900628Y-115636703D01*
X63013426Y-115556145D01*
X63123382Y-115506059D01*
X63248185Y-115480345D01*
X63405525Y-115472900D01*
X63518324Y-115474667D01*
G37*
D10*
%TO.C,D2*%
X81550000Y-55391250D02*
X81550000Y-51531250D01*
X83550000Y-55391250D02*
X81550000Y-55391250D01*
X83550000Y-55391250D02*
X83550000Y-51531250D01*
%TO.C,D3*%
X100600000Y-55391250D02*
X100600000Y-51531250D01*
X102600000Y-55391250D02*
X100600000Y-55391250D01*
X102600000Y-55391250D02*
X102600000Y-51531250D01*
%TO.C,D21*%
X181562500Y-74441250D02*
X181562500Y-70581250D01*
X183562500Y-74441250D02*
X181562500Y-74441250D01*
X183562500Y-74441250D02*
X183562500Y-70581250D01*
%TO.C,C8*%
X279617836Y-66675654D02*
X279402164Y-66675654D01*
X279617836Y-65955654D02*
X279402164Y-65955654D01*
%TO.C,C5*%
X283408991Y-83115000D02*
X283624663Y-83115000D01*
X283408991Y-83835000D02*
X283624663Y-83835000D01*
%TO.C,C2*%
X276128435Y-87649664D02*
X276128435Y-87865336D01*
X275408435Y-87649664D02*
X275408435Y-87865336D01*
%TO.C,D49*%
X291100000Y-117303750D02*
X291100000Y-113443750D01*
X293100000Y-117303750D02*
X291100000Y-117303750D01*
X293100000Y-117303750D02*
X293100000Y-113443750D01*
%TO.C,J2*%
X248570197Y-65322500D02*
X251900197Y-65322500D01*
X251900197Y-65322500D02*
X251900197Y-64272500D01*
X251900197Y-64272500D02*
X252110197Y-64272500D01*
X247180197Y-64252500D02*
X247180197Y-63752500D01*
X252963750Y-63962500D02*
X252610197Y-63712500D01*
X247180197Y-63752500D02*
X247680197Y-63452500D01*
X252610197Y-63712500D02*
X252963750Y-63462500D01*
X252963750Y-63462500D02*
X252963750Y-63962500D01*
X247680197Y-63452500D02*
X247680197Y-60372500D01*
X247680197Y-60372500D02*
X247180197Y-60072500D01*
X247180197Y-60072500D02*
X247180197Y-59572500D01*
X248570197Y-58502500D02*
X251900197Y-58502500D01*
X251900197Y-58502500D02*
X251900197Y-59552500D01*
%TO.C,D6*%
X157750000Y-55391250D02*
X157750000Y-51531250D01*
X159750000Y-55391250D02*
X157750000Y-55391250D01*
X159750000Y-55391250D02*
X159750000Y-51531250D01*
%TO.C,R1*%
X280663636Y-62756265D02*
X280356354Y-62756265D01*
X280663636Y-61996265D02*
X280356354Y-61996265D01*
%TO.C,C4*%
X282163462Y-75377500D02*
X282379134Y-75377500D01*
X282163462Y-76097500D02*
X282379134Y-76097500D01*
%TO.C,C1*%
X282163462Y-84401185D02*
X282379134Y-84401185D01*
X282163462Y-85121185D02*
X282379134Y-85121185D01*
%TO.C,D42*%
X104568750Y-117116250D02*
X104568750Y-113256250D01*
X106568750Y-117116250D02*
X104568750Y-117116250D01*
X106568750Y-117116250D02*
X106568750Y-113256250D01*
%TO.C,D8*%
X195850000Y-55391250D02*
X195850000Y-51531250D01*
X197850000Y-55391250D02*
X195850000Y-55391250D01*
X197850000Y-55391250D02*
X197850000Y-51531250D01*
%TO.C,D25*%
X264906250Y-74441250D02*
X264906250Y-70581250D01*
X266906250Y-74441250D02*
X264906250Y-74441250D01*
X266906250Y-74441250D02*
X266906250Y-70581250D01*
%TO.C,D48*%
X272050000Y-117303750D02*
X272050000Y-113443750D01*
X274050000Y-117303750D02*
X272050000Y-117303750D01*
X274050000Y-117303750D02*
X274050000Y-113443750D01*
%TO.C,D19*%
X143462500Y-74441250D02*
X143462500Y-70581250D01*
X145462500Y-74441250D02*
X143462500Y-74441250D01*
X145462500Y-74441250D02*
X145462500Y-70581250D01*
%TO.C,D16*%
X86312500Y-74441250D02*
X86312500Y-70581250D01*
X88312500Y-74441250D02*
X86312500Y-74441250D01*
X88312500Y-74441250D02*
X88312500Y-70581250D01*
%TO.C,D24*%
X238712500Y-74441250D02*
X238712500Y-70581250D01*
X240712500Y-74441250D02*
X238712500Y-74441250D01*
X240712500Y-74441250D02*
X240712500Y-70581250D01*
%TO.C,D38*%
X272050000Y-98253750D02*
X272050000Y-94393750D01*
X274050000Y-98253750D02*
X272050000Y-98253750D01*
X274050000Y-98253750D02*
X274050000Y-94393750D01*
%TO.C,D46*%
X214106250Y-117303750D02*
X214106250Y-113443750D01*
X216106250Y-117303750D02*
X214106250Y-117303750D01*
X216106250Y-117303750D02*
X216106250Y-113443750D01*
%TO.C,D13*%
X295862500Y-55391250D02*
X295862500Y-51531250D01*
X297862500Y-55391250D02*
X295862500Y-55391250D01*
X297862500Y-55391250D02*
X297862500Y-51531250D01*
%TO.C,D35*%
X210137500Y-93491250D02*
X210137500Y-89631250D01*
X212137500Y-93491250D02*
X210137500Y-93491250D01*
X212137500Y-93491250D02*
X212137500Y-89631250D01*
%TO.C,D41*%
X67262500Y-112541250D02*
X67262500Y-108681250D01*
X69262500Y-112541250D02*
X67262500Y-112541250D01*
X69262500Y-112541250D02*
X69262500Y-108681250D01*
%TO.C,D34*%
X191087500Y-93491250D02*
X191087500Y-89631250D01*
X193087500Y-93491250D02*
X191087500Y-93491250D01*
X193087500Y-93491250D02*
X193087500Y-89631250D01*
%TO.C,D28*%
X69643750Y-93491250D02*
X69643750Y-89631250D01*
X71643750Y-93491250D02*
X69643750Y-93491250D01*
X71643750Y-93491250D02*
X71643750Y-89631250D01*
%TO.C,D10*%
X233950000Y-55391250D02*
X233950000Y-51531250D01*
X235950000Y-55391250D02*
X233950000Y-55391250D01*
X235950000Y-55391250D02*
X235950000Y-51531250D01*
%TO.C,D18*%
X124412500Y-74441250D02*
X124412500Y-70581250D01*
X126412500Y-74441250D02*
X124412500Y-74441250D01*
X126412500Y-74441250D02*
X126412500Y-70581250D01*
%TO.C,D11*%
X253000000Y-55391250D02*
X253000000Y-51531250D01*
X255000000Y-55391250D02*
X253000000Y-55391250D01*
X255000000Y-55391250D02*
X255000000Y-51531250D01*
%TO.C,D22*%
X200612500Y-74441250D02*
X200612500Y-70581250D01*
X202612500Y-74441250D02*
X200612500Y-74441250D01*
X202612500Y-74441250D02*
X202612500Y-70581250D01*
%TO.C,D39*%
X295862500Y-93491250D02*
X295862500Y-89631250D01*
X297862500Y-93491250D02*
X295862500Y-93491250D01*
X297862500Y-93491250D02*
X297862500Y-89631250D01*
%TD*%
M02*
