M48
; DRILL file {KiCad 8.0.5} date 2024-10-14T19:29:41+0200
; FORMAT={-:-/ absolute / inch / decimal}
; #@! TF.CreationDate,2024-10-14T19:29:41+02:00
; #@! TF.GenerationSoftware,Kicad,Pcbnew,8.0.5
; #@! TF.FileFunction,Plated,1,2,PTH
FMAT,2
INCH
; #@! TA.AperFunction,Plated,PTH,ViaDrill
T1C0.0157
; #@! TA.AperFunction,Plated,PTH,ComponentDrill
T2C0.0394
; #@! TA.AperFunction,Plated,PTH,ComponentDrill
T3C0.0591
; #@! TA.AperFunction,Plated,PTH,ComponentDrill
T4C0.0600
; #@! TA.AperFunction,Plated,PTH,ComponentDrill
T5C0.1200
%
G90
G05
T1
X3.3115Y-4.5
X9.3135Y-4.5
X9.7478Y-2.9889
X10.0069Y-2.4024
X10.5312Y-2.9062
X10.625Y-3.0
X10.75Y-3.0052
X10.8569Y-3.396
X10.8571Y-3.5103
X10.8962Y-3.5107
X10.9062Y-3.1614
X10.9688Y-3.1614
X11.0235Y-2.495
X11.0312Y-2.75
X11.0537Y-2.9818
X11.0589Y-3.3371
X11.0592Y-2.6108
X11.0595Y-2.8125
X11.1111Y-3.2863
X11.125Y-2.75
X11.1317Y-3.0138
X11.1319Y-2.9425
X11.1705Y-2.9348
X11.1724Y-3.3367
X11.1875Y-2.2397
X11.2155Y-3.2864
X11.3438Y-2.9062
X11.5625Y-2.4375
X11.5625Y-3.0094
X11.5625Y-3.9385
T2
X3.3922Y-4.4016
X3.3922Y-4.5
X3.3922Y-4.5984
X3.9631Y-4.4016
X3.9631Y-4.5984
X8.6619Y-4.4016
X8.6619Y-4.5984
X9.2328Y-4.4016
X9.2328Y-4.5
X9.2328Y-4.5984
X11.4641Y-1.7869
X11.4641Y-2.3578
X11.4641Y-2.5369
X11.4641Y-3.1078
X11.4641Y-3.2869
X11.4641Y-3.8578
X11.5625Y-2.3578
X11.5625Y-3.1078
X11.5625Y-3.8578
X11.6609Y-1.7869
X11.6609Y-2.3578
X11.6609Y-2.5369
X11.6609Y-3.1078
X11.6609Y-3.2869
X11.6609Y-3.8578
T4
X2.225Y-1.9625
X2.3188Y-2.7125
X2.4125Y-4.2125
X2.475Y-1.8625
X2.5063Y-3.4625
X2.5688Y-2.6125
X2.6625Y-4.1125
X2.7563Y-3.3625
X2.975Y-1.9625
X3.1625Y-2.7125
X3.225Y-1.8625
X3.4125Y-2.6125
X3.5375Y-3.4625
X3.5375Y-4.4
X3.725Y-1.9625
X3.725Y-4.4
X3.7875Y-3.3625
X3.7875Y-4.3
X3.9125Y-2.7125
X3.975Y-1.8625
X3.975Y-4.3
X4.1625Y-2.6125
X4.2875Y-3.4625
X4.2875Y-4.4
X4.475Y-1.9625
X4.5375Y-3.3625
X4.5375Y-4.3
X4.6625Y-2.7125
X4.725Y-1.8625
X4.9125Y-2.6125
X5.0375Y-3.4625
X5.0375Y-4.4
X5.0375Y-4.4
X5.225Y-1.9625
X5.2875Y-3.3625
X5.2875Y-4.3
X5.2875Y-4.3
X5.3187Y-4.4
X5.4125Y-2.7125
X5.475Y-1.8625
X5.5687Y-4.3
X5.6625Y-2.6125
X5.7875Y-3.4625
X5.975Y-1.9625
X6.0375Y-3.3625
X6.1625Y-2.7125
X6.1625Y-4.4
X6.225Y-1.8625
X6.4125Y-2.6125
X6.4125Y-4.3
X6.5375Y-3.4625
X6.5375Y-4.4
X6.725Y-1.9625
X6.7875Y-3.3625
X6.7875Y-4.3
X6.9125Y-2.7125
X6.975Y-1.8625
X7.1625Y-2.6125
X7.1937Y-4.4
X7.2875Y-3.4625
X7.2875Y-4.4
X7.2875Y-4.4
X7.4437Y-4.3
X7.475Y-1.9625
X7.5375Y-3.3625
X7.5375Y-4.3
X7.5375Y-4.3
X7.6625Y-2.7125
X7.725Y-1.8625
X7.9125Y-2.6125
X8.0375Y-3.4625
X8.0375Y-4.4
X8.225Y-1.9625
X8.2875Y-3.3625
X8.2875Y-4.3
X8.4125Y-2.7125
X8.475Y-1.8625
X8.6Y-4.4
X8.6625Y-2.6125
X8.7875Y-3.4625
X8.7875Y-4.4
X8.85Y-4.3
X8.975Y-1.9625
X9.0375Y-3.3625
X9.0375Y-4.3
X9.1625Y-2.7125
X9.225Y-1.8625
X9.4125Y-2.6125
X9.5375Y-3.4625
X9.725Y-1.9625
X9.725Y-4.4
X9.7875Y-3.3625
X9.975Y-1.8625
X9.975Y-4.3
X10.1937Y-2.7125
X10.4437Y-2.6125
X10.475Y-1.9625
X10.475Y-3.65
X10.475Y-4.4
X10.725Y-1.8625
X10.725Y-3.55
X10.725Y-4.3
X11.225Y-4.4
X11.4125Y-1.9625
X11.4125Y-2.7125
X11.4125Y-3.4625
X11.475Y-4.3
X11.6625Y-1.8625
X11.6625Y-2.6125
X11.6625Y-3.3625
T5
X3.6875Y-4.775
X4.4375Y-4.775
X4.4375Y-4.775
X4.4375Y-4.775
X4.7188Y-4.775
X5.0Y-4.775
X5.1875Y-4.775
X5.6562Y-4.775
X5.9375Y-4.775
X5.9375Y-4.775
X6.6875Y-4.775
X6.875Y-4.775
X6.9688Y-4.775
X7.4375Y-4.775
X7.8125Y-4.775
X7.9062Y-4.775
X8.1875Y-4.775
X8.1875Y-4.775
X8.9375Y-4.775
X8.9375Y-4.775
T3
G00X3.6619Y-4.2795
M15
G01X3.7131Y-4.2795
M16
G05
G00X3.6619Y-4.7205
M15
G01X3.7131Y-4.7205
M16
G05
G00X8.9631Y-4.2795
M15
G01X8.9119Y-4.2795
M16
G05
G00X8.9631Y-4.7205
M15
G01X8.9119Y-4.7205
M16
G05
G00X11.342Y-2.0881
M15
G01X11.342Y-2.0369
M16
G05
G00X11.342Y-2.8381
M15
G01X11.342Y-2.7869
M16
G05
G00X11.342Y-3.5881
M15
G01X11.342Y-3.5369
M16
G05
G00X11.783Y-2.0881
M15
G01X11.783Y-2.0369
M16
G05
G00X11.783Y-2.8381
M15
G01X11.783Y-2.7869
M16
G05
G00X11.783Y-3.5881
M15
G01X11.783Y-3.5369
M16
G05
M30
