%TF.GenerationSoftware,KiCad,Pcbnew,(7.0.0)*%
%TF.CreationDate,2023-11-25T12:28:40+01:00*%
%TF.ProjectId,Eightu Ortho,45696768-7475-4204-9f72-74686f2e6b69,rev?*%
%TF.SameCoordinates,Original*%
%TF.FileFunction,Other,Comment*%
%FSLAX46Y46*%
G04 Gerber Fmt 4.6, Leading zero omitted, Abs format (unit mm)*
G04 Created by KiCad (PCBNEW (7.0.0)) date 2023-11-25 12:28:40*
%MOMM*%
%LPD*%
G01*
G04 APERTURE LIST*
%ADD10C,0.150000*%
%ADD11C,0.030000*%
G04 APERTURE END LIST*
D10*
%TO.C,S2*%
X188102976Y-105634619D02*
X188150595Y-105587000D01*
X188150595Y-105587000D02*
X188245833Y-105539380D01*
X188245833Y-105539380D02*
X188483928Y-105539380D01*
X188483928Y-105539380D02*
X188579166Y-105587000D01*
X188579166Y-105587000D02*
X188626785Y-105634619D01*
X188626785Y-105634619D02*
X188674404Y-105729857D01*
X188674404Y-105729857D02*
X188674404Y-105825095D01*
X188674404Y-105825095D02*
X188626785Y-105967952D01*
X188626785Y-105967952D02*
X188055357Y-106539380D01*
X188055357Y-106539380D02*
X188674404Y-106539380D01*
X189102976Y-105539380D02*
X189102976Y-106348904D01*
X189102976Y-106348904D02*
X189150595Y-106444142D01*
X189150595Y-106444142D02*
X189198214Y-106491761D01*
X189198214Y-106491761D02*
X189293452Y-106539380D01*
X189293452Y-106539380D02*
X189483928Y-106539380D01*
X189483928Y-106539380D02*
X189579166Y-106491761D01*
X189579166Y-106491761D02*
X189626785Y-106444142D01*
X189626785Y-106444142D02*
X189674404Y-106348904D01*
X189674404Y-106348904D02*
X189674404Y-105539380D01*
%TO.C,S10*%
X180959226Y-105634619D02*
X181006845Y-105587000D01*
X181006845Y-105587000D02*
X181102083Y-105539380D01*
X181102083Y-105539380D02*
X181340178Y-105539380D01*
X181340178Y-105539380D02*
X181435416Y-105587000D01*
X181435416Y-105587000D02*
X181483035Y-105634619D01*
X181483035Y-105634619D02*
X181530654Y-105729857D01*
X181530654Y-105729857D02*
X181530654Y-105825095D01*
X181530654Y-105825095D02*
X181483035Y-105967952D01*
X181483035Y-105967952D02*
X180911607Y-106539380D01*
X180911607Y-106539380D02*
X181530654Y-106539380D01*
X181959226Y-105539380D02*
X181959226Y-106348904D01*
X181959226Y-106348904D02*
X182006845Y-106444142D01*
X182006845Y-106444142D02*
X182054464Y-106491761D01*
X182054464Y-106491761D02*
X182149702Y-106539380D01*
X182149702Y-106539380D02*
X182340178Y-106539380D01*
X182340178Y-106539380D02*
X182435416Y-106491761D01*
X182435416Y-106491761D02*
X182483035Y-106444142D01*
X182483035Y-106444142D02*
X182530654Y-106348904D01*
X182530654Y-106348904D02*
X182530654Y-105539380D01*
%TO.C,S3*%
X169005357Y-105539380D02*
X169672023Y-105539380D01*
X169672023Y-105539380D02*
X169243452Y-106539380D01*
X170052976Y-105539380D02*
X170052976Y-106348904D01*
X170052976Y-106348904D02*
X170100595Y-106444142D01*
X170100595Y-106444142D02*
X170148214Y-106491761D01*
X170148214Y-106491761D02*
X170243452Y-106539380D01*
X170243452Y-106539380D02*
X170433928Y-106539380D01*
X170433928Y-106539380D02*
X170529166Y-106491761D01*
X170529166Y-106491761D02*
X170576785Y-106444142D01*
X170576785Y-106444142D02*
X170624404Y-106348904D01*
X170624404Y-106348904D02*
X170624404Y-105539380D01*
%TO.C,S7*%
X130905357Y-105539380D02*
X131524404Y-105539380D01*
X131524404Y-105539380D02*
X131191071Y-105920333D01*
X131191071Y-105920333D02*
X131333928Y-105920333D01*
X131333928Y-105920333D02*
X131429166Y-105967952D01*
X131429166Y-105967952D02*
X131476785Y-106015571D01*
X131476785Y-106015571D02*
X131524404Y-106110809D01*
X131524404Y-106110809D02*
X131524404Y-106348904D01*
X131524404Y-106348904D02*
X131476785Y-106444142D01*
X131476785Y-106444142D02*
X131429166Y-106491761D01*
X131429166Y-106491761D02*
X131333928Y-106539380D01*
X131333928Y-106539380D02*
X131048214Y-106539380D01*
X131048214Y-106539380D02*
X130952976Y-106491761D01*
X130952976Y-106491761D02*
X130905357Y-106444142D01*
X131952976Y-105539380D02*
X131952976Y-106348904D01*
X131952976Y-106348904D02*
X132000595Y-106444142D01*
X132000595Y-106444142D02*
X132048214Y-106491761D01*
X132048214Y-106491761D02*
X132143452Y-106539380D01*
X132143452Y-106539380D02*
X132333928Y-106539380D01*
X132333928Y-106539380D02*
X132429166Y-106491761D01*
X132429166Y-106491761D02*
X132476785Y-106444142D01*
X132476785Y-106444142D02*
X132524404Y-106348904D01*
X132524404Y-106348904D02*
X132524404Y-105539380D01*
%TO.C,S1*%
X130952976Y-105634619D02*
X131000595Y-105587000D01*
X131000595Y-105587000D02*
X131095833Y-105539380D01*
X131095833Y-105539380D02*
X131333928Y-105539380D01*
X131333928Y-105539380D02*
X131429166Y-105587000D01*
X131429166Y-105587000D02*
X131476785Y-105634619D01*
X131476785Y-105634619D02*
X131524404Y-105729857D01*
X131524404Y-105729857D02*
X131524404Y-105825095D01*
X131524404Y-105825095D02*
X131476785Y-105967952D01*
X131476785Y-105967952D02*
X130905357Y-106539380D01*
X130905357Y-106539380D02*
X131524404Y-106539380D01*
X131952976Y-105539380D02*
X131952976Y-106348904D01*
X131952976Y-106348904D02*
X132000595Y-106444142D01*
X132000595Y-106444142D02*
X132048214Y-106491761D01*
X132048214Y-106491761D02*
X132143452Y-106539380D01*
X132143452Y-106539380D02*
X132333928Y-106539380D01*
X132333928Y-106539380D02*
X132429166Y-106491761D01*
X132429166Y-106491761D02*
X132476785Y-106444142D01*
X132476785Y-106444142D02*
X132524404Y-106348904D01*
X132524404Y-106348904D02*
X132524404Y-105539380D01*
%TO.C,S5*%
X160004166Y-105872714D02*
X160004166Y-106539380D01*
X159766071Y-105491761D02*
X159527976Y-106206047D01*
X159527976Y-106206047D02*
X160147023Y-106206047D01*
X160527976Y-105539380D02*
X160527976Y-106348904D01*
X160527976Y-106348904D02*
X160575595Y-106444142D01*
X160575595Y-106444142D02*
X160623214Y-106491761D01*
X160623214Y-106491761D02*
X160718452Y-106539380D01*
X160718452Y-106539380D02*
X160908928Y-106539380D01*
X160908928Y-106539380D02*
X161004166Y-106491761D01*
X161004166Y-106491761D02*
X161051785Y-106444142D01*
X161051785Y-106444142D02*
X161099404Y-106348904D01*
X161099404Y-106348904D02*
X161099404Y-105539380D01*
%TO.C,S4*%
X160004166Y-105539380D02*
X159813690Y-105539380D01*
X159813690Y-105539380D02*
X159718452Y-105587000D01*
X159718452Y-105587000D02*
X159670833Y-105634619D01*
X159670833Y-105634619D02*
X159575595Y-105777476D01*
X159575595Y-105777476D02*
X159527976Y-105967952D01*
X159527976Y-105967952D02*
X159527976Y-106348904D01*
X159527976Y-106348904D02*
X159575595Y-106444142D01*
X159575595Y-106444142D02*
X159623214Y-106491761D01*
X159623214Y-106491761D02*
X159718452Y-106539380D01*
X159718452Y-106539380D02*
X159908928Y-106539380D01*
X159908928Y-106539380D02*
X160004166Y-106491761D01*
X160004166Y-106491761D02*
X160051785Y-106444142D01*
X160051785Y-106444142D02*
X160099404Y-106348904D01*
X160099404Y-106348904D02*
X160099404Y-106110809D01*
X160099404Y-106110809D02*
X160051785Y-106015571D01*
X160051785Y-106015571D02*
X160004166Y-105967952D01*
X160004166Y-105967952D02*
X159908928Y-105920333D01*
X159908928Y-105920333D02*
X159718452Y-105920333D01*
X159718452Y-105920333D02*
X159623214Y-105967952D01*
X159623214Y-105967952D02*
X159575595Y-106015571D01*
X159575595Y-106015571D02*
X159527976Y-106110809D01*
X160527976Y-105539380D02*
X160527976Y-106348904D01*
X160527976Y-106348904D02*
X160575595Y-106444142D01*
X160575595Y-106444142D02*
X160623214Y-106491761D01*
X160623214Y-106491761D02*
X160718452Y-106539380D01*
X160718452Y-106539380D02*
X160908928Y-106539380D01*
X160908928Y-106539380D02*
X161004166Y-106491761D01*
X161004166Y-106491761D02*
X161051785Y-106444142D01*
X161051785Y-106444142D02*
X161099404Y-106348904D01*
X161099404Y-106348904D02*
X161099404Y-105539380D01*
%TO.C,S8*%
X188055357Y-105539380D02*
X188674404Y-105539380D01*
X188674404Y-105539380D02*
X188341071Y-105920333D01*
X188341071Y-105920333D02*
X188483928Y-105920333D01*
X188483928Y-105920333D02*
X188579166Y-105967952D01*
X188579166Y-105967952D02*
X188626785Y-106015571D01*
X188626785Y-106015571D02*
X188674404Y-106110809D01*
X188674404Y-106110809D02*
X188674404Y-106348904D01*
X188674404Y-106348904D02*
X188626785Y-106444142D01*
X188626785Y-106444142D02*
X188579166Y-106491761D01*
X188579166Y-106491761D02*
X188483928Y-106539380D01*
X188483928Y-106539380D02*
X188198214Y-106539380D01*
X188198214Y-106539380D02*
X188102976Y-106491761D01*
X188102976Y-106491761D02*
X188055357Y-106444142D01*
X189102976Y-105539380D02*
X189102976Y-106348904D01*
X189102976Y-106348904D02*
X189150595Y-106444142D01*
X189150595Y-106444142D02*
X189198214Y-106491761D01*
X189198214Y-106491761D02*
X189293452Y-106539380D01*
X189293452Y-106539380D02*
X189483928Y-106539380D01*
X189483928Y-106539380D02*
X189579166Y-106491761D01*
X189579166Y-106491761D02*
X189626785Y-106444142D01*
X189626785Y-106444142D02*
X189674404Y-106348904D01*
X189674404Y-106348904D02*
X189674404Y-105539380D01*
%TO.C,S9*%
X133334226Y-105634619D02*
X133381845Y-105587000D01*
X133381845Y-105587000D02*
X133477083Y-105539380D01*
X133477083Y-105539380D02*
X133715178Y-105539380D01*
X133715178Y-105539380D02*
X133810416Y-105587000D01*
X133810416Y-105587000D02*
X133858035Y-105634619D01*
X133858035Y-105634619D02*
X133905654Y-105729857D01*
X133905654Y-105729857D02*
X133905654Y-105825095D01*
X133905654Y-105825095D02*
X133858035Y-105967952D01*
X133858035Y-105967952D02*
X133286607Y-106539380D01*
X133286607Y-106539380D02*
X133905654Y-106539380D01*
X134334226Y-105539380D02*
X134334226Y-106348904D01*
X134334226Y-106348904D02*
X134381845Y-106444142D01*
X134381845Y-106444142D02*
X134429464Y-106491761D01*
X134429464Y-106491761D02*
X134524702Y-106539380D01*
X134524702Y-106539380D02*
X134715178Y-106539380D01*
X134715178Y-106539380D02*
X134810416Y-106491761D01*
X134810416Y-106491761D02*
X134858035Y-106444142D01*
X134858035Y-106444142D02*
X134905654Y-106348904D01*
X134905654Y-106348904D02*
X134905654Y-105539380D01*
%TO.C,S6*%
X159718452Y-105967952D02*
X159623214Y-105920333D01*
X159623214Y-105920333D02*
X159575595Y-105872714D01*
X159575595Y-105872714D02*
X159527976Y-105777476D01*
X159527976Y-105777476D02*
X159527976Y-105729857D01*
X159527976Y-105729857D02*
X159575595Y-105634619D01*
X159575595Y-105634619D02*
X159623214Y-105587000D01*
X159623214Y-105587000D02*
X159718452Y-105539380D01*
X159718452Y-105539380D02*
X159908928Y-105539380D01*
X159908928Y-105539380D02*
X160004166Y-105587000D01*
X160004166Y-105587000D02*
X160051785Y-105634619D01*
X160051785Y-105634619D02*
X160099404Y-105729857D01*
X160099404Y-105729857D02*
X160099404Y-105777476D01*
X160099404Y-105777476D02*
X160051785Y-105872714D01*
X160051785Y-105872714D02*
X160004166Y-105920333D01*
X160004166Y-105920333D02*
X159908928Y-105967952D01*
X159908928Y-105967952D02*
X159718452Y-105967952D01*
X159718452Y-105967952D02*
X159623214Y-106015571D01*
X159623214Y-106015571D02*
X159575595Y-106063190D01*
X159575595Y-106063190D02*
X159527976Y-106158428D01*
X159527976Y-106158428D02*
X159527976Y-106348904D01*
X159527976Y-106348904D02*
X159575595Y-106444142D01*
X159575595Y-106444142D02*
X159623214Y-106491761D01*
X159623214Y-106491761D02*
X159718452Y-106539380D01*
X159718452Y-106539380D02*
X159908928Y-106539380D01*
X159908928Y-106539380D02*
X160004166Y-106491761D01*
X160004166Y-106491761D02*
X160051785Y-106444142D01*
X160051785Y-106444142D02*
X160099404Y-106348904D01*
X160099404Y-106348904D02*
X160099404Y-106158428D01*
X160099404Y-106158428D02*
X160051785Y-106063190D01*
X160051785Y-106063190D02*
X160004166Y-106015571D01*
X160004166Y-106015571D02*
X159908928Y-105967952D01*
X160527976Y-105539380D02*
X160527976Y-106348904D01*
X160527976Y-106348904D02*
X160575595Y-106444142D01*
X160575595Y-106444142D02*
X160623214Y-106491761D01*
X160623214Y-106491761D02*
X160718452Y-106539380D01*
X160718452Y-106539380D02*
X160908928Y-106539380D01*
X160908928Y-106539380D02*
X161004166Y-106491761D01*
X161004166Y-106491761D02*
X161051785Y-106444142D01*
X161051785Y-106444142D02*
X161099404Y-106348904D01*
X161099404Y-106348904D02*
X161099404Y-105539380D01*
D11*
%TO.C,SW6*%
X285613928Y-59010976D02*
X285613928Y-58810976D01*
X285613928Y-58810976D02*
X285728213Y-59010976D01*
X285728213Y-59010976D02*
X285728213Y-58810976D01*
X285852023Y-59010976D02*
X285832975Y-59001452D01*
X285832975Y-59001452D02*
X285823452Y-58991928D01*
X285823452Y-58991928D02*
X285813928Y-58972880D01*
X285813928Y-58972880D02*
X285813928Y-58915738D01*
X285813928Y-58915738D02*
X285823452Y-58896690D01*
X285823452Y-58896690D02*
X285832975Y-58887166D01*
X285832975Y-58887166D02*
X285852023Y-58877642D01*
X285852023Y-58877642D02*
X285880594Y-58877642D01*
X285880594Y-58877642D02*
X285899642Y-58887166D01*
X285899642Y-58887166D02*
X285909166Y-58896690D01*
X285909166Y-58896690D02*
X285918690Y-58915738D01*
X285918690Y-58915738D02*
X285918690Y-58972880D01*
X285918690Y-58972880D02*
X285909166Y-58991928D01*
X285909166Y-58991928D02*
X285899642Y-59001452D01*
X285899642Y-59001452D02*
X285880594Y-59010976D01*
X285880594Y-59010976D02*
X285852023Y-59010976D01*
X286191070Y-58906214D02*
X286124404Y-58906214D01*
X286124404Y-59010976D02*
X286124404Y-58810976D01*
X286124404Y-58810976D02*
X286219642Y-58810976D01*
X286295833Y-58991928D02*
X286305356Y-59001452D01*
X286305356Y-59001452D02*
X286295833Y-59010976D01*
X286295833Y-59010976D02*
X286286309Y-59001452D01*
X286286309Y-59001452D02*
X286295833Y-58991928D01*
X286295833Y-58991928D02*
X286295833Y-59010976D01*
X286505356Y-58991928D02*
X286495832Y-59001452D01*
X286495832Y-59001452D02*
X286467261Y-59010976D01*
X286467261Y-59010976D02*
X286448213Y-59010976D01*
X286448213Y-59010976D02*
X286419642Y-59001452D01*
X286419642Y-59001452D02*
X286400594Y-58982404D01*
X286400594Y-58982404D02*
X286391071Y-58963357D01*
X286391071Y-58963357D02*
X286381547Y-58925261D01*
X286381547Y-58925261D02*
X286381547Y-58896690D01*
X286381547Y-58896690D02*
X286391071Y-58858595D01*
X286391071Y-58858595D02*
X286400594Y-58839547D01*
X286400594Y-58839547D02*
X286419642Y-58820500D01*
X286419642Y-58820500D02*
X286448213Y-58810976D01*
X286448213Y-58810976D02*
X286467261Y-58810976D01*
X286467261Y-58810976D02*
X286495832Y-58820500D01*
X286495832Y-58820500D02*
X286505356Y-58830023D01*
X286676785Y-58877642D02*
X286676785Y-59010976D01*
X286591071Y-58877642D02*
X286591071Y-58982404D01*
X286591071Y-58982404D02*
X286600594Y-59001452D01*
X286600594Y-59001452D02*
X286619642Y-59010976D01*
X286619642Y-59010976D02*
X286648213Y-59010976D01*
X286648213Y-59010976D02*
X286667261Y-59001452D01*
X286667261Y-59001452D02*
X286676785Y-58991928D01*
X286863451Y-58877642D02*
X286939642Y-58877642D01*
X286892023Y-58810976D02*
X286892023Y-58982404D01*
X286892023Y-58982404D02*
X286901546Y-59001452D01*
X286901546Y-59001452D02*
X286920594Y-59010976D01*
X286920594Y-59010976D02*
X286939642Y-59010976D01*
X287006309Y-59010976D02*
X287006309Y-58877642D01*
X287006309Y-58915738D02*
X287015832Y-58896690D01*
X287015832Y-58896690D02*
X287025356Y-58887166D01*
X287025356Y-58887166D02*
X287044404Y-58877642D01*
X287044404Y-58877642D02*
X287063451Y-58877642D01*
X287215833Y-59010976D02*
X287215833Y-58906214D01*
X287215833Y-58906214D02*
X287206309Y-58887166D01*
X287206309Y-58887166D02*
X287187261Y-58877642D01*
X287187261Y-58877642D02*
X287149166Y-58877642D01*
X287149166Y-58877642D02*
X287130119Y-58887166D01*
X287215833Y-59001452D02*
X287196785Y-59010976D01*
X287196785Y-59010976D02*
X287149166Y-59010976D01*
X287149166Y-59010976D02*
X287130119Y-59001452D01*
X287130119Y-59001452D02*
X287120595Y-58982404D01*
X287120595Y-58982404D02*
X287120595Y-58963357D01*
X287120595Y-58963357D02*
X287130119Y-58944309D01*
X287130119Y-58944309D02*
X287149166Y-58934785D01*
X287149166Y-58934785D02*
X287196785Y-58934785D01*
X287196785Y-58934785D02*
X287215833Y-58925261D01*
X287396785Y-59001452D02*
X287377737Y-59010976D01*
X287377737Y-59010976D02*
X287339642Y-59010976D01*
X287339642Y-59010976D02*
X287320594Y-59001452D01*
X287320594Y-59001452D02*
X287311071Y-58991928D01*
X287311071Y-58991928D02*
X287301547Y-58972880D01*
X287301547Y-58972880D02*
X287301547Y-58915738D01*
X287301547Y-58915738D02*
X287311071Y-58896690D01*
X287311071Y-58896690D02*
X287320594Y-58887166D01*
X287320594Y-58887166D02*
X287339642Y-58877642D01*
X287339642Y-58877642D02*
X287377737Y-58877642D01*
X287377737Y-58877642D02*
X287396785Y-58887166D01*
X287482500Y-59010976D02*
X287482500Y-58810976D01*
X287501547Y-58934785D02*
X287558690Y-59010976D01*
X287558690Y-58877642D02*
X287482500Y-58953833D01*
X287634881Y-59001452D02*
X287653928Y-59010976D01*
X287653928Y-59010976D02*
X287692024Y-59010976D01*
X287692024Y-59010976D02*
X287711071Y-59001452D01*
X287711071Y-59001452D02*
X287720595Y-58982404D01*
X287720595Y-58982404D02*
X287720595Y-58972880D01*
X287720595Y-58972880D02*
X287711071Y-58953833D01*
X287711071Y-58953833D02*
X287692024Y-58944309D01*
X287692024Y-58944309D02*
X287663452Y-58944309D01*
X287663452Y-58944309D02*
X287644405Y-58934785D01*
X287644405Y-58934785D02*
X287634881Y-58915738D01*
X287634881Y-58915738D02*
X287634881Y-58906214D01*
X287634881Y-58906214D02*
X287644405Y-58887166D01*
X287644405Y-58887166D02*
X287663452Y-58877642D01*
X287663452Y-58877642D02*
X287692024Y-58877642D01*
X287692024Y-58877642D02*
X287711071Y-58887166D01*
X280464405Y-58610976D02*
X280464405Y-58410976D01*
X280578690Y-58610976D02*
X280492976Y-58496690D01*
X280578690Y-58410976D02*
X280464405Y-58525261D01*
X280664405Y-58506214D02*
X280731071Y-58506214D01*
X280759643Y-58610976D02*
X280664405Y-58610976D01*
X280664405Y-58610976D02*
X280664405Y-58410976D01*
X280664405Y-58410976D02*
X280759643Y-58410976D01*
X280845357Y-58506214D02*
X280912023Y-58506214D01*
X280940595Y-58610976D02*
X280845357Y-58610976D01*
X280845357Y-58610976D02*
X280845357Y-58410976D01*
X280845357Y-58410976D02*
X280940595Y-58410976D01*
X281026309Y-58610976D02*
X281026309Y-58410976D01*
X281026309Y-58410976D02*
X281102499Y-58410976D01*
X281102499Y-58410976D02*
X281121547Y-58420500D01*
X281121547Y-58420500D02*
X281131070Y-58430023D01*
X281131070Y-58430023D02*
X281140594Y-58449071D01*
X281140594Y-58449071D02*
X281140594Y-58477642D01*
X281140594Y-58477642D02*
X281131070Y-58496690D01*
X281131070Y-58496690D02*
X281121547Y-58506214D01*
X281121547Y-58506214D02*
X281102499Y-58515738D01*
X281102499Y-58515738D02*
X281026309Y-58515738D01*
X281226309Y-58534785D02*
X281378690Y-58534785D01*
X281512023Y-58410976D02*
X281550118Y-58410976D01*
X281550118Y-58410976D02*
X281569166Y-58420500D01*
X281569166Y-58420500D02*
X281588213Y-58439547D01*
X281588213Y-58439547D02*
X281597737Y-58477642D01*
X281597737Y-58477642D02*
X281597737Y-58544309D01*
X281597737Y-58544309D02*
X281588213Y-58582404D01*
X281588213Y-58582404D02*
X281569166Y-58601452D01*
X281569166Y-58601452D02*
X281550118Y-58610976D01*
X281550118Y-58610976D02*
X281512023Y-58610976D01*
X281512023Y-58610976D02*
X281492975Y-58601452D01*
X281492975Y-58601452D02*
X281473928Y-58582404D01*
X281473928Y-58582404D02*
X281464404Y-58544309D01*
X281464404Y-58544309D02*
X281464404Y-58477642D01*
X281464404Y-58477642D02*
X281473928Y-58439547D01*
X281473928Y-58439547D02*
X281492975Y-58420500D01*
X281492975Y-58420500D02*
X281512023Y-58410976D01*
X281683452Y-58410976D02*
X281683452Y-58572880D01*
X281683452Y-58572880D02*
X281692975Y-58591928D01*
X281692975Y-58591928D02*
X281702499Y-58601452D01*
X281702499Y-58601452D02*
X281721547Y-58610976D01*
X281721547Y-58610976D02*
X281759642Y-58610976D01*
X281759642Y-58610976D02*
X281778690Y-58601452D01*
X281778690Y-58601452D02*
X281788213Y-58591928D01*
X281788213Y-58591928D02*
X281797737Y-58572880D01*
X281797737Y-58572880D02*
X281797737Y-58410976D01*
X281864404Y-58410976D02*
X281978690Y-58410976D01*
X281921547Y-58610976D02*
X281921547Y-58410976D01*
X282146309Y-58410976D02*
X282279642Y-58410976D01*
X282279642Y-58410976D02*
X282146309Y-58610976D01*
X282146309Y-58610976D02*
X282279642Y-58610976D01*
X282393928Y-58410976D02*
X282432023Y-58410976D01*
X282432023Y-58410976D02*
X282451071Y-58420500D01*
X282451071Y-58420500D02*
X282470118Y-58439547D01*
X282470118Y-58439547D02*
X282479642Y-58477642D01*
X282479642Y-58477642D02*
X282479642Y-58544309D01*
X282479642Y-58544309D02*
X282470118Y-58582404D01*
X282470118Y-58582404D02*
X282451071Y-58601452D01*
X282451071Y-58601452D02*
X282432023Y-58610976D01*
X282432023Y-58610976D02*
X282393928Y-58610976D01*
X282393928Y-58610976D02*
X282374880Y-58601452D01*
X282374880Y-58601452D02*
X282355833Y-58582404D01*
X282355833Y-58582404D02*
X282346309Y-58544309D01*
X282346309Y-58544309D02*
X282346309Y-58477642D01*
X282346309Y-58477642D02*
X282355833Y-58439547D01*
X282355833Y-58439547D02*
X282374880Y-58420500D01*
X282374880Y-58420500D02*
X282393928Y-58410976D01*
X282565357Y-58610976D02*
X282565357Y-58410976D01*
X282565357Y-58410976D02*
X282679642Y-58610976D01*
X282679642Y-58610976D02*
X282679642Y-58410976D01*
X282774881Y-58506214D02*
X282841547Y-58506214D01*
X282870119Y-58610976D02*
X282774881Y-58610976D01*
X282774881Y-58610976D02*
X282774881Y-58410976D01*
X282774881Y-58410976D02*
X282870119Y-58410976D01*
X285464405Y-58610976D02*
X285464405Y-58410976D01*
X285578690Y-58610976D02*
X285492976Y-58496690D01*
X285578690Y-58410976D02*
X285464405Y-58525261D01*
X285664405Y-58506214D02*
X285731071Y-58506214D01*
X285759643Y-58610976D02*
X285664405Y-58610976D01*
X285664405Y-58610976D02*
X285664405Y-58410976D01*
X285664405Y-58410976D02*
X285759643Y-58410976D01*
X285845357Y-58506214D02*
X285912023Y-58506214D01*
X285940595Y-58610976D02*
X285845357Y-58610976D01*
X285845357Y-58610976D02*
X285845357Y-58410976D01*
X285845357Y-58410976D02*
X285940595Y-58410976D01*
X286026309Y-58610976D02*
X286026309Y-58410976D01*
X286026309Y-58410976D02*
X286102499Y-58410976D01*
X286102499Y-58410976D02*
X286121547Y-58420500D01*
X286121547Y-58420500D02*
X286131070Y-58430023D01*
X286131070Y-58430023D02*
X286140594Y-58449071D01*
X286140594Y-58449071D02*
X286140594Y-58477642D01*
X286140594Y-58477642D02*
X286131070Y-58496690D01*
X286131070Y-58496690D02*
X286121547Y-58506214D01*
X286121547Y-58506214D02*
X286102499Y-58515738D01*
X286102499Y-58515738D02*
X286026309Y-58515738D01*
X286226309Y-58534785D02*
X286378690Y-58534785D01*
X286512023Y-58410976D02*
X286550118Y-58410976D01*
X286550118Y-58410976D02*
X286569166Y-58420500D01*
X286569166Y-58420500D02*
X286588213Y-58439547D01*
X286588213Y-58439547D02*
X286597737Y-58477642D01*
X286597737Y-58477642D02*
X286597737Y-58544309D01*
X286597737Y-58544309D02*
X286588213Y-58582404D01*
X286588213Y-58582404D02*
X286569166Y-58601452D01*
X286569166Y-58601452D02*
X286550118Y-58610976D01*
X286550118Y-58610976D02*
X286512023Y-58610976D01*
X286512023Y-58610976D02*
X286492975Y-58601452D01*
X286492975Y-58601452D02*
X286473928Y-58582404D01*
X286473928Y-58582404D02*
X286464404Y-58544309D01*
X286464404Y-58544309D02*
X286464404Y-58477642D01*
X286464404Y-58477642D02*
X286473928Y-58439547D01*
X286473928Y-58439547D02*
X286492975Y-58420500D01*
X286492975Y-58420500D02*
X286512023Y-58410976D01*
X286683452Y-58410976D02*
X286683452Y-58572880D01*
X286683452Y-58572880D02*
X286692975Y-58591928D01*
X286692975Y-58591928D02*
X286702499Y-58601452D01*
X286702499Y-58601452D02*
X286721547Y-58610976D01*
X286721547Y-58610976D02*
X286759642Y-58610976D01*
X286759642Y-58610976D02*
X286778690Y-58601452D01*
X286778690Y-58601452D02*
X286788213Y-58591928D01*
X286788213Y-58591928D02*
X286797737Y-58572880D01*
X286797737Y-58572880D02*
X286797737Y-58410976D01*
X286864404Y-58410976D02*
X286978690Y-58410976D01*
X286921547Y-58610976D02*
X286921547Y-58410976D01*
X287146309Y-58410976D02*
X287279642Y-58410976D01*
X287279642Y-58410976D02*
X287146309Y-58610976D01*
X287146309Y-58610976D02*
X287279642Y-58610976D01*
X287393928Y-58410976D02*
X287432023Y-58410976D01*
X287432023Y-58410976D02*
X287451071Y-58420500D01*
X287451071Y-58420500D02*
X287470118Y-58439547D01*
X287470118Y-58439547D02*
X287479642Y-58477642D01*
X287479642Y-58477642D02*
X287479642Y-58544309D01*
X287479642Y-58544309D02*
X287470118Y-58582404D01*
X287470118Y-58582404D02*
X287451071Y-58601452D01*
X287451071Y-58601452D02*
X287432023Y-58610976D01*
X287432023Y-58610976D02*
X287393928Y-58610976D01*
X287393928Y-58610976D02*
X287374880Y-58601452D01*
X287374880Y-58601452D02*
X287355833Y-58582404D01*
X287355833Y-58582404D02*
X287346309Y-58544309D01*
X287346309Y-58544309D02*
X287346309Y-58477642D01*
X287346309Y-58477642D02*
X287355833Y-58439547D01*
X287355833Y-58439547D02*
X287374880Y-58420500D01*
X287374880Y-58420500D02*
X287393928Y-58410976D01*
X287565357Y-58610976D02*
X287565357Y-58410976D01*
X287565357Y-58410976D02*
X287679642Y-58610976D01*
X287679642Y-58610976D02*
X287679642Y-58410976D01*
X287774881Y-58506214D02*
X287841547Y-58506214D01*
X287870119Y-58610976D02*
X287774881Y-58610976D01*
X287774881Y-58610976D02*
X287774881Y-58410976D01*
X287774881Y-58410976D02*
X287870119Y-58410976D01*
X280613928Y-59010976D02*
X280613928Y-58810976D01*
X280613928Y-58810976D02*
X280728213Y-59010976D01*
X280728213Y-59010976D02*
X280728213Y-58810976D01*
X280852023Y-59010976D02*
X280832975Y-59001452D01*
X280832975Y-59001452D02*
X280823452Y-58991928D01*
X280823452Y-58991928D02*
X280813928Y-58972880D01*
X280813928Y-58972880D02*
X280813928Y-58915738D01*
X280813928Y-58915738D02*
X280823452Y-58896690D01*
X280823452Y-58896690D02*
X280832975Y-58887166D01*
X280832975Y-58887166D02*
X280852023Y-58877642D01*
X280852023Y-58877642D02*
X280880594Y-58877642D01*
X280880594Y-58877642D02*
X280899642Y-58887166D01*
X280899642Y-58887166D02*
X280909166Y-58896690D01*
X280909166Y-58896690D02*
X280918690Y-58915738D01*
X280918690Y-58915738D02*
X280918690Y-58972880D01*
X280918690Y-58972880D02*
X280909166Y-58991928D01*
X280909166Y-58991928D02*
X280899642Y-59001452D01*
X280899642Y-59001452D02*
X280880594Y-59010976D01*
X280880594Y-59010976D02*
X280852023Y-59010976D01*
X281191070Y-58906214D02*
X281124404Y-58906214D01*
X281124404Y-59010976D02*
X281124404Y-58810976D01*
X281124404Y-58810976D02*
X281219642Y-58810976D01*
X281295833Y-58991928D02*
X281305356Y-59001452D01*
X281305356Y-59001452D02*
X281295833Y-59010976D01*
X281295833Y-59010976D02*
X281286309Y-59001452D01*
X281286309Y-59001452D02*
X281295833Y-58991928D01*
X281295833Y-58991928D02*
X281295833Y-59010976D01*
X281505356Y-58991928D02*
X281495832Y-59001452D01*
X281495832Y-59001452D02*
X281467261Y-59010976D01*
X281467261Y-59010976D02*
X281448213Y-59010976D01*
X281448213Y-59010976D02*
X281419642Y-59001452D01*
X281419642Y-59001452D02*
X281400594Y-58982404D01*
X281400594Y-58982404D02*
X281391071Y-58963357D01*
X281391071Y-58963357D02*
X281381547Y-58925261D01*
X281381547Y-58925261D02*
X281381547Y-58896690D01*
X281381547Y-58896690D02*
X281391071Y-58858595D01*
X281391071Y-58858595D02*
X281400594Y-58839547D01*
X281400594Y-58839547D02*
X281419642Y-58820500D01*
X281419642Y-58820500D02*
X281448213Y-58810976D01*
X281448213Y-58810976D02*
X281467261Y-58810976D01*
X281467261Y-58810976D02*
X281495832Y-58820500D01*
X281495832Y-58820500D02*
X281505356Y-58830023D01*
X281676785Y-58877642D02*
X281676785Y-59010976D01*
X281591071Y-58877642D02*
X281591071Y-58982404D01*
X281591071Y-58982404D02*
X281600594Y-59001452D01*
X281600594Y-59001452D02*
X281619642Y-59010976D01*
X281619642Y-59010976D02*
X281648213Y-59010976D01*
X281648213Y-59010976D02*
X281667261Y-59001452D01*
X281667261Y-59001452D02*
X281676785Y-58991928D01*
X281863451Y-58877642D02*
X281939642Y-58877642D01*
X281892023Y-58810976D02*
X281892023Y-58982404D01*
X281892023Y-58982404D02*
X281901546Y-59001452D01*
X281901546Y-59001452D02*
X281920594Y-59010976D01*
X281920594Y-59010976D02*
X281939642Y-59010976D01*
X282006309Y-59010976D02*
X282006309Y-58877642D01*
X282006309Y-58915738D02*
X282015832Y-58896690D01*
X282015832Y-58896690D02*
X282025356Y-58887166D01*
X282025356Y-58887166D02*
X282044404Y-58877642D01*
X282044404Y-58877642D02*
X282063451Y-58877642D01*
X282215833Y-59010976D02*
X282215833Y-58906214D01*
X282215833Y-58906214D02*
X282206309Y-58887166D01*
X282206309Y-58887166D02*
X282187261Y-58877642D01*
X282187261Y-58877642D02*
X282149166Y-58877642D01*
X282149166Y-58877642D02*
X282130119Y-58887166D01*
X282215833Y-59001452D02*
X282196785Y-59010976D01*
X282196785Y-59010976D02*
X282149166Y-59010976D01*
X282149166Y-59010976D02*
X282130119Y-59001452D01*
X282130119Y-59001452D02*
X282120595Y-58982404D01*
X282120595Y-58982404D02*
X282120595Y-58963357D01*
X282120595Y-58963357D02*
X282130119Y-58944309D01*
X282130119Y-58944309D02*
X282149166Y-58934785D01*
X282149166Y-58934785D02*
X282196785Y-58934785D01*
X282196785Y-58934785D02*
X282215833Y-58925261D01*
X282396785Y-59001452D02*
X282377737Y-59010976D01*
X282377737Y-59010976D02*
X282339642Y-59010976D01*
X282339642Y-59010976D02*
X282320594Y-59001452D01*
X282320594Y-59001452D02*
X282311071Y-58991928D01*
X282311071Y-58991928D02*
X282301547Y-58972880D01*
X282301547Y-58972880D02*
X282301547Y-58915738D01*
X282301547Y-58915738D02*
X282311071Y-58896690D01*
X282311071Y-58896690D02*
X282320594Y-58887166D01*
X282320594Y-58887166D02*
X282339642Y-58877642D01*
X282339642Y-58877642D02*
X282377737Y-58877642D01*
X282377737Y-58877642D02*
X282396785Y-58887166D01*
X282482500Y-59010976D02*
X282482500Y-58810976D01*
X282501547Y-58934785D02*
X282558690Y-59010976D01*
X282558690Y-58877642D02*
X282482500Y-58953833D01*
X282634881Y-59001452D02*
X282653928Y-59010976D01*
X282653928Y-59010976D02*
X282692024Y-59010976D01*
X282692024Y-59010976D02*
X282711071Y-59001452D01*
X282711071Y-59001452D02*
X282720595Y-58982404D01*
X282720595Y-58982404D02*
X282720595Y-58972880D01*
X282720595Y-58972880D02*
X282711071Y-58953833D01*
X282711071Y-58953833D02*
X282692024Y-58944309D01*
X282692024Y-58944309D02*
X282663452Y-58944309D01*
X282663452Y-58944309D02*
X282644405Y-58934785D01*
X282644405Y-58934785D02*
X282634881Y-58915738D01*
X282634881Y-58915738D02*
X282634881Y-58906214D01*
X282634881Y-58906214D02*
X282644405Y-58887166D01*
X282644405Y-58887166D02*
X282663452Y-58877642D01*
X282663452Y-58877642D02*
X282692024Y-58877642D01*
X282692024Y-58877642D02*
X282711071Y-58887166D01*
%TD*%
M02*
