%TF.GenerationSoftware,KiCad,Pcbnew,(7.0.0)*%
%TF.CreationDate,2023-11-25T12:28:40+01:00*%
%TF.ProjectId,Eightu Ortho,45696768-7475-4204-9f72-74686f2e6b69,rev?*%
%TF.SameCoordinates,Original*%
%TF.FileFunction,Soldermask,Top*%
%TF.FilePolarity,Negative*%
%FSLAX46Y46*%
G04 Gerber Fmt 4.6, Leading zero omitted, Abs format (unit mm)*
G04 Created by KiCad (PCBNEW (7.0.0)) date 2023-11-25 12:28:40*
%MOMM*%
%LPD*%
G01*
G04 APERTURE LIST*
%ADD10C,1.750000*%
%ADD11C,3.987800*%
G04 APERTURE END LIST*
D10*
%TO.C,MX25*%
X264795000Y-71437500D03*
D11*
X269875000Y-71437500D03*
D10*
X274955000Y-71437500D03*
%TD*%
%TO.C,MX44*%
X164782500Y-114300000D03*
D11*
X169862500Y-114300000D03*
D10*
X174942500Y-114300000D03*
%TD*%
%TO.C,MX15*%
X55245000Y-71437500D03*
D11*
X60325000Y-71437500D03*
D10*
X65405000Y-71437500D03*
%TD*%
%TO.C,MX46*%
X217170000Y-114300000D03*
D11*
X222250000Y-114300000D03*
D10*
X227330000Y-114300000D03*
%TD*%
%TO.C,MX19*%
X131445000Y-71437500D03*
D11*
X136525000Y-71437500D03*
D10*
X141605000Y-71437500D03*
%TD*%
%TO.C,MX17*%
X93345000Y-71437500D03*
D11*
X98425000Y-71437500D03*
D10*
X103505000Y-71437500D03*
%TD*%
%TO.C,MX56*%
X183832500Y-114300000D03*
D11*
X188912500Y-114300000D03*
D10*
X193992500Y-114300000D03*
%TD*%
%TO.C,MX51*%
X221932500Y-114300000D03*
D11*
X227012500Y-114300000D03*
D10*
X232092500Y-114300000D03*
%TD*%
%TO.C,MX49*%
X283845000Y-114300000D03*
D11*
X288925000Y-114300000D03*
D10*
X294005000Y-114300000D03*
%TD*%
%TO.C,MX35*%
X188595000Y-90487500D03*
D11*
X193675000Y-90487500D03*
D10*
X198755000Y-90487500D03*
%TD*%
%TO.C,MX22*%
X188595000Y-71437500D03*
D11*
X193675000Y-71437500D03*
D10*
X198755000Y-71437500D03*
%TD*%
%TO.C,MX50*%
X88582500Y-114300000D03*
D11*
X93662500Y-114300000D03*
D10*
X98742500Y-114300000D03*
%TD*%
%TO.C,MX41*%
X60007500Y-109537500D03*
D11*
X65087500Y-109537500D03*
D10*
X70167500Y-109537500D03*
%TD*%
%TO.C,MX54*%
X129063750Y-114300000D03*
D11*
X134143750Y-114300000D03*
D10*
X139223750Y-114300000D03*
%TD*%
%TO.C,MX48*%
X264795000Y-114300000D03*
D11*
X269875000Y-114300000D03*
D10*
X274955000Y-114300000D03*
%TD*%
%TO.C,MX34*%
X169545000Y-90487500D03*
D11*
X174625000Y-90487500D03*
D10*
X179705000Y-90487500D03*
%TD*%
%TO.C,MX5*%
X131445000Y-52387500D03*
D11*
X136525000Y-52387500D03*
D10*
X141605000Y-52387500D03*
%TD*%
%TO.C,MX21*%
X169545000Y-71437500D03*
D11*
X174625000Y-71437500D03*
D10*
X179705000Y-71437500D03*
%TD*%
D11*
%TO.C,S2*%
X200818750Y-106045000D03*
X177006250Y-106045000D03*
%TD*%
D10*
%TO.C,MX26*%
X288607500Y-71437500D03*
D11*
X293687500Y-71437500D03*
D10*
X298767500Y-71437500D03*
%TD*%
%TO.C,MX42*%
X93345000Y-114300000D03*
D11*
X98425000Y-114300000D03*
D10*
X103505000Y-114300000D03*
%TD*%
D11*
%TO.C,S10*%
X193675000Y-106045000D03*
X169862500Y-106045000D03*
%TD*%
%TO.C,S3*%
X227012500Y-106045000D03*
X112712500Y-106045000D03*
%TD*%
D10*
%TO.C,MX12*%
X264795000Y-52387500D03*
D11*
X269875000Y-52387500D03*
D10*
X274955000Y-52387500D03*
%TD*%
%TO.C,MX14*%
X245745000Y-71437500D03*
D11*
X250825000Y-71437500D03*
D10*
X255905000Y-71437500D03*
%TD*%
%TO.C,MX40*%
X145732500Y-114300000D03*
D11*
X150812500Y-114300000D03*
D10*
X155892500Y-114300000D03*
%TD*%
%TO.C,MX36*%
X207645000Y-90487500D03*
D11*
X212725000Y-90487500D03*
D10*
X217805000Y-90487500D03*
%TD*%
%TO.C,MX59*%
X202882500Y-114300000D03*
D11*
X207962500Y-114300000D03*
D10*
X213042500Y-114300000D03*
%TD*%
%TO.C,MX61*%
X226695000Y-90487500D03*
D11*
X231775000Y-90487500D03*
D10*
X236855000Y-90487500D03*
%TD*%
%TO.C,MX8*%
X188595000Y-52387500D03*
D11*
X193675000Y-52387500D03*
D10*
X198755000Y-52387500D03*
%TD*%
%TO.C,MX52*%
X107632500Y-114300000D03*
D11*
X112712500Y-114300000D03*
D10*
X117792500Y-114300000D03*
%TD*%
%TO.C,MX58*%
X176688750Y-114300000D03*
D11*
X181768750Y-114300000D03*
D10*
X186848750Y-114300000D03*
%TD*%
D11*
%TO.C,S7*%
X150812500Y-106045000D03*
X112712500Y-106045000D03*
%TD*%
%TO.C,S1*%
X143668750Y-106045000D03*
X119856250Y-106045000D03*
%TD*%
D10*
%TO.C,MX31*%
X112395000Y-90487500D03*
D11*
X117475000Y-90487500D03*
D10*
X122555000Y-90487500D03*
%TD*%
%TO.C,MX38*%
X264795000Y-95250000D03*
D11*
X269875000Y-95250000D03*
D10*
X274955000Y-95250000D03*
%TD*%
%TO.C,MX18*%
X112395000Y-71437500D03*
D11*
X117475000Y-71437500D03*
D10*
X122555000Y-71437500D03*
%TD*%
%TO.C,MX32*%
X131445000Y-90487500D03*
D11*
X136525000Y-90487500D03*
D10*
X141605000Y-90487500D03*
%TD*%
%TO.C,MX29*%
X74295000Y-90487500D03*
D11*
X79375000Y-90487500D03*
D10*
X84455000Y-90487500D03*
%TD*%
%TO.C,MX6*%
X150495000Y-52387500D03*
D11*
X155575000Y-52387500D03*
D10*
X160655000Y-52387500D03*
%TD*%
%TO.C,MX30*%
X93345000Y-90487500D03*
D11*
X98425000Y-90487500D03*
D10*
X103505000Y-90487500D03*
%TD*%
%TO.C,MX1*%
X55245000Y-52387500D03*
D11*
X60325000Y-52387500D03*
D10*
X65405000Y-52387500D03*
%TD*%
%TO.C,MX7*%
X169545000Y-52387500D03*
D11*
X174625000Y-52387500D03*
D10*
X179705000Y-52387500D03*
%TD*%
%TO.C,MX39*%
X288607500Y-90487500D03*
D11*
X293687500Y-90487500D03*
D10*
X298767500Y-90487500D03*
%TD*%
%TO.C,MX28*%
X55245000Y-90487500D03*
D11*
X60325000Y-90487500D03*
D10*
X65405000Y-90487500D03*
%TD*%
D11*
%TO.C,S5*%
X188912500Y-106045000D03*
X131762500Y-106045000D03*
%TD*%
%TO.C,S4*%
X207962500Y-106045000D03*
X112712500Y-106045000D03*
%TD*%
D10*
%TO.C,MX37*%
X233838750Y-90487500D03*
D11*
X238918750Y-90487500D03*
D10*
X243998750Y-90487500D03*
%TD*%
%TO.C,MX47*%
X245745000Y-114300000D03*
D11*
X250825000Y-114300000D03*
D10*
X255905000Y-114300000D03*
%TD*%
%TO.C,MX20*%
X150495000Y-71437500D03*
D11*
X155575000Y-71437500D03*
D10*
X160655000Y-71437500D03*
%TD*%
%TO.C,MX16*%
X74295000Y-71437500D03*
D11*
X79375000Y-71437500D03*
D10*
X84455000Y-71437500D03*
%TD*%
%TO.C,MX11*%
X245745000Y-52387500D03*
D11*
X250825000Y-52387500D03*
D10*
X255905000Y-52387500D03*
%TD*%
%TO.C,MX3*%
X93345000Y-52387500D03*
D11*
X98425000Y-52387500D03*
D10*
X103505000Y-52387500D03*
%TD*%
%TO.C,MX27*%
X126682500Y-114300000D03*
D11*
X131762500Y-114300000D03*
D10*
X136842500Y-114300000D03*
%TD*%
D11*
%TO.C,S8*%
X207962500Y-106045000D03*
X169862500Y-106045000D03*
%TD*%
%TO.C,S9*%
X146050000Y-106045000D03*
X122237500Y-106045000D03*
%TD*%
D10*
%TO.C,MX33*%
X150495000Y-90487500D03*
D11*
X155575000Y-90487500D03*
D10*
X160655000Y-90487500D03*
%TD*%
%TO.C,MX23*%
X207645000Y-71437500D03*
D11*
X212725000Y-71437500D03*
D10*
X217805000Y-71437500D03*
%TD*%
D11*
%TO.C,S6*%
X227012500Y-106045000D03*
X93662500Y-106045000D03*
%TD*%
D10*
%TO.C,MX10*%
X226695000Y-52387500D03*
D11*
X231775000Y-52387500D03*
D10*
X236855000Y-52387500D03*
%TD*%
%TO.C,MX4*%
X112395000Y-52387500D03*
D11*
X117475000Y-52387500D03*
D10*
X122555000Y-52387500D03*
%TD*%
%TO.C,MX9*%
X207645000Y-52387500D03*
D11*
X212725000Y-52387500D03*
D10*
X217805000Y-52387500D03*
%TD*%
%TO.C,MX13*%
X288607500Y-52387500D03*
D11*
X293687500Y-52387500D03*
D10*
X298767500Y-52387500D03*
%TD*%
%TO.C,MX24*%
X226695000Y-71437500D03*
D11*
X231775000Y-71437500D03*
D10*
X236855000Y-71437500D03*
%TD*%
%TO.C,MX55*%
X155257500Y-114300000D03*
D11*
X160337500Y-114300000D03*
D10*
X165417500Y-114300000D03*
%TD*%
%TO.C,MX2*%
X74295000Y-52387500D03*
D11*
X79375000Y-52387500D03*
D10*
X84455000Y-52387500D03*
%TD*%
M02*
