%TF.GenerationSoftware,KiCad,Pcbnew,(7.0.0)*%
%TF.CreationDate,2023-11-25T12:28:40+01:00*%
%TF.ProjectId,Eightu Ortho,45696768-7475-4204-9f72-74686f2e6b69,rev?*%
%TF.SameCoordinates,Original*%
%TF.FileFunction,Legend,Bot*%
%TF.FilePolarity,Positive*%
%FSLAX46Y46*%
G04 Gerber Fmt 4.6, Leading zero omitted, Abs format (unit mm)*
G04 Created by KiCad (PCBNEW (7.0.0)) date 2023-11-25 12:28:40*
%MOMM*%
%LPD*%
G01*
G04 APERTURE LIST*
G04 Aperture macros list*
%AMRoundRect*
0 Rectangle with rounded corners*
0 $1 Rounding radius*
0 $2 $3 $4 $5 $6 $7 $8 $9 X,Y pos of 4 corners*
0 Add a 4 corners polygon primitive as box body*
4,1,4,$2,$3,$4,$5,$6,$7,$8,$9,$2,$3,0*
0 Add four circle primitives for the rounded corners*
1,1,$1+$1,$2,$3*
1,1,$1+$1,$4,$5*
1,1,$1+$1,$6,$7*
1,1,$1+$1,$8,$9*
0 Add four rect primitives between the rounded corners*
20,1,$1+$1,$2,$3,$4,$5,0*
20,1,$1+$1,$4,$5,$6,$7,0*
20,1,$1+$1,$6,$7,$8,$9,0*
20,1,$1+$1,$8,$9,$2,$3,0*%
G04 Aperture macros list end*
%ADD10C,0.120000*%
%ADD11C,0.150000*%
%ADD12C,1.750000*%
%ADD13C,3.987800*%
%ADD14C,2.300000*%
%ADD15C,4.000000*%
%ADD16C,2.000000*%
%ADD17RoundRect,0.500000X0.500000X-0.500000X0.500000X0.500000X-0.500000X0.500000X-0.500000X-0.500000X0*%
%ADD18RoundRect,0.550000X0.550000X-1.150000X0.550000X1.150000X-0.550000X1.150000X-0.550000X-1.150000X0*%
%ADD19RoundRect,0.500000X-0.500000X-0.500000X0.500000X-0.500000X0.500000X0.500000X-0.500000X0.500000X0*%
%ADD20RoundRect,0.550000X-1.150000X-0.550000X1.150000X-0.550000X1.150000X0.550000X-1.150000X0.550000X0*%
%ADD21RoundRect,0.500000X0.500000X0.500000X-0.500000X0.500000X-0.500000X-0.500000X0.500000X-0.500000X0*%
%ADD22RoundRect,0.550000X1.150000X0.550000X-1.150000X0.550000X-1.150000X-0.550000X1.150000X-0.550000X0*%
%ADD23RoundRect,0.250000X0.300000X-0.300000X0.300000X0.300000X-0.300000X0.300000X-0.300000X-0.300000X0*%
%ADD24RoundRect,0.075000X0.075000X-0.662500X0.075000X0.662500X-0.075000X0.662500X-0.075000X-0.662500X0*%
%ADD25RoundRect,0.075000X0.662500X-0.075000X0.662500X0.075000X-0.662500X0.075000X-0.662500X-0.075000X0*%
%ADD26RoundRect,0.140000X0.140000X0.170000X-0.140000X0.170000X-0.140000X-0.170000X0.140000X-0.170000X0*%
%ADD27RoundRect,0.140000X-0.170000X0.140000X-0.170000X-0.140000X0.170000X-0.140000X0.170000X0.140000X0*%
%ADD28RoundRect,0.150000X0.625000X-0.150000X0.625000X0.150000X-0.625000X0.150000X-0.625000X-0.150000X0*%
%ADD29RoundRect,0.250000X0.650000X-0.350000X0.650000X0.350000X-0.650000X0.350000X-0.650000X-0.350000X0*%
%ADD30RoundRect,0.150000X0.150000X-0.587500X0.150000X0.587500X-0.150000X0.587500X-0.150000X-0.587500X0*%
%ADD31RoundRect,0.225000X-0.225000X-0.250000X0.225000X-0.250000X0.225000X0.250000X-0.225000X0.250000X0*%
%ADD32RoundRect,0.275000X0.625000X0.275000X-0.625000X0.275000X-0.625000X-0.275000X0.625000X-0.275000X0*%
%ADD33RoundRect,0.140000X-0.140000X-0.170000X0.140000X-0.170000X0.140000X0.170000X-0.140000X0.170000X0*%
%ADD34RoundRect,0.150000X0.275000X-0.150000X0.275000X0.150000X-0.275000X0.150000X-0.275000X-0.150000X0*%
%ADD35RoundRect,0.175000X0.225000X-0.175000X0.225000X0.175000X-0.225000X0.175000X-0.225000X-0.175000X0*%
%ADD36RoundRect,0.135000X0.135000X0.185000X-0.135000X0.185000X-0.135000X-0.185000X0.135000X-0.185000X0*%
G04 APERTURE END LIST*
D10*
X131762500Y-103981250D02*
X131762500Y-103187500D01*
X169862500Y-99912500D02*
X171182500Y-99912500D01*
X171662500Y-99912500D02*
X172982500Y-99912500D01*
X173462500Y-99912500D02*
X174782500Y-99912500D01*
X175262500Y-99912500D02*
X176582500Y-99912500D01*
X177062500Y-99912500D02*
X178382500Y-99912500D01*
X178862500Y-99912500D02*
X180182500Y-99912500D01*
X180662500Y-99912500D02*
X181982500Y-99912500D01*
X182462500Y-99912500D02*
X183782500Y-99912500D01*
X184262500Y-99912500D02*
X185582500Y-99912500D01*
X186062500Y-99912500D02*
X187382500Y-99912500D01*
X187862500Y-99912500D02*
X189182500Y-99912500D01*
X189662500Y-99912500D02*
X190982500Y-99912500D01*
X191462500Y-99912500D02*
X192782500Y-99912500D01*
X193262500Y-99912500D02*
X194582500Y-99912500D01*
X195062500Y-99912500D02*
X196382500Y-99912500D01*
X196862500Y-99912500D02*
X198182500Y-99912500D01*
X198662500Y-99912500D02*
X199982500Y-99912500D01*
X200462500Y-99912500D02*
X201782500Y-99912500D01*
X202262500Y-99912500D02*
X203582500Y-99912500D01*
X204062500Y-99912500D02*
X205382500Y-99912500D01*
X205862500Y-99912500D02*
X207182500Y-99912500D01*
X207662500Y-99912500D02*
X207962500Y-99912500D01*
X122237500Y-99912500D02*
X122237500Y-101232500D01*
X122237500Y-101712500D02*
X122237500Y-103032500D01*
X122237500Y-103512500D02*
X122237500Y-103881250D01*
X177006250Y-99912500D02*
X177006250Y-101232500D01*
X177006250Y-101712500D02*
X177006250Y-103032500D01*
X177006250Y-103512500D02*
X177006250Y-103881250D01*
X93662500Y-103187500D02*
X227012500Y-103187500D01*
X119856250Y-99912500D02*
X119856250Y-101232500D01*
X119856250Y-101712500D02*
X119856250Y-103032500D01*
X119856250Y-103512500D02*
X119856250Y-103881250D01*
X112712500Y-103981250D02*
X112712500Y-103187500D01*
X227012500Y-103981250D02*
X227012500Y-103187500D01*
X112712500Y-99912500D02*
X112712500Y-101232500D01*
X143668750Y-99912500D02*
X143668750Y-101232500D01*
X143668750Y-101712500D02*
X143668750Y-103032500D01*
X143668750Y-103512500D02*
X143668750Y-103881250D01*
X188912500Y-103981250D02*
X188912500Y-103187500D01*
X193690467Y-99896426D02*
X193690467Y-101216426D01*
X193690467Y-101696426D02*
X193690467Y-103016426D01*
X193690467Y-103496426D02*
X193690467Y-103865176D01*
D11*
X248443750Y-92266250D02*
X248443750Y-93916250D01*
D10*
X169862500Y-99912500D02*
X169862500Y-101232500D01*
X169862500Y-101712500D02*
X169862500Y-103032500D01*
X169862500Y-103512500D02*
X169862500Y-103881250D01*
X200818750Y-99912500D02*
X200818750Y-101232500D01*
X200818750Y-101712500D02*
X200818750Y-103032500D01*
X200818750Y-103512500D02*
X200818750Y-103881250D01*
X112712500Y-99912500D02*
X114032500Y-99912500D01*
X114512500Y-99912500D02*
X115832500Y-99912500D01*
X116312500Y-99912500D02*
X117632500Y-99912500D01*
X118112500Y-99912500D02*
X119432500Y-99912500D01*
X119912500Y-99912500D02*
X121232500Y-99912500D01*
X121712500Y-99912500D02*
X123032500Y-99912500D01*
X123512500Y-99912500D02*
X124832500Y-99912500D01*
X125312500Y-99912500D02*
X126632500Y-99912500D01*
X127112500Y-99912500D02*
X128432500Y-99912500D01*
X128912500Y-99912500D02*
X130232500Y-99912500D01*
X130712500Y-99912500D02*
X132032500Y-99912500D01*
X132512500Y-99912500D02*
X133832500Y-99912500D01*
X134312500Y-99912500D02*
X135632500Y-99912500D01*
X136112500Y-99912500D02*
X137432500Y-99912500D01*
X137912500Y-99912500D02*
X139232500Y-99912500D01*
X139712500Y-99912500D02*
X141032500Y-99912500D01*
X141512500Y-99912500D02*
X142832500Y-99912500D01*
X143312500Y-99912500D02*
X144632500Y-99912500D01*
X145112500Y-99912500D02*
X146432500Y-99912500D01*
X146912500Y-99912500D02*
X148232500Y-99912500D01*
X148712500Y-99912500D02*
X150032500Y-99912500D01*
X150512500Y-99912500D02*
X150812500Y-99912500D01*
X207962500Y-99912500D02*
X207962500Y-101232500D01*
X146050000Y-99910190D02*
X146050000Y-101230190D01*
X146050000Y-101710190D02*
X146050000Y-103030190D01*
X146050000Y-103510190D02*
X146050000Y-103878940D01*
X207962500Y-103981250D02*
X207962500Y-103187500D01*
X232568750Y-94456250D02*
X233888750Y-94456250D01*
X234368750Y-94456250D02*
X235688750Y-94456250D01*
X236168750Y-94456250D02*
X237488750Y-94456250D01*
X237968750Y-94456250D02*
X239288750Y-94456250D01*
X239768750Y-94456250D02*
X241088750Y-94456250D01*
X241568750Y-94456250D02*
X242888750Y-94456250D01*
X243368750Y-94456250D02*
X244688750Y-94456250D01*
X245168750Y-94456250D02*
X246488750Y-94456250D01*
X246968750Y-94456250D02*
X248288750Y-94456250D01*
X93662500Y-103981250D02*
X93662500Y-103187500D01*
X150802205Y-98678471D02*
X150804817Y-99998468D01*
X150805767Y-100478467D02*
X150808379Y-101798465D01*
X150809328Y-102278464D02*
X150811940Y-103598461D01*
D11*
X134400892Y-117785107D02*
X134358035Y-117742250D01*
X134358035Y-117742250D02*
X134272321Y-117699392D01*
X134272321Y-117699392D02*
X134058035Y-117699392D01*
X134058035Y-117699392D02*
X133972321Y-117742250D01*
X133972321Y-117742250D02*
X133929463Y-117785107D01*
X133929463Y-117785107D02*
X133886606Y-117870821D01*
X133886606Y-117870821D02*
X133886606Y-117956535D01*
X133886606Y-117956535D02*
X133929463Y-118085107D01*
X133929463Y-118085107D02*
X134443749Y-118599392D01*
X134443749Y-118599392D02*
X133886606Y-118599392D01*
X207705356Y-111455642D02*
X208219642Y-111455642D01*
X207962499Y-111455642D02*
X207962499Y-110555642D01*
X207962499Y-110555642D02*
X208048213Y-110684214D01*
X208048213Y-110684214D02*
X208133928Y-110769928D01*
X208133928Y-110769928D02*
X208219642Y-110812785D01*
X143925892Y-98735107D02*
X143883035Y-98692250D01*
X143883035Y-98692250D02*
X143797321Y-98649392D01*
X143797321Y-98649392D02*
X143583035Y-98649392D01*
X143583035Y-98649392D02*
X143497321Y-98692250D01*
X143497321Y-98692250D02*
X143454463Y-98735107D01*
X143454463Y-98735107D02*
X143411606Y-98820821D01*
X143411606Y-98820821D02*
X143411606Y-98906535D01*
X143411606Y-98906535D02*
X143454463Y-99035107D01*
X143454463Y-99035107D02*
X143968749Y-99549392D01*
X143968749Y-99549392D02*
X143411606Y-99549392D01*
X160186820Y-118493142D02*
X160358248Y-118493142D01*
X160358248Y-118493142D02*
X160443962Y-118536000D01*
X160443962Y-118536000D02*
X160486820Y-118578857D01*
X160486820Y-118578857D02*
X160572534Y-118707428D01*
X160572534Y-118707428D02*
X160615391Y-118878857D01*
X160615391Y-118878857D02*
X160615391Y-119221714D01*
X160615391Y-119221714D02*
X160572534Y-119307428D01*
X160572534Y-119307428D02*
X160529677Y-119350285D01*
X160529677Y-119350285D02*
X160443962Y-119393142D01*
X160443962Y-119393142D02*
X160272534Y-119393142D01*
X160272534Y-119393142D02*
X160186820Y-119350285D01*
X160186820Y-119350285D02*
X160143962Y-119307428D01*
X160143962Y-119307428D02*
X160101105Y-119221714D01*
X160101105Y-119221714D02*
X160101105Y-119007428D01*
X160101105Y-119007428D02*
X160143962Y-118921714D01*
X160143962Y-118921714D02*
X160186820Y-118878857D01*
X160186820Y-118878857D02*
X160272534Y-118836000D01*
X160272534Y-118836000D02*
X160443962Y-118836000D01*
X160443962Y-118836000D02*
X160529677Y-118878857D01*
X160529677Y-118878857D02*
X160572534Y-118921714D01*
X160572534Y-118921714D02*
X160615391Y-119007428D01*
X189212499Y-116905642D02*
X188655356Y-116905642D01*
X188655356Y-116905642D02*
X188955356Y-117248500D01*
X188955356Y-117248500D02*
X188826785Y-117248500D01*
X188826785Y-117248500D02*
X188741071Y-117291357D01*
X188741071Y-117291357D02*
X188698213Y-117334214D01*
X188698213Y-117334214D02*
X188655356Y-117419928D01*
X188655356Y-117419928D02*
X188655356Y-117634214D01*
X188655356Y-117634214D02*
X188698213Y-117719928D01*
X188698213Y-117719928D02*
X188741071Y-117762785D01*
X188741071Y-117762785D02*
X188826785Y-117805642D01*
X188826785Y-117805642D02*
X189083928Y-117805642D01*
X189083928Y-117805642D02*
X189169642Y-117762785D01*
X189169642Y-117762785D02*
X189212499Y-117719928D01*
X150318749Y-98649392D02*
X149761606Y-98649392D01*
X149761606Y-98649392D02*
X150061606Y-98992250D01*
X150061606Y-98992250D02*
X149933035Y-98992250D01*
X149933035Y-98992250D02*
X149847321Y-99035107D01*
X149847321Y-99035107D02*
X149804463Y-99077964D01*
X149804463Y-99077964D02*
X149761606Y-99163678D01*
X149761606Y-99163678D02*
X149761606Y-99377964D01*
X149761606Y-99377964D02*
X149804463Y-99463678D01*
X149804463Y-99463678D02*
X149847321Y-99506535D01*
X149847321Y-99506535D02*
X149933035Y-99549392D01*
X149933035Y-99549392D02*
X150190178Y-99549392D01*
X150190178Y-99549392D02*
X150275892Y-99506535D01*
X150275892Y-99506535D02*
X150318749Y-99463678D01*
X99024999Y-117805642D02*
X99539285Y-117805642D01*
X99282142Y-117805642D02*
X99282142Y-116905642D01*
X99282142Y-116905642D02*
X99367856Y-117034214D01*
X99367856Y-117034214D02*
X99453571Y-117119928D01*
X99453571Y-117119928D02*
X99539285Y-117162785D01*
X98210713Y-116905642D02*
X98639285Y-116905642D01*
X98639285Y-116905642D02*
X98682142Y-117334214D01*
X98682142Y-117334214D02*
X98639285Y-117291357D01*
X98639285Y-117291357D02*
X98553571Y-117248500D01*
X98553571Y-117248500D02*
X98339285Y-117248500D01*
X98339285Y-117248500D02*
X98253571Y-117291357D01*
X98253571Y-117291357D02*
X98210713Y-117334214D01*
X98210713Y-117334214D02*
X98167856Y-117419928D01*
X98167856Y-117419928D02*
X98167856Y-117634214D01*
X98167856Y-117634214D02*
X98210713Y-117719928D01*
X98210713Y-117719928D02*
X98253571Y-117762785D01*
X98253571Y-117762785D02*
X98339285Y-117805642D01*
X98339285Y-117805642D02*
X98553571Y-117805642D01*
X98553571Y-117805642D02*
X98639285Y-117762785D01*
X98639285Y-117762785D02*
X98682142Y-117719928D01*
X97610713Y-116905642D02*
X97524999Y-116905642D01*
X97524999Y-116905642D02*
X97439285Y-116948500D01*
X97439285Y-116948500D02*
X97396428Y-116991357D01*
X97396428Y-116991357D02*
X97353570Y-117077071D01*
X97353570Y-117077071D02*
X97310713Y-117248500D01*
X97310713Y-117248500D02*
X97310713Y-117462785D01*
X97310713Y-117462785D02*
X97353570Y-117634214D01*
X97353570Y-117634214D02*
X97396428Y-117719928D01*
X97396428Y-117719928D02*
X97439285Y-117762785D01*
X97439285Y-117762785D02*
X97524999Y-117805642D01*
X97524999Y-117805642D02*
X97610713Y-117805642D01*
X97610713Y-117805642D02*
X97696428Y-117762785D01*
X97696428Y-117762785D02*
X97739285Y-117719928D01*
X97739285Y-117719928D02*
X97782142Y-117634214D01*
X97782142Y-117634214D02*
X97824999Y-117462785D01*
X97824999Y-117462785D02*
X97824999Y-117248500D01*
X97824999Y-117248500D02*
X97782142Y-117077071D01*
X97782142Y-117077071D02*
X97739285Y-116991357D01*
X97739285Y-116991357D02*
X97696428Y-116948500D01*
X97696428Y-116948500D02*
X97610713Y-116905642D01*
X112455356Y-111455642D02*
X112969642Y-111455642D01*
X112712499Y-111455642D02*
X112712499Y-110555642D01*
X112712499Y-110555642D02*
X112798213Y-110684214D01*
X112798213Y-110684214D02*
X112883928Y-110769928D01*
X112883928Y-110769928D02*
X112969642Y-110812785D01*
X248113211Y-90948058D02*
X248413211Y-90519487D01*
X248627497Y-90948058D02*
X248627497Y-90048058D01*
X248627497Y-90048058D02*
X248284640Y-90048058D01*
X248284640Y-90048058D02*
X248198925Y-90090916D01*
X248198925Y-90090916D02*
X248156068Y-90133773D01*
X248156068Y-90133773D02*
X248113211Y-90219487D01*
X248113211Y-90219487D02*
X248113211Y-90348058D01*
X248113211Y-90348058D02*
X248156068Y-90433773D01*
X248156068Y-90433773D02*
X248198925Y-90476630D01*
X248198925Y-90476630D02*
X248284640Y-90519487D01*
X248284640Y-90519487D02*
X248627497Y-90519487D01*
X132035003Y-118302343D02*
X131992146Y-118259486D01*
X131992146Y-118259486D02*
X131906432Y-118216628D01*
X131906432Y-118216628D02*
X131692146Y-118216628D01*
X131692146Y-118216628D02*
X131606432Y-118259486D01*
X131606432Y-118259486D02*
X131563574Y-118302343D01*
X131563574Y-118302343D02*
X131520717Y-118388057D01*
X131520717Y-118388057D02*
X131520717Y-118473771D01*
X131520717Y-118473771D02*
X131563574Y-118602343D01*
X131563574Y-118602343D02*
X132077860Y-119116628D01*
X132077860Y-119116628D02*
X131520717Y-119116628D01*
X131591071Y-102124392D02*
X131591071Y-102724392D01*
X131805356Y-101781535D02*
X132019642Y-102424392D01*
X132019642Y-102424392D02*
X131462499Y-102424392D01*
X113012499Y-98649392D02*
X112455356Y-98649392D01*
X112455356Y-98649392D02*
X112755356Y-98992250D01*
X112755356Y-98992250D02*
X112626785Y-98992250D01*
X112626785Y-98992250D02*
X112541071Y-99035107D01*
X112541071Y-99035107D02*
X112498213Y-99077964D01*
X112498213Y-99077964D02*
X112455356Y-99163678D01*
X112455356Y-99163678D02*
X112455356Y-99377964D01*
X112455356Y-99377964D02*
X112498213Y-99463678D01*
X112498213Y-99463678D02*
X112541071Y-99506535D01*
X112541071Y-99506535D02*
X112626785Y-99549392D01*
X112626785Y-99549392D02*
X112883928Y-99549392D01*
X112883928Y-99549392D02*
X112969642Y-99506535D01*
X112969642Y-99506535D02*
X113012499Y-99463678D01*
X150555356Y-111455642D02*
X151069642Y-111455642D01*
X150812499Y-111455642D02*
X150812499Y-110555642D01*
X150812499Y-110555642D02*
X150898213Y-110684214D01*
X150898213Y-110684214D02*
X150983928Y-110769928D01*
X150983928Y-110769928D02*
X151069642Y-110812785D01*
X231517856Y-94786892D02*
X232032142Y-94786892D01*
X231774999Y-94786892D02*
X231774999Y-93886892D01*
X231774999Y-93886892D02*
X231860713Y-94015464D01*
X231860713Y-94015464D02*
X231946428Y-94101178D01*
X231946428Y-94101178D02*
X232032142Y-94144035D01*
X160080356Y-122568142D02*
X160594642Y-122568142D01*
X160337499Y-122568142D02*
X160337499Y-121668142D01*
X160337499Y-121668142D02*
X160423213Y-121796714D01*
X160423213Y-121796714D02*
X160508928Y-121882428D01*
X160508928Y-121882428D02*
X160594642Y-121925285D01*
X170162499Y-116905642D02*
X169562499Y-116905642D01*
X169562499Y-116905642D02*
X169948213Y-117805642D01*
X63119047Y-121226130D02*
X63214285Y-121178511D01*
X63214285Y-121178511D02*
X63261904Y-121130892D01*
X63261904Y-121130892D02*
X63309523Y-121035654D01*
X63309523Y-121035654D02*
X63309523Y-120749940D01*
X63309523Y-120749940D02*
X63261904Y-120654702D01*
X63261904Y-120654702D02*
X63214285Y-120607083D01*
X63214285Y-120607083D02*
X63119047Y-120559464D01*
X63119047Y-120559464D02*
X62976190Y-120559464D01*
X62976190Y-120559464D02*
X62880952Y-120607083D01*
X62880952Y-120607083D02*
X62833333Y-120654702D01*
X62833333Y-120654702D02*
X62785714Y-120749940D01*
X62785714Y-120749940D02*
X62785714Y-121035654D01*
X62785714Y-121035654D02*
X62833333Y-121130892D01*
X62833333Y-121130892D02*
X62880952Y-121178511D01*
X62880952Y-121178511D02*
X62976190Y-121226130D01*
X62976190Y-121226130D02*
X63119047Y-121226130D01*
X62357142Y-121226130D02*
X62357142Y-120559464D01*
X62357142Y-120749940D02*
X62309523Y-120654702D01*
X62309523Y-120654702D02*
X62261904Y-120607083D01*
X62261904Y-120607083D02*
X62166666Y-120559464D01*
X62166666Y-120559464D02*
X62071428Y-120559464D01*
X61880951Y-120559464D02*
X61499999Y-120559464D01*
X61738094Y-120226130D02*
X61738094Y-121083273D01*
X61738094Y-121083273D02*
X61690475Y-121178511D01*
X61690475Y-121178511D02*
X61595237Y-121226130D01*
X61595237Y-121226130D02*
X61499999Y-121226130D01*
X61166665Y-121226130D02*
X61166665Y-120226130D01*
X60738094Y-121226130D02*
X60738094Y-120702321D01*
X60738094Y-120702321D02*
X60785713Y-120607083D01*
X60785713Y-120607083D02*
X60880951Y-120559464D01*
X60880951Y-120559464D02*
X61023808Y-120559464D01*
X61023808Y-120559464D02*
X61119046Y-120607083D01*
X61119046Y-120607083D02*
X61166665Y-120654702D01*
X60119046Y-121226130D02*
X60214284Y-121178511D01*
X60214284Y-121178511D02*
X60261903Y-121130892D01*
X60261903Y-121130892D02*
X60309522Y-121035654D01*
X60309522Y-121035654D02*
X60309522Y-120749940D01*
X60309522Y-120749940D02*
X60261903Y-120654702D01*
X60261903Y-120654702D02*
X60214284Y-120607083D01*
X60214284Y-120607083D02*
X60119046Y-120559464D01*
X60119046Y-120559464D02*
X59976189Y-120559464D01*
X59976189Y-120559464D02*
X59880951Y-120607083D01*
X59880951Y-120607083D02*
X59833332Y-120654702D01*
X59833332Y-120654702D02*
X59785713Y-120749940D01*
X59785713Y-120749940D02*
X59785713Y-121035654D01*
X59785713Y-121035654D02*
X59833332Y-121130892D01*
X59833332Y-121130892D02*
X59880951Y-121178511D01*
X59880951Y-121178511D02*
X59976189Y-121226130D01*
X59976189Y-121226130D02*
X60119046Y-121226130D01*
X193932142Y-98735107D02*
X193889285Y-98692250D01*
X193889285Y-98692250D02*
X193803571Y-98649392D01*
X193803571Y-98649392D02*
X193589285Y-98649392D01*
X193589285Y-98649392D02*
X193503571Y-98692250D01*
X193503571Y-98692250D02*
X193460713Y-98735107D01*
X193460713Y-98735107D02*
X193417856Y-98820821D01*
X193417856Y-98820821D02*
X193417856Y-98906535D01*
X193417856Y-98906535D02*
X193460713Y-99035107D01*
X193460713Y-99035107D02*
X193974999Y-99549392D01*
X193974999Y-99549392D02*
X193417856Y-99549392D01*
X208262499Y-98649392D02*
X207705356Y-98649392D01*
X207705356Y-98649392D02*
X208005356Y-98992250D01*
X208005356Y-98992250D02*
X207876785Y-98992250D01*
X207876785Y-98992250D02*
X207791071Y-99035107D01*
X207791071Y-99035107D02*
X207748213Y-99077964D01*
X207748213Y-99077964D02*
X207705356Y-99163678D01*
X207705356Y-99163678D02*
X207705356Y-99377964D01*
X207705356Y-99377964D02*
X207748213Y-99463678D01*
X207748213Y-99463678D02*
X207791071Y-99506535D01*
X207791071Y-99506535D02*
X207876785Y-99549392D01*
X207876785Y-99549392D02*
X208133928Y-99549392D01*
X208133928Y-99549392D02*
X208219642Y-99506535D01*
X208219642Y-99506535D02*
X208262499Y-99463678D01*
X188655356Y-111455642D02*
X189169642Y-111455642D01*
X188912499Y-111455642D02*
X188912499Y-110555642D01*
X188912499Y-110555642D02*
X188998213Y-110684214D01*
X188998213Y-110684214D02*
X189083928Y-110769928D01*
X189083928Y-110769928D02*
X189169642Y-110812785D01*
X187044642Y-99506535D02*
X186958928Y-99549392D01*
X186958928Y-99549392D02*
X186787499Y-99549392D01*
X186787499Y-99549392D02*
X186701785Y-99506535D01*
X186701785Y-99506535D02*
X186658928Y-99420821D01*
X186658928Y-99420821D02*
X186658928Y-99377964D01*
X186658928Y-99377964D02*
X186701785Y-99292250D01*
X186701785Y-99292250D02*
X186787499Y-99249392D01*
X186787499Y-99249392D02*
X186916071Y-99249392D01*
X186916071Y-99249392D02*
X187001785Y-99206535D01*
X187001785Y-99206535D02*
X187044642Y-99120821D01*
X187044642Y-99120821D02*
X187044642Y-99077964D01*
X187044642Y-99077964D02*
X187001785Y-98992250D01*
X187001785Y-98992250D02*
X186916071Y-98949392D01*
X186916071Y-98949392D02*
X186787499Y-98949392D01*
X186787499Y-98949392D02*
X186701785Y-98992250D01*
X186273214Y-98949392D02*
X186273214Y-99849392D01*
X186273214Y-98992250D02*
X186187500Y-98949392D01*
X186187500Y-98949392D02*
X186016071Y-98949392D01*
X186016071Y-98949392D02*
X185930357Y-98992250D01*
X185930357Y-98992250D02*
X185887500Y-99035107D01*
X185887500Y-99035107D02*
X185844642Y-99120821D01*
X185844642Y-99120821D02*
X185844642Y-99377964D01*
X185844642Y-99377964D02*
X185887500Y-99463678D01*
X185887500Y-99463678D02*
X185930357Y-99506535D01*
X185930357Y-99506535D02*
X186016071Y-99549392D01*
X186016071Y-99549392D02*
X186187500Y-99549392D01*
X186187500Y-99549392D02*
X186273214Y-99506535D01*
X185330356Y-99549392D02*
X185416071Y-99506535D01*
X185416071Y-99506535D02*
X185458928Y-99420821D01*
X185458928Y-99420821D02*
X185458928Y-98649392D01*
X184987499Y-99549392D02*
X184987499Y-98949392D01*
X184987499Y-98649392D02*
X185030356Y-98692250D01*
X185030356Y-98692250D02*
X184987499Y-98735107D01*
X184987499Y-98735107D02*
X184944642Y-98692250D01*
X184944642Y-98692250D02*
X184987499Y-98649392D01*
X184987499Y-98649392D02*
X184987499Y-98735107D01*
X184687499Y-98949392D02*
X184344642Y-98949392D01*
X184558928Y-98649392D02*
X184558928Y-99420821D01*
X184558928Y-99420821D02*
X184516071Y-99506535D01*
X184516071Y-99506535D02*
X184430356Y-99549392D01*
X184430356Y-99549392D02*
X184344642Y-99549392D01*
X226755356Y-111455642D02*
X227269642Y-111455642D01*
X227012499Y-111455642D02*
X227012499Y-110555642D01*
X227012499Y-110555642D02*
X227098213Y-110684214D01*
X227098213Y-110684214D02*
X227183928Y-110769928D01*
X227183928Y-110769928D02*
X227269642Y-110812785D01*
X93748213Y-102210107D02*
X93833928Y-102167250D01*
X93833928Y-102167250D02*
X93876785Y-102124392D01*
X93876785Y-102124392D02*
X93919642Y-102038678D01*
X93919642Y-102038678D02*
X93919642Y-101995821D01*
X93919642Y-101995821D02*
X93876785Y-101910107D01*
X93876785Y-101910107D02*
X93833928Y-101867250D01*
X93833928Y-101867250D02*
X93748213Y-101824392D01*
X93748213Y-101824392D02*
X93576785Y-101824392D01*
X93576785Y-101824392D02*
X93491071Y-101867250D01*
X93491071Y-101867250D02*
X93448213Y-101910107D01*
X93448213Y-101910107D02*
X93405356Y-101995821D01*
X93405356Y-101995821D02*
X93405356Y-102038678D01*
X93405356Y-102038678D02*
X93448213Y-102124392D01*
X93448213Y-102124392D02*
X93491071Y-102167250D01*
X93491071Y-102167250D02*
X93576785Y-102210107D01*
X93576785Y-102210107D02*
X93748213Y-102210107D01*
X93748213Y-102210107D02*
X93833928Y-102252964D01*
X93833928Y-102252964D02*
X93876785Y-102295821D01*
X93876785Y-102295821D02*
X93919642Y-102381535D01*
X93919642Y-102381535D02*
X93919642Y-102552964D01*
X93919642Y-102552964D02*
X93876785Y-102638678D01*
X93876785Y-102638678D02*
X93833928Y-102681535D01*
X93833928Y-102681535D02*
X93748213Y-102724392D01*
X93748213Y-102724392D02*
X93576785Y-102724392D01*
X93576785Y-102724392D02*
X93491071Y-102681535D01*
X93491071Y-102681535D02*
X93448213Y-102638678D01*
X93448213Y-102638678D02*
X93405356Y-102552964D01*
X93405356Y-102552964D02*
X93405356Y-102381535D01*
X93405356Y-102381535D02*
X93448213Y-102295821D01*
X93448213Y-102295821D02*
X93491071Y-102252964D01*
X93491071Y-102252964D02*
X93576785Y-102210107D01*
X131505356Y-111455642D02*
X132019642Y-111455642D01*
X131762499Y-111455642D02*
X131762499Y-110555642D01*
X131762499Y-110555642D02*
X131848213Y-110684214D01*
X131848213Y-110684214D02*
X131933928Y-110769928D01*
X131933928Y-110769928D02*
X132019642Y-110812785D01*
X239518749Y-93993142D02*
X240033035Y-93993142D01*
X239775892Y-93993142D02*
X239775892Y-93093142D01*
X239775892Y-93093142D02*
X239861606Y-93221714D01*
X239861606Y-93221714D02*
X239947321Y-93307428D01*
X239947321Y-93307428D02*
X240033035Y-93350285D01*
X239218749Y-93093142D02*
X238618749Y-93093142D01*
X238618749Y-93093142D02*
X239004463Y-93993142D01*
X237847320Y-93093142D02*
X238275892Y-93093142D01*
X238275892Y-93093142D02*
X238318749Y-93521714D01*
X238318749Y-93521714D02*
X238275892Y-93478857D01*
X238275892Y-93478857D02*
X238190178Y-93436000D01*
X238190178Y-93436000D02*
X237975892Y-93436000D01*
X237975892Y-93436000D02*
X237890178Y-93478857D01*
X237890178Y-93478857D02*
X237847320Y-93521714D01*
X237847320Y-93521714D02*
X237804463Y-93607428D01*
X237804463Y-93607428D02*
X237804463Y-93821714D01*
X237804463Y-93821714D02*
X237847320Y-93907428D01*
X237847320Y-93907428D02*
X237890178Y-93950285D01*
X237890178Y-93950285D02*
X237975892Y-93993142D01*
X237975892Y-93993142D02*
X238190178Y-93993142D01*
X238190178Y-93993142D02*
X238275892Y-93950285D01*
X238275892Y-93950285D02*
X238318749Y-93907428D01*
X122494642Y-98735107D02*
X122451785Y-98692250D01*
X122451785Y-98692250D02*
X122366071Y-98649392D01*
X122366071Y-98649392D02*
X122151785Y-98649392D01*
X122151785Y-98649392D02*
X122066071Y-98692250D01*
X122066071Y-98692250D02*
X122023213Y-98735107D01*
X122023213Y-98735107D02*
X121980356Y-98820821D01*
X121980356Y-98820821D02*
X121980356Y-98906535D01*
X121980356Y-98906535D02*
X122023213Y-99035107D01*
X122023213Y-99035107D02*
X122537499Y-99549392D01*
X122537499Y-99549392D02*
X121980356Y-99549392D01*
X182025892Y-117785107D02*
X181983035Y-117742250D01*
X181983035Y-117742250D02*
X181897321Y-117699392D01*
X181897321Y-117699392D02*
X181683035Y-117699392D01*
X181683035Y-117699392D02*
X181597321Y-117742250D01*
X181597321Y-117742250D02*
X181554463Y-117785107D01*
X181554463Y-117785107D02*
X181511606Y-117870821D01*
X181511606Y-117870821D02*
X181511606Y-117956535D01*
X181511606Y-117956535D02*
X181554463Y-118085107D01*
X181554463Y-118085107D02*
X182068749Y-118599392D01*
X182068749Y-118599392D02*
X181511606Y-118599392D01*
X201075892Y-98735107D02*
X201033035Y-98692250D01*
X201033035Y-98692250D02*
X200947321Y-98649392D01*
X200947321Y-98649392D02*
X200733035Y-98649392D01*
X200733035Y-98649392D02*
X200647321Y-98692250D01*
X200647321Y-98692250D02*
X200604463Y-98735107D01*
X200604463Y-98735107D02*
X200561606Y-98820821D01*
X200561606Y-98820821D02*
X200561606Y-98906535D01*
X200561606Y-98906535D02*
X200604463Y-99035107D01*
X200604463Y-99035107D02*
X201118749Y-99549392D01*
X201118749Y-99549392D02*
X200561606Y-99549392D01*
X222849999Y-117805642D02*
X223364285Y-117805642D01*
X223107142Y-117805642D02*
X223107142Y-116905642D01*
X223107142Y-116905642D02*
X223192856Y-117034214D01*
X223192856Y-117034214D02*
X223278571Y-117119928D01*
X223278571Y-117119928D02*
X223364285Y-117162785D01*
X222035713Y-116905642D02*
X222464285Y-116905642D01*
X222464285Y-116905642D02*
X222507142Y-117334214D01*
X222507142Y-117334214D02*
X222464285Y-117291357D01*
X222464285Y-117291357D02*
X222378571Y-117248500D01*
X222378571Y-117248500D02*
X222164285Y-117248500D01*
X222164285Y-117248500D02*
X222078571Y-117291357D01*
X222078571Y-117291357D02*
X222035713Y-117334214D01*
X222035713Y-117334214D02*
X221992856Y-117419928D01*
X221992856Y-117419928D02*
X221992856Y-117634214D01*
X221992856Y-117634214D02*
X222035713Y-117719928D01*
X222035713Y-117719928D02*
X222078571Y-117762785D01*
X222078571Y-117762785D02*
X222164285Y-117805642D01*
X222164285Y-117805642D02*
X222378571Y-117805642D01*
X222378571Y-117805642D02*
X222464285Y-117762785D01*
X222464285Y-117762785D02*
X222507142Y-117719928D01*
X221435713Y-116905642D02*
X221349999Y-116905642D01*
X221349999Y-116905642D02*
X221264285Y-116948500D01*
X221264285Y-116948500D02*
X221221428Y-116991357D01*
X221221428Y-116991357D02*
X221178570Y-117077071D01*
X221178570Y-117077071D02*
X221135713Y-117248500D01*
X221135713Y-117248500D02*
X221135713Y-117462785D01*
X221135713Y-117462785D02*
X221178570Y-117634214D01*
X221178570Y-117634214D02*
X221221428Y-117719928D01*
X221221428Y-117719928D02*
X221264285Y-117762785D01*
X221264285Y-117762785D02*
X221349999Y-117805642D01*
X221349999Y-117805642D02*
X221435713Y-117805642D01*
X221435713Y-117805642D02*
X221521428Y-117762785D01*
X221521428Y-117762785D02*
X221564285Y-117719928D01*
X221564285Y-117719928D02*
X221607142Y-117634214D01*
X221607142Y-117634214D02*
X221649999Y-117462785D01*
X221649999Y-117462785D02*
X221649999Y-117248500D01*
X221649999Y-117248500D02*
X221607142Y-117077071D01*
X221607142Y-117077071D02*
X221564285Y-116991357D01*
X221564285Y-116991357D02*
X221521428Y-116948500D01*
X221521428Y-116948500D02*
X221435713Y-116905642D01*
X112932798Y-101895973D02*
X113104226Y-101895973D01*
X113104226Y-101895973D02*
X113189940Y-101938831D01*
X113189940Y-101938831D02*
X113232798Y-101981688D01*
X113232798Y-101981688D02*
X113318512Y-102110259D01*
X113318512Y-102110259D02*
X113361369Y-102281688D01*
X113361369Y-102281688D02*
X113361369Y-102624545D01*
X113361369Y-102624545D02*
X113318512Y-102710259D01*
X113318512Y-102710259D02*
X113275655Y-102753116D01*
X113275655Y-102753116D02*
X113189940Y-102795973D01*
X113189940Y-102795973D02*
X113018512Y-102795973D01*
X113018512Y-102795973D02*
X112932798Y-102753116D01*
X112932798Y-102753116D02*
X112889940Y-102710259D01*
X112889940Y-102710259D02*
X112847083Y-102624545D01*
X112847083Y-102624545D02*
X112847083Y-102410259D01*
X112847083Y-102410259D02*
X112889940Y-102324545D01*
X112889940Y-102324545D02*
X112932798Y-102281688D01*
X112932798Y-102281688D02*
X113018512Y-102238831D01*
X113018512Y-102238831D02*
X113189940Y-102238831D01*
X113189940Y-102238831D02*
X113275655Y-102281688D01*
X113275655Y-102281688D02*
X113318512Y-102324545D01*
X113318512Y-102324545D02*
X113361369Y-102410259D01*
X170913392Y-98735107D02*
X170870535Y-98692250D01*
X170870535Y-98692250D02*
X170784821Y-98649392D01*
X170784821Y-98649392D02*
X170570535Y-98649392D01*
X170570535Y-98649392D02*
X170484821Y-98692250D01*
X170484821Y-98692250D02*
X170441963Y-98735107D01*
X170441963Y-98735107D02*
X170399106Y-98820821D01*
X170399106Y-98820821D02*
X170399106Y-98906535D01*
X170399106Y-98906535D02*
X170441963Y-99035107D01*
X170441963Y-99035107D02*
X170956249Y-99549392D01*
X170956249Y-99549392D02*
X170399106Y-99549392D01*
X160170279Y-120406937D02*
X160170279Y-121006937D01*
X160384564Y-120064080D02*
X160598850Y-120706937D01*
X160598850Y-120706937D02*
X160041707Y-120706937D01*
X134657142Y-99506535D02*
X134571428Y-99549392D01*
X134571428Y-99549392D02*
X134399999Y-99549392D01*
X134399999Y-99549392D02*
X134314285Y-99506535D01*
X134314285Y-99506535D02*
X134271428Y-99420821D01*
X134271428Y-99420821D02*
X134271428Y-99377964D01*
X134271428Y-99377964D02*
X134314285Y-99292250D01*
X134314285Y-99292250D02*
X134399999Y-99249392D01*
X134399999Y-99249392D02*
X134528571Y-99249392D01*
X134528571Y-99249392D02*
X134614285Y-99206535D01*
X134614285Y-99206535D02*
X134657142Y-99120821D01*
X134657142Y-99120821D02*
X134657142Y-99077964D01*
X134657142Y-99077964D02*
X134614285Y-98992250D01*
X134614285Y-98992250D02*
X134528571Y-98949392D01*
X134528571Y-98949392D02*
X134399999Y-98949392D01*
X134399999Y-98949392D02*
X134314285Y-98992250D01*
X133885714Y-98949392D02*
X133885714Y-99849392D01*
X133885714Y-98992250D02*
X133800000Y-98949392D01*
X133800000Y-98949392D02*
X133628571Y-98949392D01*
X133628571Y-98949392D02*
X133542857Y-98992250D01*
X133542857Y-98992250D02*
X133500000Y-99035107D01*
X133500000Y-99035107D02*
X133457142Y-99120821D01*
X133457142Y-99120821D02*
X133457142Y-99377964D01*
X133457142Y-99377964D02*
X133500000Y-99463678D01*
X133500000Y-99463678D02*
X133542857Y-99506535D01*
X133542857Y-99506535D02*
X133628571Y-99549392D01*
X133628571Y-99549392D02*
X133800000Y-99549392D01*
X133800000Y-99549392D02*
X133885714Y-99506535D01*
X132942856Y-99549392D02*
X133028571Y-99506535D01*
X133028571Y-99506535D02*
X133071428Y-99420821D01*
X133071428Y-99420821D02*
X133071428Y-98649392D01*
X132599999Y-99549392D02*
X132599999Y-98949392D01*
X132599999Y-98649392D02*
X132642856Y-98692250D01*
X132642856Y-98692250D02*
X132599999Y-98735107D01*
X132599999Y-98735107D02*
X132557142Y-98692250D01*
X132557142Y-98692250D02*
X132599999Y-98649392D01*
X132599999Y-98649392D02*
X132599999Y-98735107D01*
X132299999Y-98949392D02*
X131957142Y-98949392D01*
X132171428Y-98649392D02*
X132171428Y-99420821D01*
X132171428Y-99420821D02*
X132128571Y-99506535D01*
X132128571Y-99506535D02*
X132042856Y-99549392D01*
X132042856Y-99549392D02*
X131957142Y-99549392D01*
X160443962Y-117291357D02*
X160529677Y-117248500D01*
X160529677Y-117248500D02*
X160572534Y-117205642D01*
X160572534Y-117205642D02*
X160615391Y-117119928D01*
X160615391Y-117119928D02*
X160615391Y-117077071D01*
X160615391Y-117077071D02*
X160572534Y-116991357D01*
X160572534Y-116991357D02*
X160529677Y-116948500D01*
X160529677Y-116948500D02*
X160443962Y-116905642D01*
X160443962Y-116905642D02*
X160272534Y-116905642D01*
X160272534Y-116905642D02*
X160186820Y-116948500D01*
X160186820Y-116948500D02*
X160143962Y-116991357D01*
X160143962Y-116991357D02*
X160101105Y-117077071D01*
X160101105Y-117077071D02*
X160101105Y-117119928D01*
X160101105Y-117119928D02*
X160143962Y-117205642D01*
X160143962Y-117205642D02*
X160186820Y-117248500D01*
X160186820Y-117248500D02*
X160272534Y-117291357D01*
X160272534Y-117291357D02*
X160443962Y-117291357D01*
X160443962Y-117291357D02*
X160529677Y-117334214D01*
X160529677Y-117334214D02*
X160572534Y-117377071D01*
X160572534Y-117377071D02*
X160615391Y-117462785D01*
X160615391Y-117462785D02*
X160615391Y-117634214D01*
X160615391Y-117634214D02*
X160572534Y-117719928D01*
X160572534Y-117719928D02*
X160529677Y-117762785D01*
X160529677Y-117762785D02*
X160443962Y-117805642D01*
X160443962Y-117805642D02*
X160272534Y-117805642D01*
X160272534Y-117805642D02*
X160186820Y-117762785D01*
X160186820Y-117762785D02*
X160143962Y-117719928D01*
X160143962Y-117719928D02*
X160101105Y-117634214D01*
X160101105Y-117634214D02*
X160101105Y-117462785D01*
X160101105Y-117462785D02*
X160143962Y-117377071D01*
X160143962Y-117377071D02*
X160186820Y-117334214D01*
X160186820Y-117334214D02*
X160272534Y-117291357D01*
X189169642Y-118249376D02*
X189126785Y-118206519D01*
X189126785Y-118206519D02*
X189041071Y-118163661D01*
X189041071Y-118163661D02*
X188826785Y-118163661D01*
X188826785Y-118163661D02*
X188741071Y-118206519D01*
X188741071Y-118206519D02*
X188698213Y-118249376D01*
X188698213Y-118249376D02*
X188655356Y-118335090D01*
X188655356Y-118335090D02*
X188655356Y-118420804D01*
X188655356Y-118420804D02*
X188698213Y-118549376D01*
X188698213Y-118549376D02*
X189212499Y-119063661D01*
X189212499Y-119063661D02*
X188655356Y-119063661D01*
X161837501Y-102681535D02*
X161923215Y-102724392D01*
X161923215Y-102724392D02*
X162094643Y-102724392D01*
X162094643Y-102724392D02*
X162180358Y-102681535D01*
X162180358Y-102681535D02*
X162223215Y-102638678D01*
X162223215Y-102638678D02*
X162266072Y-102552964D01*
X162266072Y-102552964D02*
X162266072Y-102295821D01*
X162266072Y-102295821D02*
X162223215Y-102210107D01*
X162223215Y-102210107D02*
X162180358Y-102167250D01*
X162180358Y-102167250D02*
X162094643Y-102124392D01*
X162094643Y-102124392D02*
X161923215Y-102124392D01*
X161923215Y-102124392D02*
X161837501Y-102167250D01*
X161108929Y-102681535D02*
X161194643Y-102724392D01*
X161194643Y-102724392D02*
X161366072Y-102724392D01*
X161366072Y-102724392D02*
X161451786Y-102681535D01*
X161451786Y-102681535D02*
X161494643Y-102595821D01*
X161494643Y-102595821D02*
X161494643Y-102252964D01*
X161494643Y-102252964D02*
X161451786Y-102167250D01*
X161451786Y-102167250D02*
X161366072Y-102124392D01*
X161366072Y-102124392D02*
X161194643Y-102124392D01*
X161194643Y-102124392D02*
X161108929Y-102167250D01*
X161108929Y-102167250D02*
X161066072Y-102252964D01*
X161066072Y-102252964D02*
X161066072Y-102338678D01*
X161066072Y-102338678D02*
X161494643Y-102424392D01*
X160680357Y-102124392D02*
X160680357Y-102724392D01*
X160680357Y-102210107D02*
X160637500Y-102167250D01*
X160637500Y-102167250D02*
X160551785Y-102124392D01*
X160551785Y-102124392D02*
X160423214Y-102124392D01*
X160423214Y-102124392D02*
X160337500Y-102167250D01*
X160337500Y-102167250D02*
X160294643Y-102252964D01*
X160294643Y-102252964D02*
X160294643Y-102724392D01*
X159994642Y-102124392D02*
X159651785Y-102124392D01*
X159866071Y-101824392D02*
X159866071Y-102595821D01*
X159866071Y-102595821D02*
X159823214Y-102681535D01*
X159823214Y-102681535D02*
X159737499Y-102724392D01*
X159737499Y-102724392D02*
X159651785Y-102724392D01*
X159351785Y-102724392D02*
X159351785Y-102124392D01*
X159351785Y-102295821D02*
X159308928Y-102210107D01*
X159308928Y-102210107D02*
X159266071Y-102167250D01*
X159266071Y-102167250D02*
X159180356Y-102124392D01*
X159180356Y-102124392D02*
X159094642Y-102124392D01*
X158451785Y-102681535D02*
X158537499Y-102724392D01*
X158537499Y-102724392D02*
X158708928Y-102724392D01*
X158708928Y-102724392D02*
X158794642Y-102681535D01*
X158794642Y-102681535D02*
X158837499Y-102595821D01*
X158837499Y-102595821D02*
X158837499Y-102252964D01*
X158837499Y-102252964D02*
X158794642Y-102167250D01*
X158794642Y-102167250D02*
X158708928Y-102124392D01*
X158708928Y-102124392D02*
X158537499Y-102124392D01*
X158537499Y-102124392D02*
X158451785Y-102167250D01*
X158451785Y-102167250D02*
X158408928Y-102252964D01*
X158408928Y-102252964D02*
X158408928Y-102338678D01*
X158408928Y-102338678D02*
X158837499Y-102424392D01*
X92611606Y-111455642D02*
X93125892Y-111455642D01*
X92868749Y-111455642D02*
X92868749Y-110555642D01*
X92868749Y-110555642D02*
X92954463Y-110684214D01*
X92954463Y-110684214D02*
X93040178Y-110769928D01*
X93040178Y-110769928D02*
X93125892Y-110812785D01*
X146307142Y-98735107D02*
X146264285Y-98692250D01*
X146264285Y-98692250D02*
X146178571Y-98649392D01*
X146178571Y-98649392D02*
X145964285Y-98649392D01*
X145964285Y-98649392D02*
X145878571Y-98692250D01*
X145878571Y-98692250D02*
X145835713Y-98735107D01*
X145835713Y-98735107D02*
X145792856Y-98820821D01*
X145792856Y-98820821D02*
X145792856Y-98906535D01*
X145792856Y-98906535D02*
X145835713Y-99035107D01*
X145835713Y-99035107D02*
X146349999Y-99549392D01*
X146349999Y-99549392D02*
X145792856Y-99549392D01*
X132062499Y-116905642D02*
X131505356Y-116905642D01*
X131505356Y-116905642D02*
X131805356Y-117248500D01*
X131805356Y-117248500D02*
X131676785Y-117248500D01*
X131676785Y-117248500D02*
X131591071Y-117291357D01*
X131591071Y-117291357D02*
X131548213Y-117334214D01*
X131548213Y-117334214D02*
X131505356Y-117419928D01*
X131505356Y-117419928D02*
X131505356Y-117634214D01*
X131505356Y-117634214D02*
X131548213Y-117719928D01*
X131548213Y-117719928D02*
X131591071Y-117762785D01*
X131591071Y-117762785D02*
X131676785Y-117805642D01*
X131676785Y-117805642D02*
X131933928Y-117805642D01*
X131933928Y-117805642D02*
X132019642Y-117762785D01*
X132019642Y-117762785D02*
X132062499Y-117719928D01*
X169605356Y-111455642D02*
X170119642Y-111455642D01*
X169862499Y-111455642D02*
X169862499Y-110555642D01*
X169862499Y-110555642D02*
X169948213Y-110684214D01*
X169948213Y-110684214D02*
X170033928Y-110769928D01*
X170033928Y-110769928D02*
X170119642Y-110812785D01*
X177263392Y-98735107D02*
X177220535Y-98692250D01*
X177220535Y-98692250D02*
X177134821Y-98649392D01*
X177134821Y-98649392D02*
X176920535Y-98649392D01*
X176920535Y-98649392D02*
X176834821Y-98692250D01*
X176834821Y-98692250D02*
X176791963Y-98735107D01*
X176791963Y-98735107D02*
X176749106Y-98820821D01*
X176749106Y-98820821D02*
X176749106Y-98906535D01*
X176749106Y-98906535D02*
X176791963Y-99035107D01*
X176791963Y-99035107D02*
X177306249Y-99549392D01*
X177306249Y-99549392D02*
X176749106Y-99549392D01*
X112610476Y-101895973D02*
X112010476Y-101895973D01*
X112010476Y-101895973D02*
X112396190Y-102795973D01*
X226918264Y-101855008D02*
X226318264Y-101855008D01*
X226318264Y-101855008D02*
X226703978Y-102755008D01*
X227497728Y-102240723D02*
X227583443Y-102197866D01*
X227583443Y-102197866D02*
X227626300Y-102155008D01*
X227626300Y-102155008D02*
X227669157Y-102069294D01*
X227669157Y-102069294D02*
X227669157Y-102026437D01*
X227669157Y-102026437D02*
X227626300Y-101940723D01*
X227626300Y-101940723D02*
X227583443Y-101897866D01*
X227583443Y-101897866D02*
X227497728Y-101855008D01*
X227497728Y-101855008D02*
X227326300Y-101855008D01*
X227326300Y-101855008D02*
X227240586Y-101897866D01*
X227240586Y-101897866D02*
X227197728Y-101940723D01*
X227197728Y-101940723D02*
X227154871Y-102026437D01*
X227154871Y-102026437D02*
X227154871Y-102069294D01*
X227154871Y-102069294D02*
X227197728Y-102155008D01*
X227197728Y-102155008D02*
X227240586Y-102197866D01*
X227240586Y-102197866D02*
X227326300Y-102240723D01*
X227326300Y-102240723D02*
X227497728Y-102240723D01*
X227497728Y-102240723D02*
X227583443Y-102283580D01*
X227583443Y-102283580D02*
X227626300Y-102326437D01*
X227626300Y-102326437D02*
X227669157Y-102412151D01*
X227669157Y-102412151D02*
X227669157Y-102583580D01*
X227669157Y-102583580D02*
X227626300Y-102669294D01*
X227626300Y-102669294D02*
X227583443Y-102712151D01*
X227583443Y-102712151D02*
X227497728Y-102755008D01*
X227497728Y-102755008D02*
X227326300Y-102755008D01*
X227326300Y-102755008D02*
X227240586Y-102712151D01*
X227240586Y-102712151D02*
X227197728Y-102669294D01*
X227197728Y-102669294D02*
X227154871Y-102583580D01*
X227154871Y-102583580D02*
X227154871Y-102412151D01*
X227154871Y-102412151D02*
X227197728Y-102326437D01*
X227197728Y-102326437D02*
X227240586Y-102283580D01*
X227240586Y-102283580D02*
X227326300Y-102240723D01*
X188741071Y-102124392D02*
X188741071Y-102724392D01*
X188955356Y-101781535D02*
X189169642Y-102424392D01*
X189169642Y-102424392D02*
X188612499Y-102424392D01*
X207791071Y-101824392D02*
X207962499Y-101824392D01*
X207962499Y-101824392D02*
X208048213Y-101867250D01*
X208048213Y-101867250D02*
X208091071Y-101910107D01*
X208091071Y-101910107D02*
X208176785Y-102038678D01*
X208176785Y-102038678D02*
X208219642Y-102210107D01*
X208219642Y-102210107D02*
X208219642Y-102552964D01*
X208219642Y-102552964D02*
X208176785Y-102638678D01*
X208176785Y-102638678D02*
X208133928Y-102681535D01*
X208133928Y-102681535D02*
X208048213Y-102724392D01*
X208048213Y-102724392D02*
X207876785Y-102724392D01*
X207876785Y-102724392D02*
X207791071Y-102681535D01*
X207791071Y-102681535D02*
X207748213Y-102638678D01*
X207748213Y-102638678D02*
X207705356Y-102552964D01*
X207705356Y-102552964D02*
X207705356Y-102338678D01*
X207705356Y-102338678D02*
X207748213Y-102252964D01*
X207748213Y-102252964D02*
X207791071Y-102210107D01*
X207791071Y-102210107D02*
X207876785Y-102167250D01*
X207876785Y-102167250D02*
X208048213Y-102167250D01*
X208048213Y-102167250D02*
X208133928Y-102210107D01*
X208133928Y-102210107D02*
X208176785Y-102252964D01*
X208176785Y-102252964D02*
X208219642Y-102338678D01*
X170162499Y-98649392D02*
X169605356Y-98649392D01*
X169605356Y-98649392D02*
X169905356Y-98992250D01*
X169905356Y-98992250D02*
X169776785Y-98992250D01*
X169776785Y-98992250D02*
X169691071Y-99035107D01*
X169691071Y-99035107D02*
X169648213Y-99077964D01*
X169648213Y-99077964D02*
X169605356Y-99163678D01*
X169605356Y-99163678D02*
X169605356Y-99377964D01*
X169605356Y-99377964D02*
X169648213Y-99463678D01*
X169648213Y-99463678D02*
X169691071Y-99506535D01*
X169691071Y-99506535D02*
X169776785Y-99549392D01*
X169776785Y-99549392D02*
X170033928Y-99549392D01*
X170033928Y-99549392D02*
X170119642Y-99506535D01*
X170119642Y-99506535D02*
X170162499Y-99463678D01*
X120113392Y-98735107D02*
X120070535Y-98692250D01*
X120070535Y-98692250D02*
X119984821Y-98649392D01*
X119984821Y-98649392D02*
X119770535Y-98649392D01*
X119770535Y-98649392D02*
X119684821Y-98692250D01*
X119684821Y-98692250D02*
X119641963Y-98735107D01*
X119641963Y-98735107D02*
X119599106Y-98820821D01*
X119599106Y-98820821D02*
X119599106Y-98906535D01*
X119599106Y-98906535D02*
X119641963Y-99035107D01*
X119641963Y-99035107D02*
X120156249Y-99549392D01*
X120156249Y-99549392D02*
X119599106Y-99549392D01*
D10*
%TO.C,SW7*%
X249428750Y-90487500D02*
G75*
G03*
X249428750Y-90487500I-985000J0D01*
G01*
%TO.C,D23*%
X214900000Y-74441250D02*
X214900000Y-70581250D01*
X216900000Y-74441250D02*
X214900000Y-74441250D01*
X216900000Y-74441250D02*
X216900000Y-70581250D01*
%TO.C,U1*%
X276121250Y-86491250D02*
X276571250Y-86491250D01*
X282891250Y-86491250D02*
X282891250Y-87781250D01*
X283341250Y-86491250D02*
X282891250Y-86491250D01*
X276121250Y-86041250D02*
X276121250Y-86491250D01*
X283341250Y-86041250D02*
X283341250Y-86491250D01*
X276121250Y-79721250D02*
X276121250Y-79271250D01*
X283341250Y-79721250D02*
X283341250Y-79271250D01*
X276121250Y-79271250D02*
X276571250Y-79271250D01*
X283341250Y-79271250D02*
X282891250Y-79271250D01*
%TO.C,C3*%
X274302836Y-79141250D02*
X274087164Y-79141250D01*
X274302836Y-78421250D02*
X274087164Y-78421250D01*
%TO.C,D29*%
X81550000Y-93491250D02*
X81550000Y-89631250D01*
X83550000Y-93491250D02*
X81550000Y-93491250D01*
X83550000Y-93491250D02*
X83550000Y-89631250D01*
%TO.C,D5*%
X138700000Y-55391250D02*
X138700000Y-51531250D01*
X140700000Y-55391250D02*
X138700000Y-55391250D01*
X140700000Y-55391250D02*
X140700000Y-51531250D01*
%TO.C,C7*%
X279837557Y-90231873D02*
X279837557Y-90447545D01*
X279117557Y-90231873D02*
X279117557Y-90447545D01*
%TO.C,D32*%
X138700000Y-93491250D02*
X138700000Y-89631250D01*
X140700000Y-93491250D02*
X138700000Y-93491250D01*
X140700000Y-93491250D02*
X140700000Y-89631250D01*
%TO.C,D1*%
X62500000Y-55391250D02*
X62500000Y-51531250D01*
X64500000Y-55391250D02*
X62500000Y-55391250D01*
X64500000Y-55391250D02*
X64500000Y-51531250D01*
%TO.C,D4*%
X119650000Y-55391250D02*
X119650000Y-51531250D01*
X121650000Y-55391250D02*
X119650000Y-55391250D01*
X121650000Y-55391250D02*
X121650000Y-51531250D01*
%TO.C,D27*%
X140287500Y-117303750D02*
X140287500Y-113443750D01*
X142287500Y-117303750D02*
X140287500Y-117303750D01*
X142287500Y-117303750D02*
X142287500Y-113443750D01*
%TO.C,D15*%
X62500000Y-74441250D02*
X62500000Y-70581250D01*
X64500000Y-74441250D02*
X62500000Y-74441250D01*
X64500000Y-74441250D02*
X64500000Y-70581250D01*
%TO.C,D12*%
X272050000Y-55391250D02*
X272050000Y-51531250D01*
X274050000Y-55391250D02*
X272050000Y-55391250D01*
X274050000Y-55391250D02*
X274050000Y-51531250D01*
%TO.C,D31*%
X119650000Y-93491250D02*
X119650000Y-89631250D01*
X121650000Y-93491250D02*
X119650000Y-93491250D01*
X121650000Y-93491250D02*
X121650000Y-89631250D01*
%TO.C,J1*%
X250110000Y-65022500D02*
X252610000Y-65022500D01*
X252610000Y-65022500D02*
X252610000Y-63972500D01*
X252610000Y-63972500D02*
X253600000Y-63972500D01*
X248140000Y-63852500D02*
X248140000Y-59972500D01*
X250110000Y-58802500D02*
X252610000Y-58802500D01*
X252610000Y-58802500D02*
X252610000Y-59852500D01*
%TO.C,D9*%
X214900000Y-55391250D02*
X214900000Y-51531250D01*
X216900000Y-55391250D02*
X214900000Y-55391250D01*
X216900000Y-55391250D02*
X216900000Y-51531250D01*
%TO.C,D44*%
X172037500Y-117303750D02*
X172037500Y-113443750D01*
X174037500Y-117303750D02*
X172037500Y-117303750D01*
X174037500Y-117303750D02*
X174037500Y-113443750D01*
%TO.C,D7*%
X176800000Y-55391250D02*
X176800000Y-51531250D01*
X178800000Y-55391250D02*
X176800000Y-55391250D01*
X178800000Y-55391250D02*
X178800000Y-51531250D01*
%TO.C,D36*%
X214900000Y-93491250D02*
X214900000Y-89631250D01*
X216900000Y-93491250D02*
X214900000Y-93491250D01*
X216900000Y-93491250D02*
X216900000Y-89631250D01*
%TO.C,D26*%
X295862500Y-74441250D02*
X295862500Y-70581250D01*
X297862500Y-74441250D02*
X295862500Y-74441250D01*
X297862500Y-74441250D02*
X297862500Y-70581250D01*
%TO.C,C9*%
X279617836Y-71797500D02*
X279402164Y-71797500D01*
X279617836Y-71077500D02*
X279402164Y-71077500D01*
%TO.C,D47*%
X253000000Y-117303750D02*
X253000000Y-113443750D01*
X255000000Y-117303750D02*
X253000000Y-117303750D01*
X255000000Y-117303750D02*
X255000000Y-113443750D01*
%TO.C,U2*%
X278633750Y-68912500D02*
X278633750Y-69562500D01*
X278633750Y-68912500D02*
X278633750Y-68262500D01*
X281753750Y-68912500D02*
X281753750Y-70587500D01*
X281753750Y-68912500D02*
X281753750Y-68262500D01*
%TO.C,D17*%
X100600000Y-74441250D02*
X100600000Y-70581250D01*
X102600000Y-74441250D02*
X100600000Y-74441250D01*
X102600000Y-74441250D02*
X102600000Y-70581250D01*
%TO.C,D45*%
X191087500Y-117303750D02*
X191087500Y-113443750D01*
X193087500Y-117303750D02*
X191087500Y-117303750D01*
X193087500Y-117303750D02*
X193087500Y-113443750D01*
%TO.C,D37*%
X245062500Y-93491250D02*
X245062500Y-89631250D01*
X247062500Y-93491250D02*
X245062500Y-93491250D01*
X247062500Y-93491250D02*
X247062500Y-89631250D01*
%TO.C,D43*%
X114887500Y-117303750D02*
X114887500Y-113443750D01*
X116887500Y-117303750D02*
X114887500Y-117303750D01*
X116887500Y-117303750D02*
X116887500Y-113443750D01*
%TO.C,D33*%
X157750000Y-93491250D02*
X157750000Y-89631250D01*
X159750000Y-93491250D02*
X157750000Y-93491250D01*
X159750000Y-93491250D02*
X159750000Y-89631250D01*
%TO.C,C6*%
X283759420Y-76021250D02*
X284040580Y-76021250D01*
X283759420Y-77041250D02*
X284040580Y-77041250D01*
%TO.C,SW6*%
X286882500Y-59777500D02*
X286882500Y-57697500D01*
X285612500Y-61457500D02*
X286102500Y-60967500D01*
X285612500Y-61457500D02*
X282712500Y-61457500D01*
X285612500Y-56017500D02*
X286102500Y-56507500D01*
X285612500Y-56017500D02*
X282712500Y-56017500D01*
X282712500Y-61457500D02*
X282222500Y-60967500D01*
X282712500Y-56017500D02*
X282222500Y-56507500D01*
X281442500Y-59777500D02*
X281442500Y-57697500D01*
%TO.C,D30*%
X100600000Y-93491250D02*
X100600000Y-89631250D01*
X102600000Y-93491250D02*
X100600000Y-93491250D01*
X102600000Y-93491250D02*
X102600000Y-89631250D01*
%TO.C,D20*%
X157750000Y-74441250D02*
X157750000Y-70581250D01*
X159750000Y-74441250D02*
X157750000Y-74441250D01*
X159750000Y-74441250D02*
X159750000Y-70581250D01*
%TO.C,G\u002A\u002A\u002A*%
G36*
X65873175Y-115808367D02*
G01*
X65873175Y-116079680D01*
X65769818Y-116079680D01*
X65666461Y-116079680D01*
X65666461Y-117462081D01*
X65666461Y-118844481D01*
X65769818Y-118844481D01*
X65873175Y-118844481D01*
X65873175Y-119115794D01*
X65873175Y-119387106D01*
X65213370Y-119387106D01*
X64553565Y-119387106D01*
X64560928Y-119122254D01*
X64568292Y-118857401D01*
X64678109Y-118849456D01*
X64787926Y-118841510D01*
X64787926Y-117460595D01*
X64787926Y-116079680D01*
X64671649Y-116079680D01*
X64555372Y-116079680D01*
X64555372Y-115808367D01*
X64555372Y-115537055D01*
X65214274Y-115537055D01*
X65873175Y-115537055D01*
X65873175Y-115808367D01*
G37*
G36*
X58870734Y-116079680D02*
G01*
X58870734Y-116622304D01*
X58573582Y-116622304D01*
X58276430Y-116622304D01*
X58276430Y-116350992D01*
X58276430Y-116079680D01*
X58185993Y-116079680D01*
X58095556Y-116079680D01*
X58095556Y-117462081D01*
X58095556Y-118844481D01*
X58198913Y-118844481D01*
X58302270Y-118844481D01*
X58302270Y-119115794D01*
X58302270Y-119387106D01*
X57656288Y-119387106D01*
X57010306Y-119387106D01*
X57010306Y-119115794D01*
X57010306Y-118844481D01*
X57113663Y-118844481D01*
X57217021Y-118844481D01*
X57217021Y-117462081D01*
X57217021Y-116079680D01*
X57126583Y-116079680D01*
X57036146Y-116079680D01*
X57036146Y-116350992D01*
X57036146Y-116622304D01*
X56738994Y-116622304D01*
X56441842Y-116622304D01*
X56441842Y-116079680D01*
X56441842Y-115537055D01*
X57656288Y-115537055D01*
X58870734Y-115537055D01*
X58870734Y-116079680D01*
G37*
G36*
X68431263Y-115808367D02*
G01*
X68431263Y-116079680D01*
X68327906Y-116079680D01*
X68224548Y-116079680D01*
X68224548Y-117462081D01*
X68224548Y-118844481D01*
X68327906Y-118844481D01*
X68431263Y-118844481D01*
X68431263Y-119115794D01*
X68431263Y-119387106D01*
X67333094Y-119387106D01*
X66234925Y-119387106D01*
X66234925Y-118844481D01*
X66234925Y-118301857D01*
X66557916Y-118301857D01*
X66880907Y-118301857D01*
X66880907Y-118573169D01*
X66880907Y-118844481D01*
X67126380Y-118844481D01*
X67371853Y-118844481D01*
X67371853Y-118276018D01*
X67371853Y-117707554D01*
X67010103Y-117707554D01*
X66648353Y-117707554D01*
X66648353Y-117436241D01*
X66648353Y-117164929D01*
X67010103Y-117164929D01*
X67371853Y-117164929D01*
X67371853Y-116622304D01*
X67371853Y-116079680D01*
X67126380Y-116079680D01*
X66880907Y-116079680D01*
X66880907Y-116350992D01*
X66880907Y-116622304D01*
X66557916Y-116622304D01*
X66234925Y-116622304D01*
X66234925Y-116079680D01*
X66234925Y-115537055D01*
X67333094Y-115537055D01*
X68431263Y-115537055D01*
X68431263Y-115808367D01*
G37*
G36*
X60369411Y-115808367D02*
G01*
X60369411Y-116079680D01*
X60278974Y-116079680D01*
X60188536Y-116079680D01*
X60188536Y-116583546D01*
X60188536Y-117087411D01*
X60446929Y-117087411D01*
X60705322Y-117087411D01*
X60705322Y-116583546D01*
X60705322Y-116079680D01*
X60614884Y-116079680D01*
X60524447Y-116079680D01*
X60524447Y-115808367D01*
X60524447Y-115537055D01*
X61144589Y-115537055D01*
X61764732Y-115537055D01*
X61764732Y-115808367D01*
X61764732Y-116079680D01*
X61661375Y-116079680D01*
X61558017Y-116079680D01*
X61558017Y-117462081D01*
X61558017Y-118844481D01*
X61661375Y-118844481D01*
X61764732Y-118844481D01*
X61764732Y-119115794D01*
X61764732Y-119387106D01*
X61144589Y-119387106D01*
X60524447Y-119387106D01*
X60524447Y-119115794D01*
X60524447Y-118844481D01*
X60614884Y-118844481D01*
X60705322Y-118844481D01*
X60705322Y-118237259D01*
X60705322Y-117630036D01*
X60446929Y-117630036D01*
X60188536Y-117630036D01*
X60188536Y-118235621D01*
X60188536Y-118841207D01*
X60272514Y-118849304D01*
X60356492Y-118857401D01*
X60363855Y-119122254D01*
X60371219Y-119387106D01*
X59750173Y-119387106D01*
X59129126Y-119387106D01*
X59129126Y-119115794D01*
X59129126Y-118844481D01*
X59232483Y-118844481D01*
X59335840Y-118844481D01*
X59335840Y-117462081D01*
X59335840Y-116079680D01*
X59232483Y-116079680D01*
X59129126Y-116079680D01*
X59129126Y-115808367D01*
X59129126Y-115537055D01*
X59749269Y-115537055D01*
X60369411Y-115537055D01*
X60369411Y-115808367D01*
G37*
G36*
X54839808Y-115808367D02*
G01*
X54839808Y-116079680D01*
X54761390Y-116079680D01*
X54682971Y-116079680D01*
X54690332Y-117395615D01*
X54690563Y-117436867D01*
X54692240Y-117724953D01*
X54693891Y-117966354D01*
X54695711Y-118165487D01*
X54697897Y-118326771D01*
X54700645Y-118454621D01*
X54704153Y-118553454D01*
X54708617Y-118627689D01*
X54714234Y-118681742D01*
X54721200Y-118720030D01*
X54729711Y-118746970D01*
X54739966Y-118766979D01*
X54752159Y-118784475D01*
X54785976Y-118822980D01*
X54838032Y-118850518D01*
X54917326Y-118857401D01*
X54978271Y-118854068D01*
X55035561Y-118833323D01*
X55082492Y-118784471D01*
X55084221Y-118782146D01*
X55096147Y-118764575D01*
X55106158Y-118743914D01*
X55114452Y-118715747D01*
X55121223Y-118675655D01*
X55126667Y-118619223D01*
X55130982Y-118542032D01*
X55134362Y-118439666D01*
X55137003Y-118307708D01*
X55139103Y-118141741D01*
X55140855Y-117937347D01*
X55142457Y-117690109D01*
X55144104Y-117395610D01*
X55151249Y-116079680D01*
X55085966Y-116079680D01*
X55020683Y-116079680D01*
X55020683Y-115808367D01*
X55020683Y-115537055D01*
X55614986Y-115537055D01*
X56209289Y-115537055D01*
X56209289Y-115808367D01*
X56209289Y-116079680D01*
X56105932Y-116079680D01*
X56002575Y-116079680D01*
X56002380Y-117300585D01*
X56002112Y-117475978D01*
X56000820Y-117732668D01*
X55998553Y-117970257D01*
X55995413Y-118183316D01*
X55991504Y-118366416D01*
X55986928Y-118514127D01*
X55981789Y-118621019D01*
X55976189Y-118681663D01*
X55940577Y-118840105D01*
X55859133Y-119037184D01*
X55741572Y-119197546D01*
X55587209Y-119321853D01*
X55395356Y-119410769D01*
X55165328Y-119464957D01*
X55102455Y-119472813D01*
X54874014Y-119476195D01*
X54659184Y-119440795D01*
X54465283Y-119369098D01*
X54299628Y-119263589D01*
X54169538Y-119126754D01*
X54130255Y-119068967D01*
X54093061Y-119003158D01*
X54061729Y-118930686D01*
X54035766Y-118847051D01*
X54014678Y-118747751D01*
X53997971Y-118628286D01*
X53985151Y-118484155D01*
X53975724Y-118310858D01*
X53969196Y-118103893D01*
X53965074Y-117858760D01*
X53962863Y-117570958D01*
X53962071Y-117235987D01*
X53961273Y-116079680D01*
X53857916Y-116079680D01*
X53754559Y-116079680D01*
X53754559Y-115808367D01*
X53754559Y-115537055D01*
X54297183Y-115537055D01*
X54839808Y-115537055D01*
X54839808Y-115808367D01*
G37*
G36*
X63518324Y-115474667D02*
G01*
X63612281Y-115483233D01*
X63687106Y-115501546D01*
X63759976Y-115532494D01*
X63851931Y-115589905D01*
X63971424Y-115714594D01*
X64064136Y-115883029D01*
X64129873Y-116094821D01*
X64168439Y-116349578D01*
X64170785Y-116378535D01*
X64177746Y-116506253D01*
X64183282Y-116674056D01*
X64187392Y-116873026D01*
X64190074Y-117094245D01*
X64191328Y-117328793D01*
X64191152Y-117567751D01*
X64189544Y-117802202D01*
X64186504Y-118023226D01*
X64182029Y-118221906D01*
X64176118Y-118389321D01*
X64168771Y-118516555D01*
X64144573Y-118733660D01*
X64099424Y-118947367D01*
X64034526Y-119118674D01*
X63948013Y-119251174D01*
X63838018Y-119348460D01*
X63702677Y-119414124D01*
X63512928Y-119457728D01*
X63320486Y-119455875D01*
X63140249Y-119405653D01*
X62976843Y-119307740D01*
X62875820Y-119227728D01*
X62875820Y-119307417D01*
X62875820Y-119387106D01*
X62501151Y-119387106D01*
X62126481Y-119387106D01*
X62126481Y-118495651D01*
X62126481Y-117604197D01*
X62617427Y-117604197D01*
X63108374Y-117604197D01*
X63108374Y-117888429D01*
X63108374Y-118172660D01*
X62989745Y-118172660D01*
X62871116Y-118172660D01*
X62879928Y-118441957D01*
X62884881Y-118563002D01*
X62892131Y-118647499D01*
X62904117Y-118703767D01*
X62923395Y-118743671D01*
X62952519Y-118779077D01*
X63014713Y-118824300D01*
X63106827Y-118843968D01*
X63198430Y-118821737D01*
X63273746Y-118758614D01*
X63281800Y-118747435D01*
X63293098Y-118728283D01*
X63302387Y-118703820D01*
X63309862Y-118669408D01*
X63315721Y-118620411D01*
X63320161Y-118552193D01*
X63323378Y-118460116D01*
X63325569Y-118339544D01*
X63326931Y-118185840D01*
X63327660Y-117994367D01*
X63327953Y-117760490D01*
X63328007Y-117479570D01*
X63328002Y-117384128D01*
X63327783Y-117102621D01*
X63326897Y-116867158D01*
X63324881Y-116673421D01*
X63321270Y-116517088D01*
X63315602Y-116393842D01*
X63307413Y-116299362D01*
X63296239Y-116229328D01*
X63281617Y-116179422D01*
X63263083Y-116145322D01*
X63240173Y-116122711D01*
X63212424Y-116107267D01*
X63179371Y-116094672D01*
X63084888Y-116082692D01*
X63000528Y-116115265D01*
X62934434Y-116188351D01*
X62891310Y-116296677D01*
X62875860Y-116434970D01*
X62875820Y-116570626D01*
X62539910Y-116570626D01*
X62203999Y-116570626D01*
X62203999Y-116053841D01*
X62203999Y-115537055D01*
X62501151Y-115537055D01*
X62798302Y-115537055D01*
X62798302Y-115629790D01*
X62798302Y-115722524D01*
X62879270Y-115654394D01*
X62900628Y-115636703D01*
X63013426Y-115556145D01*
X63123382Y-115506059D01*
X63248185Y-115480345D01*
X63405525Y-115472900D01*
X63518324Y-115474667D01*
G37*
%TO.C,D2*%
X81550000Y-55391250D02*
X81550000Y-51531250D01*
X83550000Y-55391250D02*
X81550000Y-55391250D01*
X83550000Y-55391250D02*
X83550000Y-51531250D01*
%TO.C,D3*%
X100600000Y-55391250D02*
X100600000Y-51531250D01*
X102600000Y-55391250D02*
X100600000Y-55391250D01*
X102600000Y-55391250D02*
X102600000Y-51531250D01*
%TO.C,D21*%
X176800000Y-74441250D02*
X176800000Y-70581250D01*
X178800000Y-74441250D02*
X176800000Y-74441250D01*
X178800000Y-74441250D02*
X178800000Y-70581250D01*
%TO.C,D52*%
X250618750Y-93491250D02*
X250618750Y-89631250D01*
X252618750Y-93491250D02*
X250618750Y-93491250D01*
X252618750Y-93491250D02*
X252618750Y-89631250D01*
%TO.C,C8*%
X279617836Y-66675654D02*
X279402164Y-66675654D01*
X279617836Y-65955654D02*
X279402164Y-65955654D01*
%TO.C,C5*%
X286121491Y-85696250D02*
X286337163Y-85696250D01*
X286121491Y-86416250D02*
X286337163Y-86416250D01*
%TO.C,C2*%
X278840935Y-90230914D02*
X278840935Y-90446586D01*
X278120935Y-90230914D02*
X278120935Y-90446586D01*
%TO.C,D49*%
X291100000Y-117303750D02*
X291100000Y-113443750D01*
X293100000Y-117303750D02*
X291100000Y-117303750D01*
X293100000Y-117303750D02*
X293100000Y-113443750D01*
%TO.C,J2*%
X248570197Y-65322500D02*
X251900197Y-65322500D01*
X251900197Y-65322500D02*
X251900197Y-64272500D01*
X251900197Y-64272500D02*
X252110197Y-64272500D01*
X247180197Y-64252500D02*
X247180197Y-63752500D01*
X252963750Y-63962500D02*
X252610197Y-63712500D01*
X247180197Y-63752500D02*
X247680197Y-63452500D01*
X252610197Y-63712500D02*
X252963750Y-63462500D01*
X252963750Y-63462500D02*
X252963750Y-63962500D01*
X247680197Y-63452500D02*
X247680197Y-60372500D01*
X247680197Y-60372500D02*
X247180197Y-60072500D01*
X247180197Y-60072500D02*
X247180197Y-59572500D01*
X248570197Y-58502500D02*
X251900197Y-58502500D01*
X251900197Y-58502500D02*
X251900197Y-59552500D01*
%TO.C,D6*%
X157750000Y-55391250D02*
X157750000Y-51531250D01*
X159750000Y-55391250D02*
X157750000Y-55391250D01*
X159750000Y-55391250D02*
X159750000Y-51531250D01*
%TO.C,R1*%
X280663636Y-62756265D02*
X280356354Y-62756265D01*
X280663636Y-61996265D02*
X280356354Y-61996265D01*
%TO.C,C4*%
X284875962Y-77958750D02*
X285091634Y-77958750D01*
X284875962Y-78678750D02*
X285091634Y-78678750D01*
%TO.C,D14*%
X253000000Y-74441250D02*
X253000000Y-70581250D01*
X255000000Y-74441250D02*
X253000000Y-74441250D01*
X255000000Y-74441250D02*
X255000000Y-70581250D01*
%TO.C,C1*%
X284875962Y-86982435D02*
X285091634Y-86982435D01*
X284875962Y-87702435D02*
X285091634Y-87702435D01*
%TO.C,D42*%
X104568750Y-117116250D02*
X104568750Y-113256250D01*
X106568750Y-117116250D02*
X104568750Y-117116250D01*
X106568750Y-117116250D02*
X106568750Y-113256250D01*
%TO.C,D8*%
X195850000Y-55391250D02*
X195850000Y-51531250D01*
X197850000Y-55391250D02*
X195850000Y-55391250D01*
X197850000Y-55391250D02*
X197850000Y-51531250D01*
%TO.C,D25*%
X272050000Y-74441250D02*
X272050000Y-70581250D01*
X274050000Y-74441250D02*
X272050000Y-74441250D01*
X274050000Y-74441250D02*
X274050000Y-70581250D01*
%TO.C,D48*%
X272050000Y-117303750D02*
X272050000Y-113443750D01*
X274050000Y-117303750D02*
X272050000Y-117303750D01*
X274050000Y-117303750D02*
X274050000Y-113443750D01*
%TO.C,D19*%
X138700000Y-74441250D02*
X138700000Y-70581250D01*
X140700000Y-74441250D02*
X138700000Y-74441250D01*
X140700000Y-74441250D02*
X140700000Y-70581250D01*
%TO.C,D16*%
X81550000Y-74441250D02*
X81550000Y-70581250D01*
X83550000Y-74441250D02*
X81550000Y-74441250D01*
X83550000Y-74441250D02*
X83550000Y-70581250D01*
%TO.C,D24*%
X233950000Y-74441250D02*
X233950000Y-70581250D01*
X235950000Y-74441250D02*
X233950000Y-74441250D01*
X235950000Y-74441250D02*
X235950000Y-70581250D01*
%TO.C,D38*%
X272050000Y-98253750D02*
X272050000Y-94393750D01*
X274050000Y-98253750D02*
X272050000Y-98253750D01*
X274050000Y-98253750D02*
X274050000Y-94393750D01*
%TO.C,D46*%
X214106250Y-117303750D02*
X214106250Y-113443750D01*
X216106250Y-117303750D02*
X214106250Y-117303750D01*
X216106250Y-117303750D02*
X216106250Y-113443750D01*
%TO.C,D13*%
X295862500Y-55391250D02*
X295862500Y-51531250D01*
X297862500Y-55391250D02*
X295862500Y-55391250D01*
X297862500Y-55391250D02*
X297862500Y-51531250D01*
%TO.C,D35*%
X195850000Y-93491250D02*
X195850000Y-89631250D01*
X197850000Y-93491250D02*
X195850000Y-93491250D01*
X197850000Y-93491250D02*
X197850000Y-89631250D01*
%TO.C,D41*%
X67262500Y-112541250D02*
X67262500Y-108681250D01*
X69262500Y-112541250D02*
X67262500Y-112541250D01*
X69262500Y-112541250D02*
X69262500Y-108681250D01*
%TO.C,D34*%
X176800000Y-93491250D02*
X176800000Y-89631250D01*
X178800000Y-93491250D02*
X176800000Y-93491250D01*
X178800000Y-93491250D02*
X178800000Y-89631250D01*
%TO.C,D28*%
X62500000Y-93491250D02*
X62500000Y-89631250D01*
X64500000Y-93491250D02*
X62500000Y-93491250D01*
X64500000Y-93491250D02*
X64500000Y-89631250D01*
%TO.C,D10*%
X233950000Y-55391250D02*
X233950000Y-51531250D01*
X235950000Y-55391250D02*
X233950000Y-55391250D01*
X235950000Y-55391250D02*
X235950000Y-51531250D01*
%TO.C,D18*%
X119650000Y-74441250D02*
X119650000Y-70581250D01*
X121650000Y-74441250D02*
X119650000Y-74441250D01*
X121650000Y-74441250D02*
X121650000Y-70581250D01*
%TO.C,D11*%
X253000000Y-55391250D02*
X253000000Y-51531250D01*
X255000000Y-55391250D02*
X253000000Y-55391250D01*
X255000000Y-55391250D02*
X255000000Y-51531250D01*
%TO.C,D50*%
X210137500Y-117303750D02*
X210137500Y-113443750D01*
X212137500Y-117303750D02*
X210137500Y-117303750D01*
X212137500Y-117303750D02*
X212137500Y-113443750D01*
%TO.C,D22*%
X195850000Y-74441250D02*
X195850000Y-70581250D01*
X197850000Y-74441250D02*
X195850000Y-74441250D01*
X197850000Y-74441250D02*
X197850000Y-70581250D01*
%TO.C,D40*%
X142668750Y-117303750D02*
X142668750Y-113443750D01*
X144668750Y-117303750D02*
X142668750Y-117303750D01*
X144668750Y-117303750D02*
X144668750Y-113443750D01*
%TO.C,D39*%
X295862500Y-93491250D02*
X295862500Y-89631250D01*
X297862500Y-93491250D02*
X295862500Y-93491250D01*
X297862500Y-93491250D02*
X297862500Y-89631250D01*
%TD*%
%LPC*%
D12*
%TO.C,MX25*%
X264795000Y-71437500D03*
D13*
X269875000Y-71437500D03*
D12*
X274955000Y-71437500D03*
D14*
X266065000Y-68897500D03*
X272415000Y-66357500D03*
%TD*%
D12*
%TO.C,MX44*%
X164782500Y-114300000D03*
D13*
X169862500Y-114300000D03*
D12*
X174942500Y-114300000D03*
D14*
X166052500Y-111760000D03*
X172402500Y-109220000D03*
%TD*%
D12*
%TO.C,MX15*%
X55245000Y-71437500D03*
D13*
X60325000Y-71437500D03*
D12*
X65405000Y-71437500D03*
D14*
X56515000Y-68897500D03*
X62865000Y-66357500D03*
%TD*%
D12*
%TO.C,MX46*%
X217170000Y-114300000D03*
D13*
X222250000Y-114300000D03*
D12*
X227330000Y-114300000D03*
D14*
X218440000Y-111760000D03*
X224790000Y-109220000D03*
%TD*%
D12*
%TO.C,MX19*%
X131445000Y-71437500D03*
D13*
X136525000Y-71437500D03*
D12*
X141605000Y-71437500D03*
D14*
X132715000Y-68897500D03*
X139065000Y-66357500D03*
%TD*%
D12*
%TO.C,MX17*%
X93345000Y-71437500D03*
D13*
X98425000Y-71437500D03*
D12*
X103505000Y-71437500D03*
D14*
X94615000Y-68897500D03*
X100965000Y-66357500D03*
%TD*%
D12*
%TO.C,MX56*%
X183832500Y-114300000D03*
D13*
X188912500Y-114300000D03*
D12*
X193992500Y-114300000D03*
D14*
X185102500Y-111760000D03*
X191452500Y-109220000D03*
%TD*%
D12*
%TO.C,MX51*%
X221932500Y-114300000D03*
D13*
X227012500Y-114300000D03*
D12*
X232092500Y-114300000D03*
D14*
X223202500Y-111760000D03*
X229552500Y-109220000D03*
%TD*%
D12*
%TO.C,MX49*%
X283845000Y-114300000D03*
D13*
X288925000Y-114300000D03*
D12*
X294005000Y-114300000D03*
D14*
X285115000Y-111760000D03*
X291465000Y-109220000D03*
%TD*%
D12*
%TO.C,MX35*%
X188595000Y-90487500D03*
D13*
X193675000Y-90487500D03*
D12*
X198755000Y-90487500D03*
D14*
X189865000Y-87947500D03*
X196215000Y-85407500D03*
%TD*%
D12*
%TO.C,MX22*%
X188595000Y-71437500D03*
D13*
X193675000Y-71437500D03*
D12*
X198755000Y-71437500D03*
D14*
X189865000Y-68897500D03*
X196215000Y-66357500D03*
%TD*%
D12*
%TO.C,MX50*%
X88582500Y-114300000D03*
D13*
X93662500Y-114300000D03*
D12*
X98742500Y-114300000D03*
D14*
X89852500Y-111760000D03*
X96202500Y-109220000D03*
%TD*%
D12*
%TO.C,MX41*%
X60007500Y-109537500D03*
D13*
X65087500Y-109537500D03*
D12*
X70167500Y-109537500D03*
D14*
X61277500Y-106997500D03*
X67627500Y-104457500D03*
%TD*%
D12*
%TO.C,MX54*%
X129063750Y-114300000D03*
D13*
X134143750Y-114300000D03*
D12*
X139223750Y-114300000D03*
D14*
X130333750Y-111760000D03*
X136683750Y-109220000D03*
%TD*%
D12*
%TO.C,MX48*%
X264795000Y-114300000D03*
D13*
X269875000Y-114300000D03*
D12*
X274955000Y-114300000D03*
D14*
X266065000Y-111760000D03*
X272415000Y-109220000D03*
%TD*%
D12*
%TO.C,MX34*%
X169545000Y-90487500D03*
D13*
X174625000Y-90487500D03*
D12*
X179705000Y-90487500D03*
D14*
X170815000Y-87947500D03*
X177165000Y-85407500D03*
%TD*%
D12*
%TO.C,MX5*%
X131445000Y-52387500D03*
D13*
X136525000Y-52387500D03*
D12*
X141605000Y-52387500D03*
D14*
X132715000Y-49847500D03*
X139065000Y-47307500D03*
%TD*%
D12*
%TO.C,MX21*%
X169545000Y-71437500D03*
D13*
X174625000Y-71437500D03*
D12*
X179705000Y-71437500D03*
D14*
X170815000Y-68897500D03*
X177165000Y-66357500D03*
%TD*%
D15*
%TO.C,S2*%
X200818750Y-121285000D03*
D13*
X200818750Y-106045000D03*
D15*
X177006250Y-121285000D03*
D13*
X177006250Y-106045000D03*
%TD*%
D12*
%TO.C,MX26*%
X288607500Y-71437500D03*
D13*
X293687500Y-71437500D03*
D12*
X298767500Y-71437500D03*
D14*
X289877500Y-68897500D03*
X296227500Y-66357500D03*
%TD*%
D12*
%TO.C,MX42*%
X93345000Y-114300000D03*
D13*
X98425000Y-114300000D03*
D12*
X103505000Y-114300000D03*
D14*
X94615000Y-111760000D03*
X100965000Y-109220000D03*
%TD*%
D15*
%TO.C,S10*%
X193675000Y-121285000D03*
D13*
X193675000Y-106045000D03*
D15*
X169862500Y-121285000D03*
D13*
X169862500Y-106045000D03*
%TD*%
D15*
%TO.C,S3*%
X227012500Y-121285000D03*
D13*
X227012500Y-106045000D03*
D15*
X112712500Y-121285000D03*
D13*
X112712500Y-106045000D03*
%TD*%
D12*
%TO.C,MX12*%
X264795000Y-52387500D03*
D13*
X269875000Y-52387500D03*
D12*
X274955000Y-52387500D03*
D14*
X266065000Y-49847500D03*
X272415000Y-47307500D03*
%TD*%
D16*
%TO.C,SW7*%
X245943750Y-97987500D03*
X250943750Y-97987500D03*
D17*
X248443750Y-97987500D03*
D18*
X242843750Y-90487500D03*
X254043750Y-90487500D03*
D16*
X250943750Y-83487500D03*
X245943750Y-83487500D03*
%TD*%
D12*
%TO.C,MX14*%
X245745000Y-71437500D03*
D13*
X250825000Y-71437500D03*
D12*
X255905000Y-71437500D03*
D14*
X247015000Y-68897500D03*
X253365000Y-66357500D03*
%TD*%
D12*
%TO.C,MX40*%
X145732500Y-114300000D03*
D13*
X150812500Y-114300000D03*
D12*
X155892500Y-114300000D03*
D14*
X147002500Y-111760000D03*
X153352500Y-109220000D03*
%TD*%
D12*
%TO.C,MX36*%
X207645000Y-90487500D03*
D13*
X212725000Y-90487500D03*
D12*
X217805000Y-90487500D03*
D14*
X208915000Y-87947500D03*
X215265000Y-85407500D03*
%TD*%
D12*
%TO.C,MX59*%
X202882500Y-114300000D03*
D13*
X207962500Y-114300000D03*
D12*
X213042500Y-114300000D03*
D14*
X204152500Y-111760000D03*
X210502500Y-109220000D03*
%TD*%
D12*
%TO.C,MX61*%
X226695000Y-90487500D03*
D13*
X231775000Y-90487500D03*
D12*
X236855000Y-90487500D03*
D14*
X227965000Y-87947500D03*
X234315000Y-85407500D03*
%TD*%
D12*
%TO.C,MX8*%
X188595000Y-52387500D03*
D13*
X193675000Y-52387500D03*
D12*
X198755000Y-52387500D03*
D14*
X189865000Y-49847500D03*
X196215000Y-47307500D03*
%TD*%
D12*
%TO.C,MX52*%
X107632500Y-114300000D03*
D13*
X112712500Y-114300000D03*
D12*
X117792500Y-114300000D03*
D14*
X108902500Y-111760000D03*
X115252500Y-109220000D03*
%TD*%
D12*
%TO.C,MX58*%
X176688750Y-114300000D03*
D13*
X181768750Y-114300000D03*
D12*
X186848750Y-114300000D03*
D14*
X177958750Y-111760000D03*
X184308750Y-109220000D03*
%TD*%
D15*
%TO.C,S7*%
X150812500Y-121285000D03*
D13*
X150812500Y-106045000D03*
D15*
X112712500Y-121285000D03*
D13*
X112712500Y-106045000D03*
%TD*%
D15*
%TO.C,S1*%
X143668750Y-121285000D03*
D13*
X143668750Y-106045000D03*
D15*
X119856250Y-121285000D03*
D13*
X119856250Y-106045000D03*
%TD*%
D12*
%TO.C,MX31*%
X112395000Y-90487500D03*
D13*
X117475000Y-90487500D03*
D12*
X122555000Y-90487500D03*
D14*
X113665000Y-87947500D03*
X120015000Y-85407500D03*
%TD*%
D12*
%TO.C,MX38*%
X264795000Y-95250000D03*
D13*
X269875000Y-95250000D03*
D12*
X274955000Y-95250000D03*
D14*
X266065000Y-92710000D03*
X272415000Y-90170000D03*
%TD*%
D12*
%TO.C,MX18*%
X112395000Y-71437500D03*
D13*
X117475000Y-71437500D03*
D12*
X122555000Y-71437500D03*
D14*
X113665000Y-68897500D03*
X120015000Y-66357500D03*
%TD*%
D12*
%TO.C,MX32*%
X131445000Y-90487500D03*
D13*
X136525000Y-90487500D03*
D12*
X141605000Y-90487500D03*
D14*
X132715000Y-87947500D03*
X139065000Y-85407500D03*
%TD*%
D16*
%TO.C,SW4*%
X86162500Y-111800000D03*
X86162500Y-116800000D03*
D19*
X86162500Y-114300000D03*
D20*
X93662500Y-108700000D03*
X93662500Y-119900000D03*
D16*
X100662500Y-116800000D03*
X100662500Y-111800000D03*
%TD*%
D12*
%TO.C,MX29*%
X74295000Y-90487500D03*
D13*
X79375000Y-90487500D03*
D12*
X84455000Y-90487500D03*
D14*
X75565000Y-87947500D03*
X81915000Y-85407500D03*
%TD*%
D12*
%TO.C,MX6*%
X150495000Y-52387500D03*
D13*
X155575000Y-52387500D03*
D12*
X160655000Y-52387500D03*
D14*
X151765000Y-49847500D03*
X158115000Y-47307500D03*
%TD*%
D12*
%TO.C,MX30*%
X93345000Y-90487500D03*
D13*
X98425000Y-90487500D03*
D12*
X103505000Y-90487500D03*
D14*
X94615000Y-87947500D03*
X100965000Y-85407500D03*
%TD*%
D12*
%TO.C,MX1*%
X55245000Y-52387500D03*
D13*
X60325000Y-52387500D03*
D12*
X65405000Y-52387500D03*
D14*
X56515000Y-49847500D03*
X62865000Y-47307500D03*
%TD*%
D12*
%TO.C,MX7*%
X169545000Y-52387500D03*
D13*
X174625000Y-52387500D03*
D12*
X179705000Y-52387500D03*
D14*
X170815000Y-49847500D03*
X177165000Y-47307500D03*
%TD*%
D12*
%TO.C,MX39*%
X288607500Y-90487500D03*
D13*
X293687500Y-90487500D03*
D12*
X298767500Y-90487500D03*
D14*
X289877500Y-87947500D03*
X296227500Y-85407500D03*
%TD*%
D12*
%TO.C,MX28*%
X55245000Y-90487500D03*
D13*
X60325000Y-90487500D03*
D12*
X65405000Y-90487500D03*
D14*
X56515000Y-87947500D03*
X62865000Y-85407500D03*
%TD*%
D15*
%TO.C,S5*%
X188912500Y-121285000D03*
D13*
X188912500Y-106045000D03*
D15*
X131762500Y-121285000D03*
D13*
X131762500Y-106045000D03*
%TD*%
D15*
%TO.C,S4*%
X207962500Y-121285000D03*
D13*
X207962500Y-106045000D03*
D15*
X112712500Y-121285000D03*
D13*
X112712500Y-106045000D03*
%TD*%
D12*
%TO.C,MX37*%
X233838750Y-90487500D03*
D13*
X238918750Y-90487500D03*
D12*
X243998750Y-90487500D03*
D14*
X235108750Y-87947500D03*
X241458750Y-85407500D03*
%TD*%
D16*
%TO.C,SW5*%
X234512500Y-116800000D03*
X234512500Y-111800000D03*
D21*
X234512500Y-114300000D03*
D22*
X227012500Y-119900000D03*
X227012500Y-108700000D03*
D16*
X220012500Y-111800000D03*
X220012500Y-116800000D03*
%TD*%
D12*
%TO.C,MX47*%
X245745000Y-114300000D03*
D13*
X250825000Y-114300000D03*
D12*
X255905000Y-114300000D03*
D14*
X247015000Y-111760000D03*
X253365000Y-109220000D03*
%TD*%
D12*
%TO.C,MX20*%
X150495000Y-71437500D03*
D13*
X155575000Y-71437500D03*
D12*
X160655000Y-71437500D03*
D14*
X151765000Y-68897500D03*
X158115000Y-66357500D03*
%TD*%
D12*
%TO.C,MX16*%
X74295000Y-71437500D03*
D13*
X79375000Y-71437500D03*
D12*
X84455000Y-71437500D03*
D14*
X75565000Y-68897500D03*
X81915000Y-66357500D03*
%TD*%
D12*
%TO.C,MX11*%
X245745000Y-52387500D03*
D13*
X250825000Y-52387500D03*
D12*
X255905000Y-52387500D03*
D14*
X247015000Y-49847500D03*
X253365000Y-47307500D03*
%TD*%
D12*
%TO.C,MX3*%
X93345000Y-52387500D03*
D13*
X98425000Y-52387500D03*
D12*
X103505000Y-52387500D03*
D14*
X94615000Y-49847500D03*
X100965000Y-47307500D03*
%TD*%
D12*
%TO.C,MX27*%
X126682500Y-114300000D03*
D13*
X131762500Y-114300000D03*
D12*
X136842500Y-114300000D03*
D14*
X127952500Y-111760000D03*
X134302500Y-109220000D03*
%TD*%
D15*
%TO.C,S8*%
X207962500Y-121285000D03*
D13*
X207962500Y-106045000D03*
D15*
X169862500Y-121285000D03*
D13*
X169862500Y-106045000D03*
%TD*%
D15*
%TO.C,S9*%
X146050000Y-121285000D03*
D13*
X146050000Y-106045000D03*
D15*
X122237500Y-121285000D03*
D13*
X122237500Y-106045000D03*
%TD*%
D12*
%TO.C,MX33*%
X150495000Y-90487500D03*
D13*
X155575000Y-90487500D03*
D12*
X160655000Y-90487500D03*
D14*
X151765000Y-87947500D03*
X158115000Y-85407500D03*
%TD*%
D16*
%TO.C,SW2*%
X291187500Y-78937500D03*
X296187500Y-78937500D03*
D17*
X293687500Y-78937500D03*
D18*
X288087500Y-71437500D03*
X299287500Y-71437500D03*
D16*
X296187500Y-64437500D03*
X291187500Y-64437500D03*
%TD*%
%TO.C,SW3*%
X291187500Y-97987500D03*
X296187500Y-97987500D03*
D17*
X293687500Y-97987500D03*
D18*
X288087500Y-90487500D03*
X299287500Y-90487500D03*
D16*
X296187500Y-83487500D03*
X291187500Y-83487500D03*
%TD*%
D12*
%TO.C,MX23*%
X207645000Y-71437500D03*
D13*
X212725000Y-71437500D03*
D12*
X217805000Y-71437500D03*
D14*
X208915000Y-68897500D03*
X215265000Y-66357500D03*
%TD*%
D15*
%TO.C,S6*%
X227012500Y-121285000D03*
D13*
X227012500Y-106045000D03*
D15*
X93662500Y-121285000D03*
D13*
X93662500Y-106045000D03*
%TD*%
D12*
%TO.C,MX10*%
X226695000Y-52387500D03*
D13*
X231775000Y-52387500D03*
D12*
X236855000Y-52387500D03*
D14*
X227965000Y-49847500D03*
X234315000Y-47307500D03*
%TD*%
D16*
%TO.C,SW1*%
X291187500Y-59887500D03*
X296187500Y-59887500D03*
D17*
X293687500Y-59887500D03*
D18*
X288087500Y-52387500D03*
X299287500Y-52387500D03*
D16*
X296187500Y-45387500D03*
X291187500Y-45387500D03*
%TD*%
D12*
%TO.C,MX4*%
X112395000Y-52387500D03*
D13*
X117475000Y-52387500D03*
D12*
X122555000Y-52387500D03*
D14*
X113665000Y-49847500D03*
X120015000Y-47307500D03*
%TD*%
D12*
%TO.C,MX9*%
X207645000Y-52387500D03*
D13*
X212725000Y-52387500D03*
D12*
X217805000Y-52387500D03*
D14*
X208915000Y-49847500D03*
X215265000Y-47307500D03*
%TD*%
D12*
%TO.C,MX13*%
X288607500Y-52387500D03*
D13*
X293687500Y-52387500D03*
D12*
X298767500Y-52387500D03*
D14*
X289877500Y-49847500D03*
X296227500Y-47307500D03*
%TD*%
D12*
%TO.C,MX24*%
X226695000Y-71437500D03*
D13*
X231775000Y-71437500D03*
D12*
X236855000Y-71437500D03*
D14*
X227965000Y-68897500D03*
X234315000Y-66357500D03*
%TD*%
D12*
%TO.C,MX55*%
X155257500Y-114300000D03*
D13*
X160337500Y-114300000D03*
D12*
X165417500Y-114300000D03*
D14*
X156527500Y-111760000D03*
X162877500Y-109220000D03*
%TD*%
D12*
%TO.C,MX2*%
X74295000Y-52387500D03*
D13*
X79375000Y-52387500D03*
D12*
X84455000Y-52387500D03*
D14*
X75565000Y-49847500D03*
X81915000Y-47307500D03*
%TD*%
D23*
%TO.C,D23*%
X215900000Y-73631250D03*
X215900000Y-70831250D03*
%TD*%
D24*
%TO.C,U1*%
X282481250Y-87043750D03*
X281981250Y-87043750D03*
X281481250Y-87043750D03*
X280981250Y-87043750D03*
X280481250Y-87043750D03*
X279981250Y-87043750D03*
X279481250Y-87043750D03*
X278981250Y-87043750D03*
X278481250Y-87043750D03*
X277981250Y-87043750D03*
X277481250Y-87043750D03*
X276981250Y-87043750D03*
D25*
X275568750Y-85631250D03*
X275568750Y-85131250D03*
X275568750Y-84631250D03*
X275568750Y-84131250D03*
X275568750Y-83631250D03*
X275568750Y-83131250D03*
X275568750Y-82631250D03*
X275568750Y-82131250D03*
X275568750Y-81631250D03*
X275568750Y-81131250D03*
X275568750Y-80631250D03*
X275568750Y-80131250D03*
D24*
X276981250Y-78718750D03*
X277481250Y-78718750D03*
X277981250Y-78718750D03*
X278481250Y-78718750D03*
X278981250Y-78718750D03*
X279481250Y-78718750D03*
X279981250Y-78718750D03*
X280481250Y-78718750D03*
X280981250Y-78718750D03*
X281481250Y-78718750D03*
X281981250Y-78718750D03*
X282481250Y-78718750D03*
D25*
X283893750Y-80131250D03*
X283893750Y-80631250D03*
X283893750Y-81131250D03*
X283893750Y-81631250D03*
X283893750Y-82131250D03*
X283893750Y-82631250D03*
X283893750Y-83131250D03*
X283893750Y-83631250D03*
X283893750Y-84131250D03*
X283893750Y-84631250D03*
X283893750Y-85131250D03*
X283893750Y-85631250D03*
%TD*%
D26*
%TO.C,C3*%
X274675000Y-78781250D03*
X273715000Y-78781250D03*
%TD*%
D23*
%TO.C,D29*%
X82550000Y-92681250D03*
X82550000Y-89881250D03*
%TD*%
%TO.C,D5*%
X139700000Y-54581250D03*
X139700000Y-51781250D03*
%TD*%
D27*
%TO.C,C7*%
X279477557Y-89859709D03*
X279477557Y-90819709D03*
%TD*%
D23*
%TO.C,D32*%
X139700000Y-92681250D03*
X139700000Y-89881250D03*
%TD*%
%TO.C,D1*%
X63500000Y-54581250D03*
X63500000Y-51781250D03*
%TD*%
%TO.C,D4*%
X120650000Y-54581250D03*
X120650000Y-51781250D03*
%TD*%
%TO.C,D27*%
X141287500Y-116493750D03*
X141287500Y-113693750D03*
%TD*%
%TO.C,D15*%
X63500000Y-73631250D03*
X63500000Y-70831250D03*
%TD*%
%TO.C,D12*%
X273050000Y-54581250D03*
X273050000Y-51781250D03*
%TD*%
%TO.C,D31*%
X120650000Y-92681250D03*
X120650000Y-89881250D03*
%TD*%
D28*
%TO.C,J1*%
X252825000Y-63412500D03*
X252825000Y-62412500D03*
X252825000Y-61412500D03*
X252825000Y-60412500D03*
D29*
X248950000Y-64712500D03*
X248950000Y-59112500D03*
%TD*%
D23*
%TO.C,D9*%
X215900000Y-54581250D03*
X215900000Y-51781250D03*
%TD*%
%TO.C,D44*%
X173037500Y-116493750D03*
X173037500Y-113693750D03*
%TD*%
%TO.C,D7*%
X177800000Y-54581250D03*
X177800000Y-51781250D03*
%TD*%
%TO.C,D36*%
X215900000Y-92681250D03*
X215900000Y-89881250D03*
%TD*%
%TO.C,D26*%
X296862500Y-73631250D03*
X296862500Y-70831250D03*
%TD*%
D26*
%TO.C,C9*%
X279990000Y-71437500D03*
X279030000Y-71437500D03*
%TD*%
D23*
%TO.C,D47*%
X254000000Y-116493750D03*
X254000000Y-113693750D03*
%TD*%
D30*
%TO.C,U2*%
X281143750Y-69850000D03*
X279243750Y-69850000D03*
X280193750Y-67975000D03*
%TD*%
D23*
%TO.C,D17*%
X101600000Y-73631250D03*
X101600000Y-70831250D03*
%TD*%
%TO.C,D45*%
X192087500Y-116493750D03*
X192087500Y-113693750D03*
%TD*%
%TO.C,D37*%
X246062500Y-92681250D03*
X246062500Y-89881250D03*
%TD*%
%TO.C,D43*%
X115887500Y-116493750D03*
X115887500Y-113693750D03*
%TD*%
%TO.C,D33*%
X158750000Y-92681250D03*
X158750000Y-89881250D03*
%TD*%
D31*
%TO.C,C6*%
X283125000Y-76531250D03*
X284675000Y-76531250D03*
%TD*%
D32*
%TO.C,SW6*%
X287262500Y-56887500D03*
X281062500Y-56887500D03*
X287262500Y-60587500D03*
X281062500Y-60587500D03*
%TD*%
D23*
%TO.C,D30*%
X101600000Y-92681250D03*
X101600000Y-89881250D03*
%TD*%
%TO.C,D20*%
X158750000Y-73631250D03*
X158750000Y-70831250D03*
%TD*%
%TO.C,D2*%
X82550000Y-54581250D03*
X82550000Y-51781250D03*
%TD*%
%TO.C,D3*%
X101600000Y-54581250D03*
X101600000Y-51781250D03*
%TD*%
%TO.C,D21*%
X177800000Y-73631250D03*
X177800000Y-70831250D03*
%TD*%
%TO.C,D52*%
X251618750Y-92681250D03*
X251618750Y-89881250D03*
%TD*%
D26*
%TO.C,C8*%
X279990000Y-66315654D03*
X279030000Y-66315654D03*
%TD*%
D33*
%TO.C,C5*%
X285749327Y-86056250D03*
X286709327Y-86056250D03*
%TD*%
D27*
%TO.C,C2*%
X278480935Y-89858750D03*
X278480935Y-90818750D03*
%TD*%
D23*
%TO.C,D49*%
X292100000Y-116493750D03*
X292100000Y-113693750D03*
%TD*%
D34*
%TO.C,J2*%
X251685197Y-63712500D03*
X251685197Y-62512500D03*
X251685197Y-61312500D03*
X251685197Y-60112500D03*
D35*
X247910197Y-64862500D03*
X247910197Y-58962500D03*
%TD*%
D23*
%TO.C,D6*%
X158750000Y-54581250D03*
X158750000Y-51781250D03*
%TD*%
D36*
%TO.C,R1*%
X281019995Y-62376265D03*
X279999995Y-62376265D03*
%TD*%
D33*
%TO.C,C4*%
X284503798Y-78318750D03*
X285463798Y-78318750D03*
%TD*%
D23*
%TO.C,D14*%
X254000000Y-73631250D03*
X254000000Y-70831250D03*
%TD*%
D33*
%TO.C,C1*%
X284503798Y-87342435D03*
X285463798Y-87342435D03*
%TD*%
D23*
%TO.C,D42*%
X105568750Y-116306250D03*
X105568750Y-113506250D03*
%TD*%
%TO.C,D8*%
X196850000Y-54581250D03*
X196850000Y-51781250D03*
%TD*%
%TO.C,D25*%
X273050000Y-73631250D03*
X273050000Y-70831250D03*
%TD*%
%TO.C,D48*%
X273050000Y-116493750D03*
X273050000Y-113693750D03*
%TD*%
%TO.C,D19*%
X139700000Y-73631250D03*
X139700000Y-70831250D03*
%TD*%
%TO.C,D16*%
X82550000Y-73631250D03*
X82550000Y-70831250D03*
%TD*%
%TO.C,D24*%
X234950000Y-73631250D03*
X234950000Y-70831250D03*
%TD*%
%TO.C,D38*%
X273050000Y-97443750D03*
X273050000Y-94643750D03*
%TD*%
%TO.C,D46*%
X215106250Y-116493750D03*
X215106250Y-113693750D03*
%TD*%
%TO.C,D13*%
X296862500Y-54581250D03*
X296862500Y-51781250D03*
%TD*%
%TO.C,D35*%
X196850000Y-92681250D03*
X196850000Y-89881250D03*
%TD*%
%TO.C,D41*%
X68262500Y-111731250D03*
X68262500Y-108931250D03*
%TD*%
%TO.C,D34*%
X177800000Y-92681250D03*
X177800000Y-89881250D03*
%TD*%
%TO.C,D28*%
X63500000Y-92681250D03*
X63500000Y-89881250D03*
%TD*%
%TO.C,D10*%
X234950000Y-54581250D03*
X234950000Y-51781250D03*
%TD*%
%TO.C,D18*%
X120650000Y-73631250D03*
X120650000Y-70831250D03*
%TD*%
%TO.C,D11*%
X254000000Y-54581250D03*
X254000000Y-51781250D03*
%TD*%
%TO.C,D50*%
X211137500Y-116493750D03*
X211137500Y-113693750D03*
%TD*%
%TO.C,D22*%
X196850000Y-73631250D03*
X196850000Y-70831250D03*
%TD*%
%TO.C,D40*%
X143668750Y-116493750D03*
X143668750Y-113693750D03*
%TD*%
%TO.C,D39*%
X296862500Y-92681250D03*
X296862500Y-89881250D03*
%TD*%
M02*
